<svg width="60" height="60" viewBox="0 0 60 60" fill="none" xmlns="http://www.w3.org/2000/svg">
<g clip-path="url(#clip0_70_12346)">
<path d="M46.4408 33.632C44.7903 25.3257 52.6744 20.4541 52.6744 20.4541C52.6744 20.4541 49.6026 16.01 44.4402 14.8667C39.2803 13.7209 36.6978 15.1525 34.1203 16.2262C31.5403 17.3025 30.253 17.3025 30.253 17.3025C26.5299 17.3025 23.8082 13.3604 16.7146 15.1551C11.8277 16.3884 6.68315 22.0299 5.75365 28.763C4.82415 35.4987 6.82997 44.0934 10.6973 50.7545C14.5646 57.4207 18.5042 59.926 21.3003 59.9981C24.0966 60.0675 26.8877 57.9949 30.253 57.4902C33.6209 56.9906 35.6936 58.7107 38.997 59.6402C42.2876 60.5672 43.4411 59.7072 47.2312 56.4834C51.0316 53.2597 54.4716 44.0137 54.4716 44.0137C54.4716 44.0137 48.0912 41.9434 46.4408 33.632Z" fill="white"/>
<path d="M39.1334 9.49327C42.7896 5.76763 41.5512 0 41.5512 0C41.5512 0 36.417 0.901211 32.977 4.48015C29.5397 8.06172 30.1087 13.7186 30.1087 13.7186C30.1087 13.7186 35.4772 13.2165 39.1334 9.49327Z" fill="white"/>
</g>
<defs>
<clipPath id="clip0_70_12346">
<rect width="60" height="60" fill="white"/>
</clipPath>
</defs>
</svg>
