<svg width="1937" height="701" viewBox="0 0 1937 701" fill="none" xmlns="http://www.w3.org/2000/svg">
<g opacity="0.3">
<path d="M704.892 700.402C697.764 700.402 690.826 699.83 684.159 698.688C670.177 696.292 657.259 691.374 645.763 684.068C633.408 676.218 622.571 665.521 613.552 652.276C595.425 625.653 586.357 593.771 577.585 562.937C575.862 556.883 574.081 550.622 572.272 544.548C559.93 503.147 544.285 466.882 524.446 433.68C484.87 367.45 429.213 310.926 363.489 270.222C287.481 223.15 205.759 199.701 133.376 204.197C90.8331 206.841 34.6221 231.98 9.5 274.915C-5.40892 300.396 -6.61111 328.673 6.02576 356.685L5.77483 356.803C-0.851043 342.112 -3.73797 327.385 -2.80323 313.029C-1.9457 299.86 2.1131 286.987 9.26287 274.768C20.6341 255.333 39.3868 238.108 63.4941 224.953C85.7706 212.799 110.581 205.327 133.359 203.912C171.24 201.561 211.527 206.779 253.102 219.423C290.79 230.887 327.978 247.895 363.633 269.976C429.395 310.704 485.085 367.258 524.683 433.528C544.533 466.752 560.187 503.037 572.537 544.461C574.348 550.535 576.13 556.798 577.85 562.853C586.613 593.664 595.676 625.523 613.778 652.107C631.285 677.819 654.981 693.395 684.206 698.401C724.678 705.335 773.825 690.832 815.67 659.604C875.973 614.604 917.824 549.103 958.299 485.761C965.394 474.659 972.728 463.178 979.991 452.092C998.846 423.305 1024.38 386.002 1054.73 352.77C1085.75 318.802 1117.27 293.845 1151.1 276.471C1171.8 265.836 1193.74 258.671 1216.32 255.175C1237.16 251.945 1259.23 251.745 1281.91 254.575C1320.8 259.432 1362.7 273.15 1410 296.512C1503.15 342.515 1596.19 398.354 1686.55 462.479C1772.43 523.428 1856.66 592.395 1936.9 667.46L1936.71 667.668C1770.38 512.063 1593.13 387.273 1409.88 296.765C1306.35 245.631 1224.16 239.261 1151.22 276.722C1077.02 314.83 1025.18 383.604 980.22 452.247C972.96 463.33 965.625 474.811 958.531 485.914C918.045 549.278 876.18 614.798 815.836 659.83C796.336 674.383 774.399 685.733 752.398 692.653C740.776 696.309 729.222 698.699 718.055 699.759C713.605 700.191 709.212 700.402 704.892 700.402Z" fill="#A1A1A1"/>
<path d="M711.86 684.615C693.684 684.615 676.847 681.077 661.801 674.095C645.022 666.31 630.544 654.246 618.764 638.242C617.722 636.824 616.688 635.358 615.69 633.881C597.756 607.374 588.285 575.906 579.127 545.473C577.275 539.323 575.361 532.961 573.42 526.788C561.858 490.032 547.936 457.637 530.855 427.756C528.751 424.078 526.573 420.391 524.375 416.8C484.217 351.138 428.108 295.331 362.114 255.41C285.557 209.141 203.603 186.662 131.35 192.116C89.1159 195.338 33.164 220.889 7.93443 263.494C-7.17301 289.006 -8.88254 317.339 2.98503 345.433L2.73134 345.546C-3.48921 330.821 -6.04523 316.065 -4.86234 301.693C-3.77595 288.493 0.44827 275.592 7.6973 263.347C19.1844 243.946 37.8819 226.701 61.7631 213.479C83.8356 201.257 108.539 193.57 131.325 191.834C169.159 188.979 209.49 193.697 251.198 205.857C288.976 216.873 326.34 233.463 362.252 255.167C428.285 295.111 484.424 350.952 524.607 416.65C526.804 420.244 528.985 423.934 531.089 427.615C548.182 457.516 562.112 489.928 573.679 526.703C575.623 532.876 577.536 539.238 579.389 545.391C588.544 575.805 598.007 607.25 615.916 633.721C616.911 635.192 617.945 636.658 618.985 638.073C643.327 671.156 676.773 684.615 711.946 684.615C712.139 684.615 712.329 684.615 712.522 684.615C712.301 684.612 712.081 684.615 711.86 684.615ZM719.363 684.418C752.062 682.701 785.804 669.856 814.75 650.748C877.19 609.361 922.066 545.439 965.466 483.622C967.253 481.074 969.04 478.532 970.826 475.989C974.75 470.408 979.402 463.801 984.15 457.141C1005.45 427.271 1031.23 392.517 1060.92 361.235C1092.5 327.949 1124.06 303.249 1157.39 285.719C1177.87 274.96 1199.51 267.381 1221.72 263.192C1242.29 259.311 1264.03 258.214 1286.33 259.931C1324.85 262.899 1366.27 274.151 1412.96 294.333C1458.48 313.979 1495.89 332.473 1530.71 352.533C1580.03 380.98 1627.02 413.755 1666.47 442.064C1758.2 508.066 1848.2 583.012 1933.97 664.822L1933.78 665.028C1848.02 583.229 1758.03 508.289 1666.31 442.295C1626.87 413.989 1579.89 381.219 1530.58 352.782C1495.77 332.727 1458.36 314.239 1412.85 294.598C1311.15 250.632 1230.01 247.89 1157.52 285.973C1082.27 325.542 1028.69 395.161 984.373 457.31C979.622 463.97 974.973 470.575 971.05 476.158C969.263 478.698 967.476 481.243 965.689 483.791C922.275 545.628 877.383 609.573 814.899 650.991C799.405 661.217 782.919 669.34 765.896 675.133C750.049 680.519 734.429 683.634 719.363 684.418Z" fill="#A1A1A1"/>
<path d="M719.543 669.189C717.357 669.189 715.184 669.141 713.028 669.042C694.868 668.222 678.062 663.963 663.078 656.378C646.692 648.082 632.494 635.795 620.883 619.856C619.852 618.435 618.823 616.967 617.831 615.49C600.098 589.112 590.232 558.064 580.695 528.043C578.707 521.785 576.65 515.313 574.565 509.033C562.433 472.402 548.144 440.266 530.878 410.788C528.741 407.143 526.53 403.487 524.299 399.925C483.559 334.835 426.998 279.744 360.734 240.607C283.631 195.141 201.445 173.629 129.319 180.041C88.709 183.708 32.9199 207.803 6.39429 252.034C-8.93098 277.588 -11.1617 305.997 -0.0578812 334.19L-0.314295 334.294C-6.13227 319.524 -8.35195 304.735 -6.91813 290.337C-5.60013 277.095 -1.1994 264.16 6.15992 251.887C17.7683 232.531 36.4051 215.281 60.0575 201.996C81.9232 189.715 106.513 181.82 129.294 179.762C167.083 176.405 207.459 180.622 249.296 192.297C287.168 202.867 324.707 219.038 360.872 240.364C427.175 279.527 483.766 334.649 524.531 399.775C526.761 403.341 528.975 406.997 531.112 410.647C548.387 440.142 562.684 472.297 574.822 508.949C576.906 515.232 578.963 521.703 580.951 527.961C590.486 557.966 600.344 588.991 618.054 615.337C619.047 616.814 620.07 618.28 621.101 619.695C668.282 684.463 751.895 677.509 813.827 641.89C878.873 604.15 927.212 541.426 973.96 480.767L974.439 480.145C978.967 474.265 983.649 468.188 988.309 462.187C1037.48 398.879 1091.53 333.818 1163.69 294.962C1183.94 284.076 1205.29 276.083 1227.12 271.203C1247.43 266.665 1268.84 264.673 1290.76 265.281C1328.97 266.341 1369.91 275.13 1415.92 292.149C1464.27 309.972 1500.66 326.354 1533.9 345.27C1581.27 372.276 1627.14 406.402 1667.62 436.511C1757.75 503.909 1846.37 579.833 1931.05 662.17L1930.86 662.373C1846.19 580.045 1757.57 504.129 1667.46 436.737C1626.99 406.633 1581.12 372.513 1533.77 345.515C1500.54 326.605 1464.16 310.228 1415.83 292.411C1316.1 255.52 1236.02 256.408 1163.81 295.207C1091.7 334.038 1037.68 399.071 988.524 462.356C983.864 468.357 979.182 474.437 974.655 480.314L974.175 480.937C950.878 511.164 926.79 542.421 900.777 570.34C871.544 601.715 843.146 625.197 813.96 642.129C783.425 659.69 750.163 669.189 719.543 669.189Z" fill="#A1A1A1"/>
<path d="M1927.94 659.715C1844.37 576.857 1757.12 499.965 1668.61 431.178C1664.86 428.286 1661.11 425.38 1657.34 422.465C1619 392.807 1579.36 362.14 1536.97 338.249C1495.84 315.135 1454.16 301.002 1418.81 290.227C1321.24 260.298 1242.22 264.816 1170.12 304.441C1096.11 345.239 1038.76 412.975 992.687 467.404C989.921 470.671 987.161 473.943 984.395 477.219C982.355 479.637 980.312 482.055 978.269 484.471C952.033 515.494 928.168 543.23 901.799 568.539C871.675 597.45 842.641 618.624 813.03 633.273C785.28 647.002 755.636 654.266 728.062 654.269C723.039 654.269 718.089 654.029 713.225 653.542C695.468 651.763 679.029 646.766 664.365 638.687C648.364 629.873 634.448 617.353 622.997 601.472C621.974 600.049 620.954 598.577 619.967 597.098C602.444 570.858 592.195 540.247 582.285 510.645C580.151 504.27 577.942 497.674 575.709 491.273C562.997 454.756 548.339 422.877 530.902 393.811C528.732 390.194 526.485 386.572 524.224 383.04C482.899 318.523 425.889 264.148 359.357 225.791C281.708 181.129 199.294 160.589 127.294 167.952C78.0731 173.085 27.7407 202.923 4.89342 240.51C-10.6717 266.118 -13.4319 294.618 -3.0946 322.929L-3.35378 323.028C-8.76643 308.204 -10.6525 293.369 -8.95946 278.935C-7.40157 265.645 -2.81887 252.667 4.65902 240.361C16.3887 221.061 34.9649 203.811 58.3802 190.479C80.0363 178.147 104.499 170.046 127.267 167.673C165.012 163.811 205.429 167.529 247.396 178.719C285.358 188.844 323.076 204.598 359.495 225.543C426.068 263.923 483.109 318.329 524.458 382.885C526.722 386.42 528.969 390.045 531.139 393.661C548.587 422.745 563.251 454.641 575.971 491.174C578.204 497.578 580.413 504.171 582.547 510.55C592.451 540.135 602.695 570.726 620.195 596.934C621.183 598.411 622.2 599.88 623.22 601.3C672.475 669.608 756.19 661.076 812.911 633.016C880.584 599.536 932.37 538.308 978.062 484.285C980.105 481.867 982.145 479.448 984.189 477.033C986.951 473.757 989.714 470.485 992.48 467.218C1018.78 436.15 1044.76 405.959 1073.31 378.139C1106.15 346.144 1137.77 321.957 1169.99 304.193C1190.04 293.175 1211.08 284.767 1232.54 279.205C1252.59 274.005 1273.67 271.119 1295.2 270.623C1333.17 269.749 1373.63 276.074 1418.9 289.956C1454.26 300.737 1495.96 314.876 1537.1 338.003C1579.51 361.903 1619.16 392.579 1657.51 422.243C1661.28 425.157 1665.04 428.063 1668.79 430.955C1757.3 499.748 1844.56 576.648 1928.13 659.515L1927.94 659.715Z" fill="#A1A1A1"/>
<path d="M1925.02 657.06C1840.97 572.087 1755.1 494.218 1669.76 425.62C1664.66 421.516 1659.43 417.285 1654.38 413.195C1618.2 383.903 1580.8 353.613 1540.16 330.982C1499.59 308.464 1457.56 296.636 1421.79 288.039C1326.59 264.934 1248.62 273.08 1176.42 313.675C1107.56 352.537 1053.6 410.974 1001.43 467.486L995.697 473.69C991.172 478.591 986.493 483.656 981.88 488.626C929.651 544.814 877.366 597.475 812.097 624.411C796.259 630.947 779.996 635.477 763.755 637.881C746.315 640.46 729.374 640.497 713.401 637.988C696.052 635.263 679.985 629.538 665.647 620.972C650.043 611.65 636.405 598.902 625.117 583.083C624.099 581.651 623.087 580.177 622.108 578.7C604.801 552.616 594.182 522.456 583.914 493.288C581.622 486.78 579.251 480.049 576.858 473.512C563.556 437.109 548.535 405.486 530.932 376.837C528.731 373.257 526.451 369.663 524.154 366.159C482.248 302.214 424.788 248.555 357.983 210.979C279.785 167.126 197.14 147.553 125.264 155.871C76.4925 161.635 26.389 191.682 3.42591 228.943C-12.3984 254.615 -15.7045 283.225 -6.13651 311.68L-6.39848 311.773C-11.4058 296.884 -12.9526 281.993 -10.9977 267.516C-9.1944 254.17 -4.42146 241.142 3.18878 228.796C15.0453 209.561 33.5553 192.328 56.7224 178.956C78.1635 166.579 102.494 158.284 125.231 155.595C162.932 151.231 203.391 154.447 245.49 165.153C283.546 174.832 321.438 190.166 358.113 210.734C424.956 248.33 482.449 302.023 524.38 366.004C526.677 369.511 528.96 373.107 531.161 376.687C548.774 405.35 563.805 436.99 577.112 473.413C579.505 479.95 581.876 486.684 584.168 493.192C594.43 522.343 605.043 552.489 622.332 578.542C623.308 580.014 624.32 581.485 625.335 582.917C673.403 650.275 753.272 648.384 811.99 624.151C877.206 597.238 929.469 544.597 981.676 488.434C986.289 483.465 990.968 478.4 995.493 473.498L1001.22 467.294C1026.84 439.555 1053.32 410.869 1082.08 384.185C1114.65 353.963 1145.47 330.819 1176.29 313.427C1196.13 302.271 1216.87 293.448 1237.94 287.208C1257.74 281.339 1278.5 277.557 1299.62 275.964C1337.43 273.114 1377.41 276.976 1421.85 287.763C1457.64 296.366 1499.69 308.196 1540.29 330.734C1580.94 353.374 1618.36 383.672 1654.55 412.972C1659.6 417.062 1664.82 421.29 1669.93 425.397C1755.27 494.001 1841.16 571.876 1925.21 656.857L1925.02 657.06Z" fill="#A1A1A1"/>
<path d="M1922.09 654.404C1838.77 568.488 1754.27 489.643 1670.91 420.064C1664.65 414.835 1658.23 409.398 1652.02 404.141C1617.79 375.165 1582.4 345.202 1543.36 323.721C1502.97 301.588 1460.75 292.16 1424.77 285.857C1332.21 269.393 1255.3 281.17 1182.72 322.915C1119.39 359.498 1067.39 411.345 1017.1 461.484C1011.81 466.761 1006.33 472.215 1001 477.5C994.738 483.707 989.954 488.423 985.49 492.786C961.581 516.142 933.114 543.035 903.241 565.404C871.584 589.106 841.466 605.511 811.163 615.557C795.228 620.839 779.034 624.171 763.028 625.456C745.841 626.837 729.201 625.823 713.572 622.437C696.639 618.77 680.947 612.318 666.926 603.262C651.722 593.441 638.369 580.464 627.235 564.696C626.231 563.267 625.224 561.79 624.248 560.308C607.169 534.398 596.195 504.703 585.579 475.987C583.117 469.326 580.572 462.44 578.005 455.751C564.105 419.449 548.717 388.086 530.957 359.862C528.723 356.313 526.41 352.753 524.08 349.278C481.592 285.905 423.68 232.962 356.605 196.167C277.864 153.12 194.986 134.519 123.238 143.787C82.4127 149.176 29.0913 174.003 1.99777 217.315C-14.1106 243.067 -17.9764 271.806 -9.17772 300.424L-9.43969 300.509C-14.0417 285.544 -15.2439 270.588 -13.0159 256.055C-10.959 242.641 -5.9875 229.557 1.76613 217.163C13.7495 198.007 32.1906 180.802 55.1013 167.402C76.3272 154.988 100.512 146.504 123.205 143.508C160.862 138.643 201.364 141.357 243.59 151.578C281.738 160.812 319.805 175.728 356.734 195.919C423.848 232.733 481.793 285.708 524.306 349.117C526.636 352.593 528.952 356.158 531.186 359.71C548.954 387.948 564.351 419.328 578.259 455.647C580.829 462.338 583.374 469.224 585.836 475.885C596.443 504.588 607.415 534.266 624.474 560.147C625.451 561.627 626.454 563.101 627.458 564.527C667.448 621.166 736.091 640.141 811.077 615.283C878.985 592.773 934.38 542.322 985.299 492.577C989.764 488.214 994.545 483.498 1000.81 477.292C1006.14 472.007 1011.61 466.552 1016.9 461.276C1041.66 436.592 1067.26 411.069 1094.57 387.17C1125.44 360.141 1154.24 339.04 1182.59 322.664C1202.24 311.361 1222.68 302.124 1243.35 295.213C1262.92 288.665 1283.35 283.989 1304.06 281.308C1341.77 276.432 1381.27 277.827 1424.82 285.573C1460.82 291.881 1503.07 301.312 1543.49 323.464C1582.55 344.96 1617.95 374.931 1652.19 403.915C1658.4 409.172 1664.82 414.61 1671.09 419.838C1754.44 489.426 1838.96 568.276 1922.29 654.198L1922.09 654.404Z" fill="#A1A1A1"/>
<path d="M1919.17 651.749C1836.57 564.883 1753.43 485.06 1672.06 414.506C1665.14 408.505 1658.03 402.205 1651.15 396.114C1618.39 367.098 1584.53 337.096 1546.55 316.455C1506.14 294.587 1463.82 287.611 1427.75 283.67C1339.39 273.757 1261.3 289.615 1189.02 332.149C1131.48 366.171 1082.14 411.684 1034.44 455.701C1024.8 464.591 1014.84 473.786 1005.15 482.549C999.226 487.913 993.976 492.623 989.096 496.947C966.4 517.033 936.21 542.787 903.949 563.834C871.534 584.98 840.875 599.003 810.222 606.701C776.789 615.098 743.423 615.16 713.732 606.884C697.224 602.281 681.904 595.105 668.197 585.552C653.399 575.239 640.329 562.036 629.346 546.316C628.351 544.884 627.353 543.404 626.382 541.922C609.546 516.21 598.23 487.002 587.289 458.759C584.642 451.927 581.906 444.863 579.146 437.999C564.637 401.793 548.882 370.683 530.978 342.897C528.712 339.379 526.365 335.85 524.002 332.406C480.933 269.605 422.571 217.375 355.226 181.366C275.941 139.128 192.833 121.497 121.208 131.715C72.668 138.79 24.2023 168.499 0.610569 205.638C-15.8066 231.482 -20.2432 260.371 -12.2193 289.181L-12.484 289.257C-16.6779 274.202 -17.5327 259.168 -15.0263 244.572C-12.7101 231.082 -7.52632 217.93 0.378963 205.483C12.4892 186.417 30.8585 169.251 53.5018 155.84C74.5044 143.401 98.5373 134.731 121.17 131.433C158.782 126.066 199.329 128.282 241.684 138.015C279.926 146.803 318.17 161.303 355.353 181.112C422.736 217.144 481.131 269.402 524.228 332.242C526.591 335.687 528.938 339.218 531.207 342.739C549.119 370.543 564.883 401.667 579.4 437.89C582.16 444.753 584.895 451.82 587.542 458.652C598.478 486.881 609.789 516.074 626.608 541.761C627.579 543.244 628.574 544.718 629.57 546.15C668.873 602.422 736.38 624.955 810.156 606.428C877.413 589.535 935.819 543.723 988.914 496.735C993.791 492.411 999.044 487.704 1004.97 482.34C1014.65 473.577 1024.62 464.385 1034.25 455.495C1081.97 411.47 1131.31 365.945 1188.88 331.91C1208.36 320.446 1228.5 310.798 1248.75 303.227C1268.12 295.988 1288.21 290.416 1308.49 286.664C1346.19 279.688 1385.21 278.619 1427.78 283.394C1463.87 287.338 1506.22 294.317 1546.68 316.209C1584.68 336.865 1618.56 366.878 1651.33 395.905C1658.21 401.996 1665.32 408.293 1672.24 414.294C1753.62 484.855 1836.77 564.683 1919.37 651.555L1919.17 651.749Z" fill="#A1A1A1"/>
<path d="M1916.24 649.094C1834.38 561.269 1752.62 480.474 1673.21 408.95C1665.91 402.376 1658.41 395.417 1651.15 388.686C1619.59 359.425 1586.95 329.167 1549.74 309.19C1509.16 287.509 1466.81 283.019 1430.73 281.486C1345.71 277.607 1268.7 297.2 1195.33 341.386C1143.86 372.521 1097.99 411.926 1053.63 450.032C1038.37 463.136 1023.96 475.513 1009.31 487.597C1003.35 492.515 997.916 496.935 992.705 501.104C959.079 527.98 931.103 547.412 904.661 562.255C871.487 580.879 840.291 592.52 809.287 597.841C797.26 599.905 785.276 600.934 773.511 600.934C752.654 600.934 732.473 597.709 713.894 591.322C680.271 579.762 652.538 558.433 631.464 527.927C630.471 526.481 629.481 525.001 628.522 523.524C611.942 498.034 600.309 469.346 589.059 441.599C586.208 434.569 583.263 427.302 580.293 420.236C565.164 384.114 549.039 353.264 531.006 325.919C528.706 322.433 526.327 318.935 523.931 315.521C480.279 253.293 421.465 201.779 353.85 166.551C274.022 125.124 190.685 108.46 119.184 119.628C70.4427 127.399 23.3749 156.544 -0.721403 193.881C-17.4722 219.832 -22.4961 248.893 -15.2553 277.923L-15.5228 277.993C-19.3031 262.834 -19.8049 247.709 -17.0117 233.038C-14.4253 219.457 -9.02373 206.232 -0.95025 193.726C11.2868 174.764 29.5762 157.655 51.9437 144.243C72.7202 131.785 96.585 122.945 119.143 119.349C156.711 113.48 197.302 115.194 239.784 124.442C278.12 132.788 316.538 146.871 353.977 166.297C421.631 201.547 480.478 253.09 524.157 315.355C526.553 318.771 528.932 322.269 531.235 325.759C549.279 353.117 565.412 383.984 580.547 420.12C583.517 427.187 586.464 434.456 589.312 441.486C600.557 469.219 612.185 497.896 628.751 523.363C629.71 524.837 630.697 526.317 631.69 527.76C671.043 584.732 735.757 610.173 809.24 597.56C879.191 585.552 941.148 541.95 992.534 500.878C997.743 496.71 1003.17 492.293 1009.13 487.374C1023.79 475.29 1038.2 462.916 1053.45 449.812C1097.82 411.698 1143.71 372.287 1195.18 341.14C1214.52 329.499 1234.36 319.436 1254.16 311.228C1273.34 303.28 1293.11 296.811 1312.92 292.005C1350.7 282.841 1389.24 279.307 1430.74 281.201C1466.85 282.734 1509.24 287.23 1549.87 308.937C1587.11 328.927 1619.76 359.2 1651.33 388.472C1658.59 395.203 1666.1 402.162 1673.39 408.733C1752.8 480.263 1834.57 561.066 1916.44 648.896L1916.24 649.094Z" fill="#A1A1A1"/>
<path d="M1913.32 646.439C1831.06 556.399 1752.89 476.897 1674.36 403.392C1666.87 396.379 1659.49 389.216 1651.68 381.634C1621.15 351.993 1589.58 321.345 1552.94 301.927C1511.85 280.254 1467.64 278.45 1433.71 279.301C1352.56 281.072 1276.64 304.402 1201.63 350.626C1156.62 378.494 1115.06 411.96 1074.87 444.327C1053.75 461.338 1033.8 477.402 1013.46 492.648C1007.42 497.178 1001.81 501.304 996.312 505.265C962.229 529.776 933.332 547.382 905.367 560.675C871.424 576.809 839.69 586.068 808.35 588.983C792.247 590.479 776.255 590.197 760.817 588.145C744.471 585.972 728.738 581.803 714.055 575.757C681.51 562.354 654.436 540.078 633.582 509.543C632.598 508.095 631.616 506.612 630.662 505.135C614.361 479.908 602.435 451.766 590.901 424.551C587.824 417.291 584.642 409.782 581.441 402.481C565.677 366.439 549.188 335.844 531.031 308.951C528.696 305.496 526.283 302.029 523.859 298.646C479.626 236.99 420.363 186.192 352.477 151.744C289.82 120.082 225.204 103.562 165.952 103.562C149.201 103.562 132.891 104.881 117.161 107.55C69.0067 115.882 22.234 145.132 -2.00296 182.068C-19.1095 208.141 -24.7427 237.399 -18.2933 266.677L-18.5635 266.739C-21.9302 251.461 -22.0709 236.232 -18.9827 221.476C-16.1205 207.797 -10.4846 194.484 -2.23461 181.91C10.1293 163.067 28.3332 146.028 50.414 132.631C71.2567 119.983 94.3218 111.214 117.111 107.274C154.636 100.904 195.271 102.119 237.882 110.879C276.309 118.777 314.906 132.439 352.599 151.488C420.523 185.955 479.822 236.782 524.083 298.474C526.509 301.857 528.925 305.326 531.26 308.785C549.425 335.692 565.923 366.3 581.695 402.36C584.896 409.66 588.081 417.169 591.158 424.433C602.686 451.636 614.606 479.767 630.894 504.974C631.848 506.449 632.829 507.931 633.811 509.377C672.808 566.475 736.414 595.384 808.328 588.698C881.097 581.93 946.931 540.428 996.158 505.028C1001.66 501.068 1007.26 496.941 1013.3 492.414C1033.64 477.174 1053.59 461.107 1074.71 444.099C1114.9 411.729 1156.46 378.254 1201.49 350.378C1240.11 326.579 1278.01 309.236 1317.36 297.352C1355.3 285.892 1393.37 279.893 1433.71 279.014C1456.73 278.436 1475.51 279.44 1492.82 282.168C1515.16 285.691 1534.87 292.07 1553.07 301.671C1589.74 321.106 1621.33 351.77 1651.87 381.426C1659.68 389.008 1667.06 396.167 1674.55 403.18C1753.09 476.689 1831.26 556.196 1913.53 646.242L1913.32 646.439Z" fill="#A1A1A1"/>
<path d="M1910.4 643.783C1828.88 552.756 1752.05 472.308 1675.51 397.833C1667.94 390.464 1660.47 382.874 1652.56 374.838C1622.94 344.728 1592.32 313.59 1556.13 294.66C1514.7 273.088 1470.54 273.951 1436.69 277.111C1360.11 284.014 1285.28 311.082 1207.93 359.856C1169.81 384.004 1133.53 411.638 1098.44 438.365C1070.69 459.491 1044.49 479.448 1017.62 497.687C1011.54 501.814 1005.58 505.76 999.919 509.413C965.769 531.41 935.072 547.654 906.073 559.076C871.35 572.752 839.078 579.635 807.413 580.114C791.301 580.357 775.372 578.869 760.077 575.686C744.043 572.349 728.613 567.132 714.215 560.175C682.787 544.991 656.369 521.768 635.697 491.148C634.726 489.702 633.75 488.217 632.799 486.731C616.804 461.811 604.619 434.264 592.834 407.625C589.5 400.087 586.051 392.291 582.585 384.711C566.176 348.737 549.32 318.402 531.056 291.968C528.687 288.543 526.242 285.107 523.785 281.756C478.97 220.672 419.254 170.59 351.098 136.923C270.187 97.1232 186.384 82.3983 115.131 95.4602C67.6003 104.325 21.1392 133.651 -3.23289 170.167C-20.7254 196.378 -26.9845 225.856 -21.3375 255.418L-21.6078 255.472C-24.5526 240.062 -24.3265 224.714 -20.9322 209.857C-17.7806 196.065 -11.9047 182.656 -3.46174 170.006C9.02347 151.298 27.1364 134.344 48.9193 120.975C69.5221 108.33 92.3998 99.412 115.082 95.1811C152.565 88.312 193.241 89.0223 235.98 97.298C274.5 104.756 313.271 118.001 351.217 136.667C419.414 170.35 479.163 220.463 524.003 281.584C526.462 284.935 528.911 288.374 531.279 291.802C549.555 318.25 566.416 348.598 582.833 384.587C586.302 392.167 589.749 399.963 593.085 407.503C604.864 434.132 617.043 461.667 633.028 486.571C633.979 488.053 634.955 489.539 635.923 490.982C675.331 549.351 736.232 580.909 807.407 579.827C865.159 578.953 926.284 556.499 999.77 509.168C1005.43 505.515 1011.39 501.572 1017.46 497.445C1044.33 479.208 1070.53 459.257 1098.27 438.131C1133.37 411.402 1169.66 383.762 1207.78 359.608C1246.78 335.015 1284.07 316.401 1321.78 302.693C1359.99 288.808 1397.57 280.344 1436.67 276.82C1470.55 273.655 1514.76 272.795 1556.26 294.401C1592.48 313.354 1623.13 344.506 1652.76 374.629C1660.66 382.665 1668.13 390.253 1675.7 397.618C1752.25 472.097 1829.08 552.551 1910.6 643.583L1910.4 643.783Z" fill="#A1A1A1"/>
<path d="M1907.47 641.128C1826.72 549.112 1751.22 467.711 1676.66 392.277C1669.09 384.619 1661.62 376.661 1653.7 368.236C1624.92 337.589 1595.16 305.898 1559.33 287.396C1517.51 265.904 1473.42 269.441 1439.68 274.924C1367.62 286.41 1295.98 316.333 1214.23 369.093C1183.57 388.971 1153.6 410.776 1124.63 431.863C1089.43 457.473 1056.19 481.666 1021.77 502.736C1015.57 506.535 1009.43 510.183 1003.53 513.571C968.766 533.51 937.12 547.874 906.781 557.48C889.788 562.861 873.012 566.76 856.92 569.068C839.756 571.529 822.785 572.264 806.478 571.255C773.392 569.206 742.405 560.237 714.38 544.599C684.113 527.709 658.354 503.542 637.82 472.762C636.855 471.305 635.887 469.816 634.941 468.339C619.288 443.786 606.885 416.893 594.894 390.887C591.262 383.015 587.509 374.874 583.735 366.954C566.664 331.038 549.442 300.96 531.083 274.997C528.682 271.6 526.2 268.195 523.713 264.878C478.316 204.363 418.151 154.997 349.725 122.117C268.273 83.1313 184.241 69.3761 113.107 83.3822C36.9413 98.6115 -37.2779 164.414 -24.3735 244.169L-24.6465 244.214C-27.8754 224.263 -25.9838 204.608 -19.0271 185.791C-12.6742 168.605 -2.24868 152.432 11.9599 137.724C25.1703 124.047 41.0194 112.24 59.0634 102.628C76.2251 93.4872 94.895 86.7336 113.052 83.1031C150.491 75.7322 191.211 75.9436 234.08 83.7345C272.693 90.7502 311.641 103.578 349.841 121.863C418.306 154.766 478.506 204.16 523.931 264.709C526.421 268.029 528.902 271.434 531.307 274.833C549.673 300.808 566.904 330.903 583.983 366.833C587.758 374.753 591.51 382.893 595.142 390.769C607.131 416.766 619.528 443.648 635.173 468.187C636.116 469.664 637.081 471.152 638.046 472.607C677.512 531.76 737.335 566.692 806.494 570.976C865.043 574.598 929.449 555.744 1003.39 513.328C1009.29 509.94 1015.43 506.296 1021.63 502.496C1056.04 481.432 1089.28 457.242 1124.47 431.634C1153.45 410.545 1183.41 388.737 1214.08 368.856C1295.87 316.074 1367.54 286.139 1439.63 274.644C1462.3 270.96 1481.07 269.782 1498.71 270.941C1521.25 272.421 1541.11 277.72 1559.45 287.143C1595.32 305.664 1625.1 337.374 1653.9 368.039C1661.81 376.461 1669.28 384.418 1676.85 392.074C1751.42 467.513 1826.92 548.917 1907.67 640.939L1907.47 641.128Z" fill="#A1A1A1"/>
<path d="M1904.55 638.473C1824.57 545.453 1750.4 463.105 1677.81 386.719C1670.3 378.815 1662.88 370.537 1655.02 361.768C1627.02 330.534 1598.06 298.234 1562.52 280.13C1519.79 258.457 1473.65 265.529 1442.66 272.734C1358.55 292.047 1283.17 336.949 1220.53 378.33C1198.02 393.264 1175.56 409.082 1153.84 424.379C1110.28 455.066 1069.13 484.051 1025.93 507.784C1019.58 511.277 1013.26 514.623 1007.14 517.732C971.7 535.712 939.106 548.193 907.496 555.883C871.662 564.601 837.363 566.794 805.546 562.397C772.861 557.878 742.243 546.649 714.549 529.018C685.5 510.527 660.4 485.415 639.941 454.379C638.987 452.921 638.024 451.43 637.084 449.948C621.819 425.845 609.263 399.69 597.116 374.395C593.138 366.106 589.021 357.537 584.885 349.196C566.893 312.83 549.806 283.862 531.114 258.026C528.679 254.66 526.167 251.289 523.645 248C477.66 188.06 417.043 139.41 348.347 107.308C266.355 69.1396 182.091 56.3512 111.078 71.3015C34.6394 87.6077 -38.0632 152.517 -27.4144 232.92L-27.6874 232.956C-30.3289 213.008 -28.0431 193.373 -20.8961 174.598C-14.3446 157.396 -3.8585 141.205 10.2756 126.48C23.4557 112.748 39.2221 100.853 57.1393 91.1198C74.1989 81.8519 92.833 74.9038 111.023 71.0225C148.421 63.1499 189.183 62.8624 232.178 70.1656C270.885 76.7388 310.009 89.1495 348.463 107.051C417.2 139.17 477.851 187.849 523.857 247.825C526.38 251.117 528.894 254.491 531.332 257.857C550.035 283.704 567.128 312.689 585.128 349.07C589.264 357.41 593.38 365.982 597.359 374.271C609.502 399.558 622.057 425.704 637.31 449.795C638.25 451.278 639.21 452.766 640.164 454.224C679.936 514.555 738.681 552.872 805.579 562.118C865.579 570.41 931.468 555.806 1007.02 517.478C1013.13 514.372 1019.45 511.029 1025.8 507.536C1068.98 483.809 1110.13 454.83 1153.69 424.145C1175.41 408.848 1197.87 393.027 1220.38 378.091C1262.5 350.267 1297.54 329.711 1330.65 313.399C1369.62 294.198 1406.24 280.806 1442.6 272.457C1464.76 267.305 1484.08 264.971 1501.65 265.326C1524.29 265.783 1544.24 270.541 1562.64 279.876C1598.23 298.003 1627.2 330.322 1655.22 361.576C1663.08 370.342 1670.5 378.621 1678.01 386.519C1750.6 462.908 1824.77 545.262 1904.76 638.284L1904.55 638.473Z" fill="#A1A1A1"/>
<path d="M1901.63 635.814C1822.42 541.789 1749.58 458.491 1678.96 381.157C1671.55 373.048 1664.22 364.482 1656.47 355.411C1629.2 323.549 1601.02 290.601 1565.72 272.863C1522.52 251.241 1476.5 261.182 1445.64 270.543C1369.43 293.462 1301.46 337.101 1226.84 387.564C1213.38 396.699 1199.77 406.128 1186.6 415.249C1135.96 450.325 1083.61 486.593 1030.08 512.829C1023.58 516.02 1017.08 519.067 1010.75 521.886C975.067 537.761 940.567 548.658 908.204 554.275C871.543 560.64 836.69 560.389 804.606 553.534C772.378 546.648 742.133 533.155 714.708 513.43C686.956 493.468 662.509 467.415 642.05 435.995C641.104 434.535 640.15 433.041 639.215 431.558C624.411 408.019 611.774 382.716 599.554 358.247C595.15 349.43 590.598 340.314 586.024 331.444C567.329 295.114 549.886 266.394 531.131 241.06C528.668 237.734 526.12 234.391 523.562 231.126C477.004 171.751 415.94 123.816 346.968 92.4976C264.438 55.1471 179.945 43.3283 109.049 59.2201C35.0364 75.9913 -39.0091 138.623 -30.4586 221.667L-30.7316 221.695C-32.7858 201.747 -30.1057 182.135 -22.7684 163.402C-16.0212 146.18 -5.47166 129.975 8.58523 115.233C34.5207 88.0384 71.1161 67.5212 108.988 58.9411C146.342 50.5696 187.147 49.7803 230.272 56.5959C269.073 62.7294 308.371 74.7201 347.078 92.2383C416.089 123.574 477.189 171.539 523.777 230.943C526.338 234.21 528.886 237.553 531.351 240.882C550.115 266.23 567.566 294.961 586.266 331.306C590.841 340.179 595.396 349.294 599.799 358.111C612.017 382.575 624.651 407.873 639.447 431.4C640.379 432.883 641.333 434.374 642.279 435.834C683.211 498.696 739.362 539.3 804.658 553.255C865.121 566.176 934.418 555.535 1010.63 521.626C1016.96 518.808 1023.46 515.764 1029.96 512.576C1083.46 486.348 1135.81 450.085 1186.44 415.015C1199.6 405.894 1213.22 396.465 1226.68 387.33C1259.34 365.24 1297.35 339.903 1335.08 318.748C1374.54 296.622 1410.67 280.766 1445.56 270.275C1467.52 263.615 1486.83 260.159 1504.6 259.714C1527.01 259.15 1547.61 263.491 1565.83 272.612C1581.64 280.558 1597.56 292.416 1614.48 308.866C1629.43 323.391 1643.28 339.576 1656.67 355.225C1664.42 364.293 1671.75 372.859 1679.16 380.965C1749.78 458.302 1822.62 541.602 1901.83 635.631L1901.63 635.814Z" fill="#A1A1A1"/>
<path d="M1898.7 633.159C1820.27 538.119 1748.76 453.871 1680.11 375.602C1672.84 367.315 1665.63 358.489 1658.01 349.148C1631.46 316.623 1604.01 282.991 1568.91 265.602C1536.11 249.403 1496.76 250.305 1448.62 268.359C1381.31 293.459 1321.14 335.444 1257.43 379.897C1249.5 385.433 1241.3 391.155 1233.14 396.807C1229.94 399.025 1226.74 401.249 1223.55 403.47C1162.85 445.663 1100.08 489.293 1034.24 517.881C1027.58 520.773 1020.89 523.521 1014.36 526.046C977.894 540.12 942.421 549.078 908.925 552.669C871.417 556.688 836.004 553.999 803.677 544.675C771.951 535.523 742.078 519.766 714.888 497.843C688.534 476.592 664.743 449.601 644.176 417.611C643.239 416.148 642.293 414.652 641.364 413.166C627.122 390.366 614.527 366.083 602.342 342.6C597.409 333.09 592.305 323.256 587.179 313.683C567.762 277.379 549.966 248.907 531.167 224.086C528.669 220.788 526.091 217.479 523.499 214.246C476.351 155.445 414.835 108.223 345.593 77.6884C262.528 41.1582 177.801 30.3062 107.023 47.1395C34.3696 64.5618 -39.5711 127.706 -33.4967 210.418L-33.7724 210.44C-35.2365 190.49 -32.1649 170.9 -24.6373 152.215C-17.6916 134.973 -7.08139 118.748 6.90106 103.995C32.7263 76.7442 69.1948 55.9225 106.959 46.866C144.272 37.9928 185.119 36.7019 228.37 43.0326C267.265 48.7208 306.742 60.2943 345.703 77.4291C414.984 107.984 476.539 155.231 523.706 214.062C526.298 217.295 528.881 220.61 531.379 223.908C550.187 248.744 567.994 277.224 587.417 313.542C592.545 323.115 597.646 332.952 602.582 342.462C614.761 365.939 627.357 390.216 641.593 413.008C642.522 414.494 643.465 415.988 644.402 417.451C686.223 482.495 741.323 526.39 803.749 544.396C865.373 562.171 936.197 555.905 1014.26 525.776C1020.79 523.25 1027.48 520.505 1034.13 517.616C1099.95 489.04 1162.7 445.418 1223.39 403.23C1226.59 401.006 1229.78 398.785 1232.98 396.567C1241.14 390.916 1249.34 385.194 1257.28 379.66C1320.99 335.198 1381.18 293.203 1448.52 268.091C1470.27 259.934 1489.58 255.359 1507.55 254.099C1530.04 252.523 1550.73 256.309 1569.03 265.346C1584.75 273.134 1600.46 285.045 1617.08 301.763C1631.73 316.513 1645.2 333.011 1658.22 348.965C1665.85 358.303 1673.05 367.126 1680.31 375.41C1748.97 453.682 1820.48 537.933 1898.92 632.976L1898.7 633.159Z" fill="#A1A1A1"/>
<path d="M1895.78 630.504C1824.19 541.941 1752.02 454.308 1681.26 370.043C1674.05 361.514 1666.91 352.35 1659.36 342.651C1634.77 311.099 1606.91 275.338 1572.1 258.338C1538.92 242.168 1499.5 244.73 1451.6 266.169C1394.64 291.576 1344.23 328.935 1290.86 368.487C1274.15 380.873 1256.87 393.684 1239.44 406.041C1209.01 427.657 1176.09 450.531 1141.59 471.364C1104.64 493.677 1070.88 510.541 1038.39 522.926C1031.56 525.528 1024.69 527.977 1017.96 530.201C980.723 542.499 944.285 549.498 909.655 551.003C871.32 552.666 835.348 547.559 802.734 535.81C742.509 513.847 689.871 467.894 646.286 399.225C645.357 397.759 644.419 396.26 643.495 394.774C629.976 372.98 617.601 349.988 605.635 327.752C600.001 317.286 594.178 306.462 588.318 295.928C568.162 259.632 550.008 231.411 531.186 207.117C528.653 203.847 526.041 200.569 523.419 197.37C475.698 139.136 413.73 92.6332 344.217 62.8791C260.615 27.1663 175.658 17.2867 104.996 35.0586C31.902 53.5464 -40.1857 115.854 -36.5378 199.168L-36.8135 199.18C-37.6876 179.223 -34.2189 159.656 -26.5066 141.019C-19.3596 123.754 -8.68872 107.513 5.21377 92.7488C18.3111 78.8385 33.8349 66.6759 51.3523 56.5962C68.3595 46.8125 86.3842 39.4727 104.927 34.7824C142.198 25.4102 183.089 23.6175 226.468 29.4607C265.457 34.7119 305.107 45.8655 344.322 62.6169C413.876 92.388 475.88 138.919 523.629 197.181C526.251 200.383 528.868 203.664 531.402 206.934C550.231 231.242 568.394 259.474 588.558 295.782C594.418 306.318 600.241 317.142 605.874 327.611C617.841 349.844 630.213 372.834 643.727 394.619C644.648 396.108 645.588 397.604 646.515 399.07C690.067 467.685 742.658 513.602 802.825 535.543C864.802 557.867 939.164 555.927 1017.87 529.931C1024.6 527.707 1031.47 525.26 1038.29 522.661C1110.94 494.973 1177.42 449.753 1239.28 405.807C1256.71 393.45 1273.99 380.641 1290.7 368.256C1344.08 328.696 1394.5 291.328 1451.49 265.909C1499.47 244.437 1538.96 241.874 1572.22 258.082C1587.81 265.695 1603.29 277.63 1619.54 294.561C1633.88 309.492 1646.94 326.26 1659.57 342.474C1667.13 352.173 1674.26 361.333 1681.47 369.857C1752.23 454.125 1824.4 541.758 1895.99 630.324L1895.78 630.504Z" fill="#A1A1A1"/>
<path d="M1892.86 627.849C1822.36 538.795 1751.56 450.187 1682.41 364.485C1675.43 355.862 1668.5 346.538 1661.17 336.667C1637.19 304.379 1610.02 267.781 1575.3 251.069C1541.72 234.926 1502.23 239.149 1454.58 263.973C1404.65 289.944 1358.78 326.615 1314.42 362.083C1292.17 379.866 1269.17 398.255 1245.74 415.272C1208.74 442.156 1177.62 462.665 1147.78 479.817C1110.99 500.966 1076.56 516.716 1042.54 527.969C1035.56 530.28 1028.5 532.428 1021.56 534.353C985.432 544.379 949.951 549.453 916.008 549.456C914.122 549.456 912.247 549.439 910.372 549.408C871.13 548.754 834.601 541.194 801.799 526.943C785.967 520.026 770.462 511.245 755.719 500.844C741.86 491.069 728.242 479.555 715.241 466.623C691.851 443.357 669.985 415.294 648.4 380.836C647.474 379.353 646.55 377.868 645.632 376.377C633.108 356.045 621.26 334.792 609.803 314.239C603.188 302.375 596.35 290.105 589.462 278.162C568.256 241.367 550.292 214.217 531.208 190.137C528.641 186.899 525.997 183.651 523.342 180.483C475.041 122.827 412.624 77.04 342.841 48.0667C258.704 13.1741 173.516 4.26424 102.969 22.9747C31.2456 42.0516 -40.7484 104.832 -39.5766 187.913L-39.8523 187.916C-40.3983 149.218 -25.3956 112.42 3.53158 81.502C16.6069 67.5269 32.0479 55.2769 49.4302 45.0845C66.3437 35.1684 84.3325 27.6368 102.9 22.6985C140.127 12.8246 181.063 10.533 224.568 15.8885C263.65 20.7 303.477 31.4364 342.943 47.8017C412.77 76.7948 475.223 122.61 523.554 180.3C526.209 183.471 528.859 186.721 531.426 189.96C550.518 214.054 568.49 241.212 589.702 278.021C596.59 289.967 603.431 302.237 610.043 314.1C621.5 334.652 633.345 355.902 645.866 376.227C646.785 377.718 647.706 379.204 648.632 380.684C694.498 453.908 744.634 501.665 801.907 526.683C881.233 561.15 965.102 549.732 1021.49 534.082C1028.42 532.157 1035.48 530.012 1042.46 527.701C1120.71 501.82 1192.11 453.899 1245.58 415.043C1269.01 398.033 1292.01 379.643 1314.25 361.863C1358.62 326.39 1404.5 289.707 1454.45 263.725C1475.77 252.616 1495.07 245.795 1513.45 242.875C1536.11 239.273 1556.96 241.945 1575.41 250.818C1590.96 258.302 1606.29 270.332 1622.28 287.593C1636.37 302.803 1649.09 319.932 1661.39 336.501C1668.72 346.369 1675.64 355.69 1682.62 364.307C1751.77 450.009 1822.58 538.618 1893.07 627.671L1892.86 627.849Z" fill="#A1A1A1"/>
<path d="M1889.94 625.194L1683.56 358.929C1676.82 350.233 1670.12 340.771 1663.04 330.756C1639.65 297.704 1613.15 260.244 1578.49 243.808C1544.98 227.916 1504.29 233.965 1457.56 261.789C1412.63 288.535 1371.65 324.104 1332.02 358.503C1306.19 380.926 1279.48 404.11 1252.04 424.514C1169.55 485.844 1097.47 522.067 1025.18 538.514C995.189 545.335 965.605 548.768 936.915 548.768C928.218 548.768 919.61 548.452 911.093 547.821C870.924 544.844 833.838 534.838 800.868 518.084C770.311 502.553 742.357 480.629 715.418 451.055C693.906 427.44 673.283 399.287 650.522 362.455C638.508 343.018 626.875 322.822 615.625 303.291C590.164 259.094 563.836 213.392 531.242 173.169C481.246 111.476 415.621 63.0962 341.463 33.2575C256.793 -0.811993 171.374 -8.75506 100.943 10.894C32.7544 29.9174 -41.2552 89.9048 -42.6173 176.664L-42.8931 176.658C-42.2837 137.879 -26.8123 101.087 1.84746 70.2585C27.7609 42.3844 62.928 21.2048 100.872 10.6206C138.057 0.247837 179.037 -2.54549 222.666 2.32239C261.842 6.69136 301.846 17.0134 341.565 32.9954C378.26 47.7597 413.11 67.1946 445.15 90.7617C477.457 114.526 506.495 142.189 531.452 172.983C564.06 213.22 590.395 258.933 615.862 303.142C627.112 322.669 638.745 342.863 650.756 362.297C683.965 416.039 731.055 482.281 800.992 517.824C881.198 558.585 967.141 551.42 1025.12 538.232C1097.37 521.796 1169.42 485.587 1251.88 424.28C1279.31 403.884 1306.02 380.701 1331.85 358.284C1371.48 323.879 1412.47 288.301 1457.42 261.541C1504.23 233.669 1545.01 227.615 1578.61 243.549C1594.12 250.908 1609.31 263.043 1625.05 280.651C1638.89 296.151 1651.28 313.658 1663.26 330.587C1670.35 340.602 1677.04 350.059 1683.78 358.752L1890.15 625.016L1889.94 625.194Z" fill="#A1A1A1"/>
<path d="M1888.27 604.725C1835.72 530.588 1790.63 470.428 1746.37 415.405C1724.89 388.675 1702.95 362.365 1681.16 337.206C1674.57 329.595 1668.04 321.5 1661.13 312.928C1643.76 291.385 1625.79 269.109 1605.12 252.577C1594.02 243.684 1583.34 237.317 1572.46 233.112C1539.06 220.075 1499.87 228.695 1455.99 258.733C1433.28 274.256 1412.6 291.921 1395.36 307.153C1377.12 323.279 1359.12 341.062 1341.71 358.259C1316.7 382.979 1290.83 408.538 1263.02 430.49C1246.1 443.888 1228.94 455.859 1212.03 466.074C1178.2 486.509 1141.89 503.348 1104.1 516.122C1080.75 523.927 1057.29 529.827 1034.38 533.655C1014.63 536.941 994.839 538.838 975.563 539.292C946.713 539.974 918.605 537.372 892.018 531.552C863.75 525.362 836.999 515.482 812.508 502.184C790.67 490.326 770.042 475.395 749.448 456.535C711.071 421.42 680.462 380.817 658.083 349.366C647.09 333.843 636.356 318.013 625.974 302.705C596.082 258.618 567.847 216.977 532.514 179.886C503.697 149.833 470.819 123.899 434.783 102.798C407.091 86.5819 376.973 73.3199 345.266 63.3784C337.714 61.0135 330.018 58.8093 322.4 56.8334C289.599 48.3407 252.672 42.8104 212.65 40.3948C172.299 37.9031 137.388 40.0594 105.93 46.9933C88.145 50.8831 70.9144 56.9856 54.7095 65.1288C-2.49966 93.8795 -39.2356 142.144 -43.5591 194.239L-43.9038 194.208C-42.7512 180.32 -39.368 166.641 -33.8505 153.546C-28.6088 141.107 -21.4095 129.11 -12.4536 117.889C4.46814 96.6925 27.6408 78.3372 54.5579 64.8103C70.7875 56.653 88.0457 50.5421 105.858 46.6466C137.35 39.707 172.288 37.5479 212.672 40.0424C252.717 42.4581 289.662 47.994 322.485 56.4923C330.112 58.4711 337.811 60.6753 345.368 63.043C377.1 72.9901 407.243 86.2634 434.957 102.493C471.017 123.608 503.924 149.566 532.754 179.638C568.109 216.752 596.349 258.404 626.253 302.502C636.631 317.81 647.366 333.637 658.356 349.157C680.724 380.594 711.319 421.177 749.674 456.27C770.246 475.11 790.852 490.027 812.665 501.871C860.596 527.896 915.398 540.369 975.552 538.94C994.812 538.486 1014.58 536.589 1034.32 533.305C1057.22 529.477 1080.66 523.583 1103.99 515.784C1141.75 503.018 1178.05 486.191 1211.86 465.766C1228.76 455.56 1245.9 443.594 1262.81 430.209C1290.6 408.268 1316.46 382.714 1341.47 358.002C1358.88 340.802 1376.88 323.014 1395.14 306.882C1412.38 291.642 1433.07 273.971 1455.8 258.437C1475.34 245.063 1494.25 235.823 1512.03 230.972C1533.87 225.013 1554.24 225.622 1572.58 232.782C1583.49 237.001 1594.21 243.386 1605.34 252.298C1626.04 268.855 1644.01 291.146 1661.4 312.703C1668.31 321.272 1674.84 329.367 1681.42 336.972C1703.22 362.134 1725.16 388.447 1746.64 415.182C1790.9 470.211 1835.99 530.376 1888.55 604.519L1888.27 604.725Z" fill="#A1A1A1"/>
<path d="M1886.61 584.25C1837.88 508.858 1792.15 445.77 1746.8 391.384C1724.69 364.818 1701.8 339.28 1678.77 315.482C1672.66 309.168 1666.63 302.606 1660.25 295.661C1641.12 274.862 1621.34 253.355 1599.2 238.475C1588.01 230.93 1577.3 225.676 1566.43 222.412C1524.82 209.908 1482.56 233.596 1454.42 255.669C1434.49 271.262 1416.29 288.893 1397.85 307.094C1381.71 323.025 1366.53 340.162 1350.45 358.304C1326.59 385.233 1301.92 413.079 1274 436.46C1257.43 450.41 1240.14 462.471 1222.6 472.308C1189.94 490.635 1154.18 504.867 1113.26 515.821C1090.37 521.948 1066.92 526.315 1043.57 528.792C1023.87 530.858 1004.2 531.597 985.117 530.979C956.722 530.072 928.967 525.99 902.618 518.851C874.945 511.35 848.541 500.391 824.141 486.278C802.764 473.915 782.122 458.576 761.037 439.386C722.743 404.584 689.939 366.001 665.641 336.275C656.647 325.271 647.796 314.199 639.234 303.488C605.14 260.836 572.937 220.546 533.788 186.603C504.53 161.235 471.682 139.784 436.162 122.85C409.286 110.036 380.8 100.436 349.08 93.4987C341.759 91.9005 334.312 90.4602 326.947 89.2171C294.598 83.7855 260.073 81.7307 218.302 79.6054C188.192 77.9959 148.776 76.9361 110.91 83.0865C92.976 85.9446 75.6406 90.9083 59.3806 97.8339C2.1328 122.224 -36.7015 164.831 -44.5048 211.813L-44.9128 211.743C-42.8448 199.284 -38.6537 187.065 -32.4635 175.421C-26.5628 164.327 -18.8092 153.689 -9.42043 143.795C8.42229 125 32.1574 108.971 59.2207 97.4421C75.511 90.5024 92.8795 85.5303 110.843 82.6665C148.746 76.5076 188.192 77.5703 218.322 79.1798C260.106 81.3051 294.642 83.3599 327.013 88.7943C334.383 90.0402 341.837 91.4805 349.166 93.0787C380.916 100.024 409.43 109.633 436.336 122.461C471.892 139.412 504.767 160.88 534.056 186.273C573.232 220.241 605.449 260.543 639.554 303.212C648.113 313.92 656.964 324.992 665.958 335.994C690.251 365.708 723.041 404.276 761.313 439.062C782.373 458.232 802.993 473.554 824.345 485.903C872.323 513.653 926.422 528.674 985.131 530.551C1004.2 531.165 1023.85 530.43 1043.53 528.364C1066.86 525.889 1090.28 521.528 1113.16 515.403C1154.04 504.461 1189.77 490.241 1222.41 471.931C1239.92 462.105 1257.19 450.06 1273.74 436.125C1301.63 412.763 1326.3 384.929 1350.15 358.013C1366.23 339.864 1381.42 322.723 1397.57 306.783C1416.01 288.572 1434.22 270.935 1454.18 255.325C1472.41 241.015 1490.4 230.721 1507.64 224.723C1528.55 217.451 1548.37 216.535 1566.55 221.997C1577.46 225.275 1588.21 230.546 1599.43 238.115C1621.62 253.023 1641.41 274.549 1660.55 295.365C1666.93 302.307 1672.96 308.866 1679.07 315.178C1702.1 338.984 1725 364.53 1747.12 391.105C1792.48 445.505 1838.22 508.605 1886.96 584.013L1886.61 584.25Z" fill="#A1A1A1"/>
<path d="M1884.94 563.774C1839.34 486.105 1794.3 421.859 1747.23 367.365C1724.48 340.963 1700.64 316.2 1676.38 293.761C1671.2 288.963 1665.86 283.873 1660.7 278.951C1639.38 258.617 1617.34 237.593 1593.27 224.376C1581.98 218.13 1571.22 213.986 1560.41 211.711C1518.89 202.976 1479.01 229.128 1452.86 252.602C1435.14 268.449 1418.94 286.41 1403.27 303.781L1400.34 307.034C1386.11 322.793 1372.77 340.077 1358.64 358.379C1336.15 387.522 1312.88 417.653 1284.98 442.43C1268.74 456.952 1251.31 469.103 1233.17 478.546C1201.55 495.01 1166.35 506.758 1122.42 515.518C1099.7 520.048 1076.27 522.878 1052.76 523.927C1033.11 524.769 1013.56 524.347 994.664 522.664C937.449 517.593 883.99 499.999 835.77 470.371C814.924 457.563 794.269 441.821 772.627 422.237C736.001 389.165 703.426 355.172 673.203 323.188C669.149 318.901 665.14 314.642 661.161 310.416C619.881 266.588 580.893 225.19 535.071 193.328C505.157 172.526 472.342 155.563 437.541 142.907C411.992 133.617 384.303 127.308 352.897 123.622C345.819 122.796 338.619 122.116 331.497 121.603C313.58 120.335 294.576 120.129 274.456 119.912C258.295 119.737 241.586 119.557 223.953 118.821C189.897 117.28 151.3 115.535 115.885 119.188C97.6117 121.074 80.1715 124.896 64.0466 130.55C6.82092 150.619 -34.1145 187.575 -45.4554 229.407L-45.9214 229.275C-42.9324 218.245 -37.9362 207.486 -31.0731 197.297C-24.5107 187.552 -16.2056 178.268 -6.38948 169.702C12.3852 153.319 36.6884 139.621 63.8867 130.082C80.0474 124.414 97.5234 120.583 115.832 118.695C151.283 115.039 189.9 116.786 223.969 118.328C241.591 119.061 258.301 119.244 274.456 119.419C294.585 119.636 313.594 119.842 331.527 121.113C338.655 121.629 345.863 122.308 352.946 123.134C384.391 126.824 412.113 133.14 437.699 142.445C472.54 155.115 505.391 172.098 535.339 192.922C581.201 224.813 620.209 266.231 661.506 310.078C665.485 314.303 669.497 318.56 673.547 322.85C703.765 354.828 736.329 388.813 772.944 421.873C794.564 441.435 815.197 457.163 836.018 469.954C884.174 499.545 937.565 517.114 994.705 522.179C1013.58 523.859 1033.11 524.282 1052.74 523.439C1076.22 522.39 1099.64 519.563 1122.33 515.039C1166.22 506.287 1201.37 494.553 1232.95 478.112C1251.05 468.689 1268.45 456.56 1284.66 442.063C1312.53 417.318 1335.78 387.203 1358.26 358.078C1372.39 339.767 1385.74 322.475 1399.98 306.704L1402.91 303.451C1418.59 286.071 1434.8 268.099 1452.54 252.236C1478.77 228.686 1518.79 202.458 1560.5 211.232C1571.37 213.518 1582.16 217.676 1593.5 223.947C1617.62 237.192 1639.68 258.24 1661.02 278.596C1666.18 283.518 1671.52 288.608 1676.7 293.403C1700.97 315.854 1724.82 340.63 1747.59 367.047C1794.67 421.563 1839.73 485.832 1885.35 563.526L1884.94 563.774Z" fill="#A1A1A1"/>
<path d="M1883.28 543.297C1841.41 464.455 1795.79 397.181 1747.67 343.35C1724.27 317.114 1699.49 293.124 1674 272.046C1670.32 269.001 1666.55 265.842 1662.9 262.786C1638.81 242.601 1613.9 221.726 1587.36 210.282C1575.97 205.319 1565.19 202.289 1554.4 201.015C1512.99 196.133 1475.48 224.706 1451.3 249.535C1436.29 264.875 1422.74 281.933 1409.63 298.431C1407.36 301.287 1405.1 304.136 1402.83 306.975C1390.36 322.568 1378.71 339.987 1366.37 358.427C1345.39 389.777 1323.7 422.192 1295.96 448.405C1279.67 463.798 1262.59 475.699 1243.74 484.792C1204.32 503.81 1164.92 510.848 1131.58 515.228C1109.03 518.188 1085.6 519.484 1061.95 519.073C1042.35 518.692 1022.93 517.105 1004.21 514.36C948.715 506.239 895.956 486.091 847.402 454.474C827.199 441.322 806.533 425.171 784.218 405.099C761.677 384.872 740.672 365.409 720.355 346.586C706.549 333.792 693.507 321.708 680.771 310.115C632.628 266.29 588.53 227.758 536.364 200.062C505.807 183.84 473.025 171.359 438.928 162.968C414.49 156.953 388.367 154.024 356.721 153.745C349.894 153.694 342.94 153.776 336.055 153.99C325.596 154.337 314.776 155.061 303.325 155.831C281.349 157.305 256.437 158.977 229.602 158.041C219.384 157.683 208.958 157.178 198.875 156.688C172.939 155.428 146.121 154.126 120.856 155.29C102.302 156.147 84.7539 158.83 68.7062 163.267C11.577 179.065 -31.4567 210.373 -46.4125 247.013L-46.9226 246.796C-43.0072 237.201 -37.2058 227.905 -29.681 219.164C-22.454 210.77 -13.5975 202.841 -3.36223 195.6C16.361 181.647 41.2294 170.28 68.5573 162.723C84.6436 158.275 102.23 155.583 120.825 154.726C146.118 153.559 172.947 154.864 198.897 156.124C208.977 156.614 219.403 157.119 229.619 157.477C256.428 158.413 281.322 156.744 303.287 155.27C314.743 154.5 325.566 153.776 336.035 153.429C342.929 153.215 349.888 153.133 356.724 153.184C388.414 153.46 414.575 156.397 439.055 162.421C473.193 170.824 506.02 183.319 536.615 199.563C560.179 212.072 584.058 227.922 609.615 248.013C632.496 265.999 654.753 285.68 681.135 309.695C693.871 321.291 706.913 333.375 720.722 346.169C741.036 364.989 762.041 384.452 784.577 404.676C806.87 424.728 827.514 440.863 847.692 454.001C896.18 485.576 948.864 505.695 1004.28 513.805C1022.98 516.547 1042.38 518.131 1061.95 518.512C1085.58 518.923 1108.98 517.63 1131.5 514.67C1164.8 510.298 1204.15 503.268 1243.5 484.285C1262.3 475.217 1279.33 463.347 1295.58 447.994C1323.27 421.825 1344.95 389.436 1365.91 358.111C1378.26 339.66 1389.92 322.232 1402.4 306.622C1404.67 303.784 1406.93 300.934 1409.2 298.082C1422.31 281.573 1435.87 264.503 1450.9 249.144C1466.63 232.99 1482.77 220.562 1498.87 212.208C1517.94 202.311 1536.64 198.359 1554.45 200.462C1565.3 201.742 1576.13 204.786 1587.57 209.769C1614.17 221.244 1639.12 242.145 1663.24 262.355C1666.89 265.41 1670.65 268.57 1674.33 271.611C1699.84 292.707 1724.65 316.719 1748.06 342.975C1773.61 371.559 1798.63 404.127 1822.43 439.772C1843.46 471.276 1864.09 506.019 1883.75 543.032L1883.28 543.297Z" fill="#A1A1A1"/>
<path d="M1881.61 522.813C1842.86 441.711 1797.94 373.251 1748.1 319.332C1724.07 293.262 1698.34 270.047 1671.62 250.328C1670.35 249.389 1669.08 248.45 1667.8 247.509C1640.02 226.978 1611.3 205.747 1581.46 196.189C1569.91 192.485 1559.09 190.566 1548.4 190.318C1507.16 189.365 1471.99 220.326 1449.75 246.463C1436.67 261.755 1425.05 278.515 1413.82 294.722C1411.04 298.73 1408.17 302.874 1405.33 306.91C1394.53 322.283 1384.49 339.762 1373.87 358.27C1354.54 391.933 1334.55 426.741 1306.95 454.376C1290.99 470.363 1273.77 482.354 1254.32 491.036C1215.99 508.137 1177.08 512.627 1140.74 514.932C1118.33 516.353 1094.91 516.111 1071.13 514.214C1051.61 512.607 1032.3 509.859 1013.76 506.048C960.153 495.055 908.095 472.353 859.039 438.571C839.393 425.044 819.303 408.961 795.819 387.956C751.186 348.145 718.043 320.104 688.357 297.039C629.315 251.165 584.251 224.176 537.683 206.796C506.505 195.16 473.757 187.164 440.341 183.026C417.157 180.156 392.553 180.413 360.568 183.866C354.014 184.582 347.308 185.425 340.635 186.374C334.332 187.285 327.929 188.328 321.149 189.43C296.115 193.503 267.74 198.12 235.264 197.257C218.146 196.804 200.662 195.561 183.754 194.36C164.538 192.996 144.669 191.583 125.831 191.392C106.943 191.2 89.2876 192.745 73.3695 195.986C16.4305 207.574 -28.7071 233.238 -47.3715 264.635L-47.9009 264.306C-43.0535 256.148 -36.4469 248.315 -28.2659 241.023C-20.3689 233.982 -10.9664 227.412 -0.317525 221.49C20.368 209.984 45.8072 200.947 73.2482 195.363C89.2104 192.116 106.904 190.566 125.836 190.758C144.691 190.949 164.571 192.361 183.795 193.728C200.698 194.929 218.174 196.172 235.277 196.626C267.695 197.486 296.041 192.874 321.047 188.807C327.83 187.702 334.238 186.662 340.544 185.749C347.225 184.799 353.937 183.956 360.496 183.237C392.531 179.782 417.176 179.522 440.409 182.4C473.872 186.544 506.668 194.551 537.889 206.204C584.522 223.607 629.632 250.624 688.727 296.537C718.423 319.611 751.577 347.66 796.222 387.482C819.689 408.47 839.757 424.537 859.381 438.05C908.371 471.784 960.352 494.455 1013.88 505.431C1032.4 509.236 1051.68 511.978 1071.18 513.585C1094.93 515.479 1118.31 515.722 1140.7 514.304C1176.98 512.001 1215.83 507.522 1254.07 490.461C1273.45 481.813 1290.6 469.862 1306.51 453.93C1334.05 426.355 1354.02 391.584 1373.33 357.957C1383.96 339.438 1394.01 321.945 1404.82 306.549C1407.66 302.516 1410.53 298.372 1413.31 294.364C1424.55 278.143 1436.17 261.371 1449.28 246.055C1463.79 228.996 1479.01 215.503 1494.5 205.947C1512.65 194.754 1530.79 189.289 1548.41 189.692C1559.16 189.94 1570.03 191.871 1581.65 195.592C1611.58 205.184 1640.35 226.442 1668.17 247.005C1669.44 247.946 1670.71 248.887 1671.98 249.823C1698.73 269.565 1724.49 292.808 1748.55 318.907C1798.44 372.873 1843.39 441.387 1882.17 522.546L1881.61 522.813Z" fill="#A1A1A1"/>
<path d="M1154.46 514.639C1152.91 514.639 1151.38 514.636 1149.88 514.628C1127.59 514.532 1104.18 512.756 1080.31 509.346C1060.86 506.513 1041.68 502.603 1023.3 497.73C997.054 490.779 970.71 480.79 944.998 468.041C920.168 455.729 895.162 440.462 870.671 422.662C846.674 405.223 824.26 385.791 807.412 370.81C767.994 335.852 730.488 306.634 695.939 283.963C639.981 247.247 590.115 224.864 539.002 213.524C508.167 206.683 475.085 203.075 443.232 203.075C442.738 203.075 442.248 203.075 441.754 203.078C414.39 203.174 388.411 208.371 364.416 213.975C358.171 215.444 351.71 217.047 345.214 218.747C341.654 219.688 338.089 220.658 334.317 221.684C307.712 228.931 277.555 237.142 240.918 236.468C218.606 236.057 195.816 233.695 173.777 231.409C159.546 229.932 144.833 228.407 130.798 227.485C111.505 226.219 93.7508 226.625 78.0229 228.697C21.3873 236.15 -25.8542 256.174 -48.3512 282.263L-48.8696 281.798C-37.3302 268.418 -19.9727 256.833 2.72013 247.362C24.3928 238.32 50.4027 231.623 77.9347 228.001C93.7039 225.926 111.505 225.515 130.842 226.786C144.891 227.708 159.612 229.235 173.849 230.712C195.874 232.998 218.65 235.36 240.932 235.769C277.475 236.443 307.579 228.243 334.141 221.01C337.916 219.982 341.481 219.012 345.043 218.071C351.545 216.371 358.011 214.764 364.262 213.296C388.298 207.684 414.321 202.478 441.751 202.379C474.111 202.263 507.787 205.883 539.149 212.842C565.528 218.696 591.102 227.313 617.327 239.185C642.584 250.621 668.421 265.075 696.308 283.377C730.885 306.064 768.418 335.306 807.862 370.286C824.695 385.258 847.093 404.676 871.065 422.096C920.761 458.215 972.039 483.433 1023.47 497.056C1041.82 501.924 1060.98 505.828 1080.41 508.658C1104.24 512.063 1127.62 513.839 1149.88 513.932C1184.72 514.078 1225.17 512.877 1264.62 496.628C1284.59 488.403 1301.87 476.375 1317.44 459.861C1344.78 430.856 1362.91 393.63 1380.44 357.627C1389.46 339.108 1397.98 321.615 1407.24 306.473C1410.21 301.622 1413.2 296.625 1416.1 291.791C1425.88 275.459 1435.99 258.575 1447.65 242.968C1460.96 225.013 1475.26 210.449 1490.12 199.681C1507.36 187.197 1524.93 180.213 1542.34 178.922C1553.09 178.124 1564.01 178.939 1575.7 181.413C1606.97 188.026 1637.97 207.238 1669.61 228.032C1697.2 246.162 1724.66 269.261 1749.02 294.835C1776.08 323.16 1801.51 356.389 1824.59 393.599C1845.15 426.75 1863.99 463.24 1880.57 502.059L1879.94 502.341C1844.32 418.976 1800.11 349.326 1748.53 295.328C1724.2 269.791 1696.79 246.725 1669.24 228.627C1637.65 207.87 1606.72 188.694 1575.56 182.104C1563.93 179.643 1553.08 178.834 1542.39 179.626C1510.39 182.003 1476.93 204.648 1448.19 243.396C1436.56 258.975 1426.46 275.845 1416.68 292.16C1413.79 296.997 1410.79 301.997 1407.82 306.848C1398.58 321.962 1390.07 339.441 1381.06 357.942C1372.46 375.607 1363.56 393.875 1353.35 411.436C1341.78 431.344 1330.2 447.343 1317.94 460.351C1302.3 476.939 1284.94 489.02 1264.88 497.285C1247.19 504.574 1228.17 509.391 1206.74 512.018C1188.6 514.23 1170.37 514.639 1154.46 514.639Z" fill="#A1A1A1"/>
<path d="M1198.67 516.051C1184.61 516.051 1171.11 515.195 1159.03 514.326C1136.81 512.731 1113.41 509.419 1089.48 504.481C1070.11 500.425 1051.05 495.357 1032.84 489.412C982.959 473.168 933.716 446.128 882.294 406.754C859.869 389.585 838.728 371.112 819.002 353.664C780.058 319.318 741.207 291.469 703.522 270.887C648.1 240.617 596.245 224.525 540.332 220.247C508.474 217.808 474.879 218.804 443.175 223.122C416.638 226.735 391.621 235.456 368.266 244.076C362.423 246.243 356.208 248.611 349.798 251.111C348.196 251.74 346.58 252.38 344.942 253.025C318.044 263.657 287.609 275.688 248.548 275.688C247.889 275.688 247.233 275.685 246.568 275.676C220.142 275.403 193.162 271.547 167.066 267.815C156.721 266.335 146.022 264.807 135.757 263.57C115.705 261.157 98.3396 260.444 82.6642 261.397C25.6508 264.864 -22.473 278.89 -49.3625 299.886L-49.823 299.269C-36.5299 288.89 -17.3085 279.879 5.75662 273.21C28.444 266.651 55.0219 262.299 82.6173 260.622C98.3369 259.666 115.747 260.379 135.842 262.798C146.119 264.035 156.82 265.566 167.168 267.043C193.239 270.769 220.195 274.622 246.571 274.895C286.445 275.313 317.377 263.082 344.663 252.295C346.299 251.65 347.917 251.01 349.519 250.378C355.935 247.875 362.153 245.508 368.002 243.34C391.395 234.704 416.459 225.971 443.067 222.347C474.821 218.023 508.471 217.025 540.382 219.466C568.09 221.586 594.508 226.592 621.144 234.766C648.577 243.185 675.637 254.773 703.872 270.197C741.604 290.807 780.504 318.689 819.49 353.069C839.208 370.511 860.335 388.974 882.741 406.125C934.093 445.446 983.262 472.446 1033.06 488.665C1051.25 494.598 1070.28 499.661 1089.63 503.711C1113.52 508.644 1136.89 511.953 1159.07 513.543C1196.4 516.221 1236.11 517.596 1275.18 502.778C1295.73 494.979 1313.13 482.875 1328.35 465.774C1355.48 435.313 1372.36 393.763 1387.26 357.103C1394.76 338.657 1401.84 321.235 1409.65 306.383C1412.47 301.025 1415.3 295.486 1418.05 290.13C1426.63 273.373 1435.5 256.047 1446 239.865C1458.16 221.013 1471.52 205.378 1485.73 193.393C1502.06 179.629 1519.06 171.128 1536.27 168.132C1547.03 166.257 1557.98 165.959 1569.75 167.21C1602.63 170.714 1636.03 188.026 1667.24 206.215C1696.05 223.009 1724.49 245.322 1749.49 270.741C1777.31 298.933 1802.93 332.495 1825.66 370.489C1845.98 404.465 1863.92 441.83 1878.98 481.551L1878.27 481.83C1846.26 397.399 1801.55 324.595 1748.96 271.288C1724.01 245.917 1695.62 223.646 1666.86 206.886C1635.74 188.739 1602.42 171.469 1569.67 167.98C1557.97 166.734 1547.09 167.033 1536.4 168.893C1504.63 174.426 1472.75 199.78 1446.64 240.288C1436.16 256.436 1427.3 273.745 1418.72 290.486C1415.98 295.844 1413.14 301.383 1410.32 306.747C1402.53 321.565 1395.45 338.97 1387.96 357.396C1373.04 394.112 1356.13 435.73 1328.92 466.293C1313.6 483.487 1296.11 495.658 1275.44 503.503C1257.5 510.307 1238.15 514.248 1216.28 515.541C1210.36 515.908 1204.47 516.051 1198.67 516.051Z" fill="#A1A1A1"/>
<path d="M1226.43 519.104C1226.22 519.104 1226.03 519.104 1225.82 519.104C1205.96 519.053 1186.45 516.567 1168.17 514.025C1145.98 510.941 1122.6 506.09 1098.66 499.613C1079.37 494.339 1060.43 488.107 1042.37 481.094C994.49 462.527 947.32 433.852 893.925 390.848C874.695 375.365 855.771 358.692 837.468 342.572C835.179 340.554 832.888 338.538 830.597 336.523C791.451 302.186 751.252 275.704 711.119 257.817C656.162 233.325 600.737 223.234 541.675 226.969C509.29 229.018 475.725 234.619 444.608 243.165C420.057 249.91 398.18 260.731 372.129 274.176C366.849 276.913 361.21 279.867 354.388 283.475L354.008 283.678C340.847 290.686 325.93 298.626 309.199 304.663C289.983 311.597 271.34 314.935 252.224 314.895C222.414 314.819 191.992 309.148 162.574 303.66C155.367 302.315 147.911 300.926 140.714 299.669C120.076 296.069 102.605 294.251 87.3047 294.113C30.9669 293.606 -19.2221 302.141 -50.391 317.525L-50.7495 316.764C-35.4821 309.227 -14.8876 303.11 8.80616 299.074C32.5441 295.029 59.6928 293.022 87.313 293.27C102.658 293.408 120.172 295.229 140.855 298.837C148.057 300.094 155.513 301.484 162.723 302.828C192.106 308.308 222.489 313.974 252.226 314.05C252.359 314.05 252.494 314.05 252.626 314.05C295.164 314.05 327.571 296.799 353.627 282.928L354.011 282.726C360.835 279.115 366.474 276.161 371.757 273.424C397.852 259.956 419.768 249.115 444.396 242.351C475.565 233.787 509.185 228.178 541.625 226.126C570.528 224.3 597.79 225.692 624.974 230.388C654.268 235.448 682.555 244.166 711.45 257.044C751.66 274.966 791.928 301.49 831.137 335.883C833.429 337.899 835.72 339.917 838.008 341.935C856.303 358.049 875.222 374.716 894.435 390.188C947.761 433.139 994.862 461.774 1042.67 480.31C1060.7 487.315 1079.61 493.535 1098.87 498.804C1122.78 505.272 1146.13 510.115 1168.28 513.193C1207.95 518.712 1246.78 522.54 1285.74 508.965C1306.89 501.597 1324.4 489.417 1339.28 471.727C1366.17 439.772 1380.85 395.493 1393.81 356.423C1399.88 338.133 1405.61 320.854 1412.07 306.335C1414.56 300.748 1417.05 294.97 1419.47 289.38C1427.01 271.905 1434.81 253.837 1444.38 236.801C1455.39 217.044 1467.83 200.335 1481.36 187.138C1496.78 172.098 1513.21 162.086 1530.2 157.384C1540.74 154.469 1551.49 153.049 1563.04 153.049C1563.3 153.049 1563.55 153.049 1563.8 153.052C1599.72 153.243 1636.68 169.924 1664.87 184.435C1694.9 199.895 1724.33 221.419 1749.97 246.68C1778.55 274.743 1804.37 308.635 1826.74 347.417C1846.81 382.22 1863.86 420.461 1877.39 461.084L1876.61 461.357C1856.47 400.913 1818.04 314.712 1749.4 247.292C1723.82 222.087 1694.46 200.614 1664.5 185.19C1636.39 170.719 1599.54 154.086 1563.8 153.897C1552.03 153.827 1541.12 155.242 1530.42 158.201C1498.94 166.914 1468.64 194.977 1445.09 237.221C1435.55 254.217 1427.76 272.265 1420.22 289.722C1417.81 295.314 1415.31 301.095 1412.82 306.684C1406.38 321.167 1400.65 338.423 1394.6 356.694C1381.61 395.834 1366.9 440.197 1339.91 472.277C1324.93 490.085 1307.3 502.347 1286.01 509.763C1267.97 516.046 1248.47 519.104 1226.43 519.104Z" fill="#A1A1A1"/>
<path d="M1248.49 523.073C1244.21 523.073 1239.84 522.932 1235.36 522.65C1215.76 521.419 1196.72 517.723 1177.3 513.721C1154.8 509.081 1132.08 502.874 1107.83 494.745C1088.64 488.257 1069.83 480.866 1051.91 472.774C1006.45 452.276 961.311 422.102 905.555 374.94C891.707 363.228 877.865 350.944 864.478 339.063C857.191 332.597 849.658 325.909 842.194 319.378C802.582 284.809 761.04 259.7 718.72 244.744C662.804 224.982 605.336 221.363 543.026 233.681C510.106 240.189 476.571 250.396 446.05 263.195C421.532 273.478 400.174 287.918 377.561 303.207L375.997 304.264C372.465 306.66 368.894 309.089 365.279 311.547C363.198 312.965 361.102 314.391 358.987 315.829C345.802 324.84 331.56 334.241 315.228 341.476C296.266 349.876 277.511 354.008 257.884 354.11C225.21 354.273 191.882 346.51 159.654 338.996C155.055 337.922 150.296 336.814 145.677 335.763C124.024 330.83 106.953 327.991 91.9476 326.825C36.5748 322.52 -15.6823 325.553 -51.4283 335.148L-51.6572 334.263C-15.8174 324.643 36.5472 321.599 92.0165 325.911C107.063 327.081 124.178 329.928 145.873 334.869C150.494 335.923 155.253 337.031 159.855 338.105C191.689 345.527 224.595 353.196 256.836 353.196C257.184 353.196 257.531 353.196 257.881 353.193C299.583 352.979 329.269 335.035 358.494 315.068C360.609 313.63 362.704 312.204 364.786 310.786C368.401 308.326 371.969 305.899 375.504 303.5L377.067 302.443C399.719 287.129 421.113 272.663 445.711 262.347C476.287 249.522 509.88 239.299 542.857 232.779C605.325 220.43 662.948 224.061 719.015 243.876C761.44 258.872 803.078 284.037 842.778 318.681C850.242 325.215 857.778 331.901 865.066 338.37C878.447 350.248 892.286 362.529 906.125 374.232C961.815 421.341 1006.89 451.473 1052.27 471.936C1070.16 480.015 1088.95 487.397 1108.11 493.874C1132.32 501.992 1155.01 508.19 1177.48 512.822C1211.59 519.854 1254.04 528.609 1296.31 515.124C1318.05 508.193 1335.68 495.938 1350.21 477.656C1376.84 444.169 1389.18 397.072 1400.07 355.522C1404.81 337.471 1409.28 320.421 1414.49 306.271C1416.52 300.757 1418.56 295.055 1420.53 289.539C1427.14 271.04 1433.97 251.912 1442.74 233.72C1452.64 213.045 1464.16 195.262 1476.98 180.864C1491.5 164.55 1507.37 153.03 1524.13 146.623C1534.89 142.51 1545.92 139.976 1557.84 138.874C1573.81 137.397 1590.81 138.976 1609.81 143.689C1625.89 147.68 1643.12 153.875 1662.5 162.633C1693.75 176.757 1724.16 197.495 1750.45 222.601C1779.78 250.531 1805.81 284.758 1827.82 324.327C1847.64 359.958 1863.78 399.076 1875.8 440.598L1874.94 440.858C1849.56 353.196 1805.13 275.922 1749.84 223.271C1723.62 198.233 1693.29 177.555 1662.13 163.473C1620.38 144.605 1587.27 137.076 1557.92 139.787C1546.08 140.881 1535.13 143.398 1524.44 147.48C1484.56 162.72 1458.44 203.011 1443.55 234.123C1434.79 252.27 1427.97 271.375 1421.37 289.852C1419.4 295.371 1417.36 301.076 1415.33 306.592C1410.13 320.7 1405.67 337.73 1400.94 355.758C1390.02 397.399 1377.65 444.595 1350.91 478.233C1336.26 496.659 1318.48 509.014 1296.58 516.001C1281.73 520.736 1265.89 523.073 1248.49 523.073Z" fill="#A1A1A1"/>
<path d="M1267.61 527.622C1238.45 527.622 1210.42 519.964 1186.44 513.413C1163.87 507.251 1141.16 499.551 1116.99 489.874C1097.92 482.179 1079.22 473.627 1061.44 464.452C1008.13 436.981 960.597 397.551 917.18 359.031C908.315 351.166 899.359 343.06 890.701 335.221C878.679 324.335 866.247 313.08 853.789 302.234C813.584 267.324 770.699 243.583 726.328 231.668C668.929 216.258 609.412 219.108 544.377 240.383C510.892 251.337 477.391 266.149 447.493 283.219C424.433 296.382 404.922 313.001 384.267 330.596C382.803 331.841 381.336 333.093 379.861 334.344L379.061 335.027C374.04 339.308 368.848 343.734 363.584 348.176C350.972 358.867 337.084 369.925 321.019 378.372C302.372 388.179 283.572 393.069 263.54 393.323C228.379 393.771 192.541 383.666 157.887 373.893C155.458 373.209 153.04 372.526 150.633 371.853C127.78 365.443 111.109 361.643 96.5834 359.529C42.6003 351.677 -11.7302 349.207 -52.4781 352.756L-52.5608 351.772C-11.7467 348.215 42.6638 350.687 96.7186 358.551C111.286 360.671 127.992 364.479 150.886 370.9C153.294 371.574 155.712 372.256 158.144 372.944C192.732 382.696 228.5 392.776 263.526 392.336C307.029 391.784 337.666 368.859 362.967 347.415C368.231 342.972 373.423 338.547 378.444 334.268L379.243 333.586C380.719 332.332 382.185 331.083 383.65 329.837C404.341 312.212 423.885 295.565 447.021 282.357C476.974 265.256 510.539 250.418 544.082 239.445C574.915 229.359 603.875 223.536 632.615 221.642C664.674 219.531 696.285 222.583 726.571 230.715C771.083 242.667 814.094 266.476 854.412 301.481C866.878 312.333 879.314 323.591 891.338 334.48C899.996 342.319 908.947 350.422 917.809 358.284C961.182 396.762 1008.65 436.15 1061.87 463.57C1079.63 472.731 1098.29 481.272 1117.34 488.955C1141.47 498.618 1164.15 506.307 1186.68 512.46C1221.28 521.909 1264.33 533.668 1306.87 521.294C1329.19 514.8 1346.94 502.468 1361.12 483.594C1387.47 448.532 1397.33 398.537 1406.03 354.425C1409.53 336.701 1412.83 319.961 1416.9 306.214C1418.41 301.129 1419.92 295.875 1421.38 290.793C1427.1 270.915 1433.01 250.359 1441.1 230.648C1449.9 209.037 1460.49 190.174 1472.58 174.589C1486.21 157.004 1501.51 143.976 1518.04 135.866C1528.78 130.601 1539.84 126.951 1551.87 124.704C1568.07 121.68 1586.05 121.781 1605.31 125.006C1622.17 127.83 1640.61 133.155 1660.11 140.836C1692.58 153.624 1723.98 173.572 1750.92 198.523C1781.01 226.324 1807.24 260.881 1828.89 301.239C1848.44 337.699 1863.69 377.696 1874.2 420.117L1873.27 420.36C1850.99 330.472 1807.31 251.948 1750.27 199.256C1723.42 174.387 1692.12 154.504 1659.76 141.757C1617.82 125.237 1582.58 119.975 1552.05 125.677C1540.11 127.906 1529.12 131.531 1518.46 136.757C1479.12 156.051 1455.16 198.67 1441.99 231.028C1433.92 250.689 1428.02 271.217 1422.3 291.069C1420.84 296.151 1419.33 301.408 1417.82 306.499C1413.77 320.2 1410.47 336.918 1406.98 354.619C1402.79 375.841 1398.05 399.893 1391.17 422.443C1383.28 448.279 1373.7 468.478 1361.89 484.195C1355.06 493.282 1347.21 501.016 1338.56 507.184C1329.26 513.816 1318.69 518.884 1307.13 522.244C1293.91 526.092 1280.65 527.622 1267.61 527.622Z" fill="#A1A1A1"/>
<path d="M1284.85 532.614C1275.21 532.614 1265.11 531.655 1254.44 529.742C1233.43 525.973 1213.31 519.135 1195.57 513.106C1173.2 505.504 1149.85 496.047 1126.16 485.001C1107.2 476.11 1088.63 466.397 1070.97 456.126C1020.27 426.679 976.589 387.525 928.805 343.119C924.558 339.173 920.246 335.148 916.077 331.252C899.657 315.921 882.68 300.069 865.383 285.09C824.511 249.772 780.286 227.4 733.935 218.595C675.469 207.486 612.144 217.07 545.728 247.083C511.647 262.485 478.176 281.9 448.935 303.234C426.917 319.298 408.793 338.237 389.605 358.289C387.656 360.327 385.698 362.371 383.729 364.423C378.829 369.536 373.552 375.024 368.183 380.517C356.925 392.077 343.205 405.248 326.812 415.263C308.462 426.476 289.616 432.127 269.2 432.536C231.828 433.289 193.785 420.639 156.993 408.405L155.593 407.94C137.579 401.953 118.523 395.905 101.224 392.232C48.4923 381.039 -6.46415 373.268 -53.5181 370.35L-53.4547 369.296C-6.3511 372.216 48.655 379.993 101.433 391.197C118.782 394.881 137.871 400.939 155.913 406.934L157.313 407.399C194.024 419.604 231.99 432.223 269.181 431.476C312.132 430.614 341.796 406.114 367.453 379.765C372.821 374.274 378.093 368.786 382.993 363.676C384.962 361.626 386.919 359.58 388.869 357.545C408.09 337.459 426.247 318.486 448.336 302.369C477.633 280.992 511.168 261.54 545.312 246.111C576.472 232.031 607.137 222.329 636.447 217.278C669.938 211.509 702.802 211.599 734.128 217.549C780.656 226.388 825.043 248.839 866.053 284.279C883.364 299.271 900.349 315.129 916.777 330.469C920.946 334.361 925.259 338.386 929.505 342.332C977.243 386.696 1020.87 425.808 1071.48 455.204C1089.12 465.459 1107.66 475.158 1126.59 484.036C1150.25 495.066 1173.56 504.509 1195.9 512.099C1230.91 524 1274.48 538.806 1317.45 527.461C1340.36 521.41 1358.22 509.004 1372.05 489.533C1398.11 452.848 1405.66 397.553 1411.72 353.122C1414.08 335.816 1416.3 319.47 1419.33 306.166C1420.28 301.972 1421.24 297.651 1422.17 293.47C1426.99 271.755 1431.99 249.299 1439.47 227.584C1451.04 193.79 1473 148.584 1511.97 125.124C1522.73 118.647 1533.84 113.878 1545.92 110.546C1577.51 101.704 1615.14 104.565 1657.74 119.044C1691.43 130.497 1723.81 149.655 1751.4 174.451C1782.25 202.119 1808.69 237.009 1829.97 278.159C1839.74 297.033 1848.36 317.193 1855.62 338.076C1862.55 358.024 1868.27 378.739 1872.62 399.645L1871.61 399.865C1852.45 307.744 1809.52 227.973 1750.71 175.243C1723.23 150.54 1690.97 131.455 1657.41 120.045C1615.01 105.63 1577.59 102.778 1546.19 111.563C1534.2 114.87 1523.18 119.602 1512.5 126.032C1473.79 149.328 1451.95 194.303 1440.45 227.93C1432.98 249.589 1428 272.015 1423.18 293.702C1422.25 297.882 1421.29 302.206 1420.33 306.403C1417.32 319.662 1415.09 335.985 1412.74 353.266C1409.69 375.624 1406.23 400.964 1400.33 424.881C1393.54 452.363 1384.57 473.714 1372.89 490.153C1366.23 499.531 1358.44 507.44 1349.73 513.658C1340.36 520.358 1329.58 525.347 1317.7 528.482C1307.28 531.238 1296.39 532.614 1284.85 532.614Z" fill="#A1A1A1"/>
<path d="M1300.73 537.885C1289.17 537.885 1276.99 536.355 1263.97 533.285C1242.89 528.316 1222.6 520.068 1204.7 512.79C1182.16 503.63 1158.82 492.64 1135.32 480.122C1116.49 470.045 1098.04 459.17 1080.5 447.797C1032.21 416.524 990.794 376.216 946.947 333.547C944.777 331.436 942.607 329.322 940.431 327.208C920.041 307.387 898.958 286.889 876.979 267.948C835.396 232.181 789.831 211.176 741.55 205.516C680.905 198.405 615.477 214.643 547.078 253.775C512.865 273.348 478.522 298.02 450.376 323.245C429.122 342.291 412.076 363.721 394.029 386.412C391.892 389.098 389.75 391.792 387.591 394.493C383.279 399.896 378.147 406.303 372.776 412.857C362.827 425.025 349.272 440.488 332.602 452.121C314.544 464.723 295.656 471.147 274.857 471.753C257.762 472.19 238.896 469.492 217.179 463.503C198.534 458.361 180.499 451.642 160.541 444.031C142.323 436.999 123.096 429.735 105.847 424.937C54.7504 410.726 0.778334 398.281 -54.5669 387.942L-54.3684 386.834C1.00994 397.176 55.0123 409.632 106.136 423.849C123.433 428.661 142.687 435.936 160.927 442.974C194.379 455.734 236.012 471.621 274.827 470.626C319.204 469.329 347.723 441.745 371.929 412.129C377.298 405.581 382.427 399.177 386.736 393.777C388.895 391.076 391.038 388.382 393.172 385.698C411.249 362.971 428.325 341.504 449.648 322.396C477.852 297.121 512.261 272.401 546.54 252.791C615.146 213.541 680.801 197.26 741.677 204.397C765.018 207.134 787.945 213.49 809.816 223.288C833.284 233.799 856.12 248.538 877.691 267.088C899.694 286.049 920.791 306.558 941.192 326.393C943.368 328.51 945.541 330.621 947.711 332.732C991.516 375.365 1032.9 415.633 1081.09 446.847C1098.61 458.204 1117.03 469.064 1135.84 479.124C1159.3 491.622 1182.61 502.598 1205.11 511.745C1240.47 526.12 1284.49 544.01 1328.01 533.635C1351.59 528.014 1369.57 515.533 1382.97 495.481C1408.8 457.18 1413.4 398.673 1417.1 351.663C1418.42 334.849 1419.67 318.969 1421.74 306.127C1422.17 303.477 1422.6 300.814 1423.02 298.136C1426.89 273.949 1430.89 248.936 1437.84 224.526C1447.76 189.416 1467.62 141.808 1505.89 114.388C1516.57 106.738 1527.7 100.853 1539.95 96.3936C1556.96 90.1389 1575.93 87.199 1596.3 87.65C1614.91 88.0615 1634.78 91.2946 1655.35 97.2561C1690.25 107.367 1723.63 125.736 1751.86 150.377C1783.48 177.91 1810.12 213.138 1831.04 255.077C1840.65 274.321 1848.96 294.894 1855.75 316.226C1862.26 336.656 1867.4 357.836 1871.02 379.176L1869.94 379.368C1854.15 286.376 1810.85 203.225 1751.15 151.234C1723.03 126.7 1689.8 108.407 1655.05 98.3357C1612.2 85.9165 1572.52 85.6121 1540.31 97.4506C1528.17 101.876 1517.11 107.716 1506.52 115.307C1468.51 142.538 1448.77 189.901 1438.89 224.836C1431.96 249.181 1427.97 274.157 1424.11 298.313C1423.68 300.991 1423.25 303.658 1422.83 306.307C1420.76 319.101 1419.52 334.962 1418.19 351.75C1414.49 398.896 1409.87 457.572 1383.88 496.118C1377.42 505.783 1369.69 513.873 1360.91 520.156C1351.47 526.915 1340.48 531.819 1328.26 534.734C1319.44 536.831 1310.3 537.885 1300.73 537.885Z" fill="#A1A1A1"/>
<path d="M1315.65 543.373C1302.49 543.373 1288.54 541.197 1273.51 536.828C1252.25 530.647 1231.83 520.993 1213.82 512.478C1191.06 501.716 1167.73 489.187 1144.48 475.245C1125.78 463.999 1107.46 451.96 1090.02 439.471C1047.07 408.724 1010.36 371.058 971.493 331.179C965.14 324.66 958.57 317.92 952.051 311.293C929.138 288.011 909.572 268.813 888.569 250.804C846.244 214.564 799.342 194.927 749.161 192.435C686.106 189.303 618.565 212.191 548.419 260.461C513.572 284.443 479.259 313.842 451.805 343.246C431.122 365.398 414.953 389.512 397.835 415.041C395.715 418.204 393.586 421.377 391.444 424.554C387.628 430.223 382.576 437.692 377.362 445.181C355.419 476.773 326.751 509.298 280.508 510.961C279.066 511.009 277.618 511.032 276.173 511.032C240.063 511.032 203.198 496.422 165.483 480.111L163.128 479.085C144.447 470.933 126.8 463.235 110.466 457.631C48.9083 436.514 -10.6253 418.688 -55.614 405.52L-55.2914 404.367C-10.2917 417.541 49.2585 435.369 110.838 456.496C127.217 462.113 144.883 469.822 163.589 477.982L165.941 479.008C205.037 495.918 243.218 511.001 280.467 509.766C326.197 508.12 354.625 475.846 376.405 444.491C381.617 437.007 386.663 429.543 390.479 423.878C392.621 420.698 394.747 417.527 396.867 414.365C414.013 388.796 430.206 364.643 450.955 342.42C478.465 312.954 512.846 283.496 547.763 259.466C580.17 237.165 612.588 220.041 644.115 208.566C680.288 195.4 715.651 189.571 749.216 191.237C799.656 193.74 846.796 213.474 889.319 249.883C910.352 267.919 929.937 287.137 952.873 310.439C959.394 317.066 965.965 323.808 972.32 330.328C1011.15 370.167 1047.82 407.797 1090.69 438.481C1108.11 450.957 1126.4 462.976 1145.07 474.205C1168.29 488.13 1191.58 500.639 1214.31 511.384C1249.98 528.254 1294.38 549.247 1338.57 539.796C1362.73 534.63 1380.82 522.075 1393.88 501.417C1419.39 461.372 1420.92 399.572 1422.15 349.915C1422.55 333.713 1422.94 318.408 1424.15 306.076L1424.18 305.794C1426.91 278.179 1429.73 249.626 1436.19 221.453C1441.79 196.88 1449.59 174.787 1459.37 155.783C1470.4 134.359 1484 116.815 1499.8 103.638C1510.36 94.8208 1521.54 87.8163 1533.97 82.2269C1567.54 67.0369 1608.69 64.6918 1652.95 75.4507C1670.77 79.7802 1688.34 86.3393 1705.19 94.942C1722.13 103.595 1737.99 114.146 1752.33 126.294C1784.71 153.695 1811.56 189.255 1832.12 231.99C1850.6 270.4 1863.5 314.216 1869.43 358.698L1868.27 358.859C1855.58 263.655 1813.05 179.224 1751.58 127.216C1722.84 102.857 1688.64 85.3584 1652.69 76.6233C1608.67 65.9264 1567.79 68.2461 1534.44 83.3318C1522.11 88.879 1511.03 95.8271 1500.54 104.573C1471.05 129.178 1449.2 169.691 1437.34 221.732C1430.89 249.832 1428.07 278.346 1425.35 305.921L1425.32 306.203C1424.11 318.49 1423.73 333.773 1423.32 349.952C1422.09 399.761 1420.55 461.747 1394.87 502.074C1388.57 512.035 1380.89 520.299 1372.07 526.636C1362.54 533.468 1351.36 538.291 1338.81 540.977C1331.34 542.573 1323.64 543.373 1315.65 543.373Z" fill="#A1A1A1"/>
<path d="M281.366 550.276C265.219 550.276 247.636 547.06 227.791 540.493C208.073 533.967 188.573 524.959 170.436 516.198C167.152 514.603 163.893 513.01 160.655 511.429C144.542 503.556 129.321 496.121 115.096 490.328C58.3749 467.24 4.30906 446.489 -47.9783 426.426L-56.6418 423.1L-56.2062 421.913L-47.5426 425.239C4.74746 445.308 58.8216 466.059 115.554 489.153C129.817 494.959 145.057 502.404 161.19 510.288C164.425 511.869 167.684 513.461 170.965 515.054C208.197 533.037 247.754 550.465 286.12 548.912C333.281 546.905 361.544 509.349 380.895 476.858C385.853 468.548 390.628 460.267 394.235 453.981C396.226 450.517 398.203 447.056 400.174 443.603C416.525 414.979 431.969 387.942 452.279 362.45C479.089 328.806 513.437 294.604 549.001 266.149C581.996 239.749 615.29 218.891 647.965 204.155C685.443 187.251 722.049 178.48 756.766 178.082C809.007 177.287 857.528 195.66 900.961 232.683C925.038 253.231 946.625 275.46 964.57 294.494C974.334 304.853 984.098 315.471 993.542 325.739C1026.97 362.092 1061.53 399.679 1100.3 430.124C1117.62 443.727 1135.79 456.907 1154.32 469.295C1177.25 484.592 1200.53 498.635 1223.53 511.032C1259.47 530.407 1304.2 554.521 1349.14 545.964C1373.88 541.254 1392.09 528.626 1404.81 507.359C1429.97 465.499 1428.27 400.313 1426.9 347.937C1426.5 332.448 1426.12 317.816 1426.58 306.037C1427.61 279.482 1429.17 248.62 1434.57 218.392C1439.11 192.779 1445.98 169.606 1454.97 149.52C1465.15 126.799 1478.18 107.75 1493.72 92.9013C1504.01 83.0612 1515.55 74.7095 1528 68.0743C1545.78 58.5753 1565.72 52.6025 1587.29 50.325C1607.48 48.1912 1628.77 49.313 1650.57 53.6567C1668.95 57.321 1687.07 63.3473 1704.42 71.5723C1721.88 79.8479 1738.16 90.1587 1752.8 102.217C1769.68 116.102 1785.21 132.498 1798.93 150.952C1811.94 168.437 1823.47 187.936 1833.2 208.907C1851.41 248.141 1863.38 292.862 1867.84 338.229L1866.6 338.356C1857.03 240.933 1815.27 155.225 1752.03 103.206C1723.06 79.3547 1686.95 62.2001 1650.33 54.9025C1605.06 45.8799 1562.96 50.8239 1528.58 69.1989C1516.22 75.7806 1504.78 84.0675 1494.57 93.8286C1465.29 121.807 1445.52 163.791 1435.79 218.621C1430.4 248.766 1428.85 279.575 1427.82 306.087C1427.36 317.824 1427.74 332.434 1428.14 347.903C1428.82 373.742 1429.58 403.031 1427.02 431.344C1424.05 464.199 1417.13 489.28 1405.87 508.021C1399.73 518.276 1392.12 526.718 1383.23 533.11C1373.64 540.016 1362.24 544.76 1349.37 547.21C1342.88 548.447 1336.39 549.008 1329.94 549.008C1291.32 549.008 1253.89 528.832 1222.95 512.151C1199.92 499.734 1176.6 485.672 1153.64 470.352C1135.09 457.947 1116.89 444.747 1099.55 431.125C1060.7 400.618 1026.1 362.991 992.64 326.605C983.199 316.339 973.438 305.724 963.68 295.371C945.76 276.359 924.203 254.161 900.17 233.653C856.971 196.826 808.734 178.561 756.786 179.345C675.205 180.281 599.179 227.604 549.768 267.142C514.275 295.54 479.996 329.669 453.245 363.245C432.995 388.661 417.573 415.656 401.247 444.234C399.275 447.687 397.295 451.149 395.305 454.616C391.695 460.904 386.917 469.191 381.956 477.509C373.833 491.149 361.081 511.003 344.189 525.886C335.986 533.113 327.256 538.793 318.243 542.77C308.192 547.204 297.4 549.696 286.172 550.172C284.581 550.242 282.979 550.276 281.366 550.276Z" fill="#A1A1A1"/>
<path d="M286.549 589.518C270.383 589.518 252.836 586.054 233.096 578.984C212.658 571.667 192.453 561.379 175.385 552.277C170.14 549.475 164.907 546.634 159.844 543.886C145.694 536.205 132.326 528.947 119.722 523.022C74.4608 501.741 29.4942 480.964 -13.9945 460.87C-28.3796 454.223 -43.2526 447.351 -57.668 440.677L-57.1275 439.456C-42.7122 446.131 -27.8391 453.003 -13.4541 459.649C30.0346 479.744 75.0067 500.523 120.271 521.807C132.908 527.749 146.292 535.013 160.459 542.705C165.519 545.453 170.752 548.292 175.991 551.093C211.39 569.962 252.449 589.935 291.766 588.055C340.039 585.693 367.152 544.684 385.383 509.222C390.057 500.137 394.576 491.016 397.99 484.085C399.744 480.527 401.486 476.973 403.226 473.427C418.866 441.534 433.637 411.41 453.605 382.482C479.577 344.858 513.897 305.918 550.239 272.835C600.85 226.961 679.073 171.004 764.313 164.935C818.522 160.972 868.416 177.98 912.602 215.491C932.455 232.353 952.087 251.802 976.264 278.56C988.481 292.081 1000.61 306.096 1012.33 319.645C1042.83 354.898 1074.37 391.352 1109.91 421.78C1127.13 436.525 1145.18 450.864 1163.57 464.399C1185.83 480.773 1209.1 496.349 1232.74 510.696C1269.05 532.6 1314.23 559.865 1359.71 552.148C1384.65 548.004 1403.49 534.939 1415.73 513.32C1440.54 469.566 1435.22 397.982 1431.33 345.715C1430.23 331.047 1429.2 317.193 1429 306.017C1428.55 281.178 1428.59 248.428 1432.94 215.351C1440.44 158.032 1458.85 113.227 1487.64 82.1843C1497.73 71.2478 1509.31 61.746 1522.04 53.941C1540.15 42.8241 1560.58 35.3461 1582.78 31.7184C1603.69 28.3022 1625.69 28.3557 1648.18 31.8791C1667.16 34.9177 1685.82 40.4254 1703.65 48.2444C1721.65 56.1424 1738.35 66.2051 1753.28 78.1536C1770.54 91.9595 1786.3 108.412 1800.14 127.058C1813.25 144.728 1824.73 164.504 1834.28 185.842C1852.21 225.901 1863.26 271.524 1866.25 317.779L1864.94 317.866C1858.5 218.22 1817.51 131.232 1752.47 79.2106C1722.99 55.6097 1685.88 39.2697 1647.99 33.2039C1601.27 25.8894 1557.96 33.4576 1522.72 55.091C1510.09 62.8312 1498.61 72.2569 1488.6 83.106C1459.99 113.942 1441.7 158.495 1434.24 215.531C1429.9 248.518 1429.86 281.204 1430.31 305.994C1430.52 317.131 1431.55 330.968 1432.64 345.616C1434.65 372.634 1436.92 403.259 1435.62 433.156C1434.1 467.97 1427.97 494.412 1416.86 513.994C1410.89 524.555 1403.33 533.181 1394.4 539.63C1384.72 546.623 1373.12 551.279 1359.93 553.472C1339.47 556.942 1317.45 553.825 1292.61 543.94C1271.02 535.345 1250.33 522.864 1232.08 511.854C1208.41 497.487 1185.1 481.889 1162.81 465.493C1144.39 451.937 1126.32 437.579 1109.07 422.815C1073.46 392.325 1041.89 355.831 1011.35 320.541C999.632 306.995 987.511 292.989 975.304 279.479C951.169 252.769 931.573 233.356 911.767 216.534C867.843 179.237 818.266 162.331 764.401 166.269C679.528 172.315 601.564 228.099 551.105 273.836C514.835 306.851 480.586 345.709 454.67 383.254C434.756 412.101 420.007 442.182 404.392 474.027C402.653 477.576 400.91 481.131 399.156 484.688C395.74 491.625 391.218 500.754 386.539 509.847C368.147 545.625 340.761 587.001 291.824 589.394C290.084 589.476 288.322 589.518 286.549 589.518Z" fill="#A1A1A1"/>
<path d="M291.838 628.763C247.665 628.763 201.317 601.03 160.23 576.442C147.604 568.888 135.679 561.751 124.346 555.716L-58.6938 458.254L-58.0569 457.006L124.983 554.468C136.346 560.517 148.285 567.662 160.928 575.227C203.603 600.765 251.975 629.71 297.413 627.201C346.75 624.481 372.741 580.019 389.872 541.592C395.475 529.023 400.885 516.235 406.118 503.867C420.432 470.042 435.23 435.065 454.926 402.512C470.566 376.665 489.994 349.557 511.109 324.124C534.274 296.222 559.076 270.623 584.821 248.039C613.208 223.142 642.072 202.546 670.607 186.826C702.171 169.44 733.265 158.089 763.033 153.086C822.666 143.066 876.903 158.272 924.233 198.289C963.566 231.542 996.996 272.661 1029.33 312.427C1057.47 347.04 1086.57 382.829 1119.52 413.423C1157.57 448.758 1198.77 481.368 1241.95 510.341C1278.33 534.754 1323.61 565.139 1370.28 558.31C1409.69 552.543 1432.48 525.585 1439.95 475.891C1446.29 433.622 1440.25 383.48 1435.4 343.193C1433.75 329.463 1432.19 316.494 1431.42 305.978C1427.19 248.003 1429.89 200.144 1439.66 159.671C1445.76 134.418 1454.76 111.908 1466.41 92.7661C1479.42 71.3835 1496.13 53.5581 1516.07 39.786C1533.31 27.8714 1552.75 19.218 1573.84 14.0654C1593.92 9.16089 1615.06 7.5176 1636.67 9.18063C1679.17 12.4503 1720.75 28.3928 1753.74 54.0683C1771.37 67.7925 1787.39 84.3044 1801.33 103.142C1814.54 120.995 1825.99 141.05 1835.35 162.754C1852.99 203.639 1863.12 250.167 1864.65 297.304L1863.27 297.352C1860.02 196.973 1818.76 106.445 1752.9 55.1929C1682.96 0.764012 1583.68 -5.2257 1516.83 40.9557C1450.61 86.7031 1423.12 173.358 1432.79 305.873C1433.56 316.356 1435.12 329.308 1436.77 343.021C1441.63 383.396 1447.68 433.644 1441.3 476.105C1437.83 499.233 1430.85 517.819 1420.56 531.352C1414.77 538.959 1407.79 545.177 1399.81 549.828C1391.32 554.778 1381.45 558.101 1370.47 559.708C1365.99 560.364 1361.42 560.694 1356.78 560.694C1339.87 560.694 1321.86 556.322 1302.12 547.466C1279.89 537.488 1258.43 523.09 1241.19 511.522C1197.95 482.507 1156.7 449.855 1118.58 414.469C1085.56 383.81 1056.43 347.979 1028.26 313.329C995.97 273.613 962.582 232.545 923.347 199.377C876.335 159.634 822.47 144.526 763.248 154.479C643.453 174.61 520.051 297.55 456.09 403.256C436.446 435.719 421.667 470.648 407.373 504.427C402.137 516.802 396.724 529.598 391.116 542.178C379.742 567.69 368.508 585.958 355.764 599.663C347.809 608.215 339.179 614.957 330.112 619.701C320.032 624.974 309.052 627.974 297.477 628.613C295.607 628.712 293.724 628.763 291.838 628.763Z" fill="#A1A1A1"/>
</g>
</svg>
