<svg width="15" height="15" viewBox="0 0 15 15" fill="none" xmlns="http://www.w3.org/2000/svg">
<path d="M14.9963 15.0002V14.9995H15V9.481C15 6.7813 14.4247 4.70166 11.3004 4.70166C9.79839 4.70166 8.79045 5.53427 8.37897 6.32362H8.33552V4.9537H5.37317V14.9995H8.45779V10.0252C8.45779 8.71548 8.70356 7.44902 10.3092 7.44902C11.8912 7.44902 11.9148 8.9437 11.9148 10.1092V15.0002H14.9963Z" fill="#F7F7EE"/>
<path d="M0.223877 4.92529H3.35821V14.776H0.223877V4.92529Z" fill="#F7F7EE"/>
<path d="M1.79104 0C0.802303 0 0 0.798563 0 1.78269C0 2.76683 0.802303 3.58209 1.79104 3.58209C2.77979 3.58209 3.58209 2.76683 3.58209 1.78269C3.58147 0.798563 2.77916 0 1.79104 0V0Z" fill="#F7F7EE"/>
</svg>
