<svg width="400" height="29" viewBox="0 0 400 29" fill="none" xmlns="http://www.w3.org/2000/svg">
<path d="M280.982 14.9465C280.572 14.9701 280.159 14.9864 279.757 15.0219C279.497 15.0441 279.385 14.979 279.211 14.945C279.153 14.9332 279.091 14.9095 279.037 14.9124C278.632 14.9361 278.227 14.9627 277.821 14.9894C277.697 15.0471 277.618 15.124 277.428 15.1521C277.242 15.1787 277.023 15.1787 276.816 15.192C276.543 15.2083 276.27 15.2246 275.996 15.2394C275.86 15.2468 275.748 15.2749 275.703 15.3281C275.694 15.337 275.785 15.3592 275.835 15.3725C276.001 15.4169 276.162 15.4672 276.344 15.5012C276.518 15.5337 276.733 15.4805 276.919 15.5219C277.337 15.6151 277.341 15.6136 277.66 15.5959C277.933 15.5796 278.206 15.5618 278.479 15.55C278.533 15.5471 278.595 15.5692 278.653 15.5811C278.826 15.6136 278.938 15.6876 279.195 15.6595C279.389 15.6373 279.604 15.6328 279.807 15.621C279.977 15.6639 280.134 15.7127 280.316 15.7467C280.486 15.7793 280.535 15.8044 280.444 15.8473C280.362 15.8873 280.246 15.9036 280.093 15.9065C279.956 15.908 279.819 15.9213 279.683 15.9287C279.613 15.9331 279.546 15.9361 279.48 15.9405C279.22 15.9568 279.22 15.9568 278.744 15.8621C278.558 15.8252 278.347 15.8769 278.169 15.8414C278.049 15.8178 277.945 15.7823 277.829 15.7571C277.78 15.7468 277.701 15.7453 277.639 15.7482C277.432 15.7586 277.225 15.766 277.027 15.7852C276.886 15.7985 276.803 15.8399 276.82 15.8814C276.824 15.8976 276.923 15.9213 276.981 15.9228C277.114 15.9257 277.254 15.905 277.382 15.9154C277.507 15.9257 277.635 15.9553 277.726 15.9879C277.912 16.0559 278.123 15.9953 278.301 16.013C278.487 16.0322 278.64 16.0914 278.818 16.1269C278.864 16.1358 278.951 16.121 279.021 16.1166C279.224 16.1062 279.426 16.0973 279.629 16.087C279.799 16.1299 279.981 16.1683 280.134 16.2172C280.411 16.3059 280.709 16.3399 281.069 16.297C281.272 16.2734 281.47 16.2822 281.632 16.3399C281.797 16.3991 281.988 16.3932 282.199 16.3814C282.393 16.3695 282.592 16.337 282.79 16.3784C283.22 16.4701 283.225 16.4745 283.733 16.439C283.887 16.4287 284.002 16.4257 284.118 16.4598C284.226 16.4908 284.342 16.5174 284.453 16.547C284.656 16.5367 284.863 16.5263 285.066 16.5145C285.326 16.4982 285.471 16.5189 285.533 16.6018C285.57 16.6521 285.587 16.6979 285.678 16.7319C285.786 16.7734 285.901 16.7719 286.059 16.76C286.208 16.7497 286.315 16.7334 286.377 16.6802C286.402 16.658 286.452 16.6373 286.497 16.6195C286.535 16.6062 286.592 16.5855 286.626 16.5885C286.688 16.5944 286.77 16.6106 286.791 16.6299C286.994 16.8088 286.994 16.8103 287.201 16.8621C287.428 16.9198 287.664 16.9716 287.871 17.0367C288.057 17.0943 288.243 17.0692 288.446 17.0692C288.599 17.0692 288.698 17.1077 288.686 17.1461C288.678 17.1683 288.62 17.2009 288.57 17.2038C288.165 17.2334 287.755 17.2585 287.345 17.2793C287.296 17.2822 287.234 17.2556 287.176 17.2423C287.06 17.2156 286.957 17.1742 286.832 17.1653C286.708 17.1565 286.564 17.1787 286.427 17.1861C286.29 17.1935 286.146 17.2127 286.022 17.2009C285.897 17.189 285.798 17.1461 285.682 17.118C285.628 17.1047 285.554 17.0855 285.508 17.0899C285.206 17.1254 284.983 17.0766 284.768 17.0115C284.722 16.9982 284.644 16.9893 284.586 16.9923C284.106 17.0174 283.63 17.047 283.15 17.0751C282.956 17.0869 282.798 17.0352 282.757 16.9479C282.736 16.8991 282.695 16.8503 282.695 16.8015C282.695 16.7127 282.467 16.6639 282.302 16.6742C282.029 16.689 281.752 16.7009 281.483 16.7231C281.263 16.7408 281.077 16.7231 280.928 16.6698C280.755 16.6091 280.556 16.621 280.357 16.6373C280.208 16.6491 280.167 16.6979 280.175 16.8207C280.184 16.9198 280.113 16.9509 279.844 16.9671C279.505 16.9878 279.162 17.0086 278.818 17.0248C278.764 17.0278 278.702 17.0026 278.649 16.9893C278.533 16.9627 278.429 16.9198 278.305 16.9109C278.181 16.9006 278.036 16.9228 277.9 16.9316C277.763 16.939 277.618 16.9597 277.494 16.9494C277.37 16.939 277.267 16.8947 277.155 16.8666C277.101 16.8532 277.035 16.834 276.981 16.837C276.708 16.8488 276.435 16.8666 276.162 16.8828C275.856 16.9006 275.856 16.9006 275.421 16.8089C275.223 16.7674 275.024 16.8 274.83 16.8118C274.623 16.8237 274.428 16.8296 274.267 16.7704C274.159 16.7319 274.039 16.7083 273.911 16.7157C273.568 16.7334 273.229 16.7556 272.885 16.7734C272.827 16.7763 272.749 16.7689 272.703 16.7556C272.484 16.6935 272.269 16.6447 271.962 16.6757C271.698 16.7023 271.412 16.7038 271.147 16.729C271.003 16.7423 270.936 16.7896 270.965 16.8266C270.982 16.8458 271.069 16.868 271.127 16.868C271.259 16.8695 271.404 16.8473 271.528 16.8562C271.785 16.8739 271.913 16.9982 272.248 16.9642C272.447 16.9435 272.653 16.9361 272.86 16.9302C272.914 16.9287 272.972 16.9568 273.03 16.9716C273.195 17.0115 273.34 17.0633 273.58 17.0367C273.779 17.0159 273.99 17.01 274.193 16.9982C274.515 16.979 274.515 16.9805 274.933 17.0707C275.132 17.1136 275.33 17.0796 275.525 17.0692C275.67 17.0618 275.806 17.047 275.922 17.0677C276.1 17.0988 276.228 17.1698 276.447 17.1653C276.654 17.1609 276.857 17.1402 277.064 17.1328C277.192 17.1284 277.312 17.152 277.416 17.192C277.523 17.2319 277.639 17.2497 277.78 17.2408C277.982 17.229 278.189 17.2142 278.396 17.2068C278.454 17.2053 278.52 17.2186 278.574 17.2304C278.69 17.2571 278.802 17.2881 278.913 17.3162C279.116 17.3074 279.323 17.3044 279.522 17.2867C279.675 17.2733 279.782 17.2793 279.906 17.3088C280.064 17.3488 280.192 17.4198 280.448 17.3858C280.577 17.3695 280.726 17.3739 280.854 17.3591C281.011 17.3399 281.119 17.3473 281.23 17.3917C281.441 17.476 281.706 17.4775 281.979 17.4449C282.277 17.4094 282.501 17.4509 282.724 17.5159C282.96 17.584 282.96 17.5825 283.142 17.7467C283.196 17.794 283.349 17.8162 283.477 17.8074C283.692 17.7926 283.878 17.8 284.036 17.8562C284.201 17.9168 284.4 17.9094 284.602 17.8931C284.871 17.871 285.14 17.8517 285.359 17.9375C285.467 17.979 285.583 17.9893 285.728 17.9789C286.137 17.9523 286.551 17.9361 286.952 17.9035C287.197 17.8828 287.337 17.9301 287.503 17.9701C287.726 18.0248 287.97 18.0736 287.97 18.1905C287.97 18.2097 288.028 18.2319 288.078 18.2467C288.185 18.2778 288.301 18.3044 288.413 18.334C288.578 18.3783 288.74 18.4153 288.967 18.3917C289.166 18.3724 289.377 18.3665 289.58 18.3532C289.782 18.3399 289.969 18.3325 290.151 18.3887C290.362 18.4523 290.585 18.513 290.825 18.5603C290.995 18.5943 291.218 18.5366 291.4 18.5825C291.512 18.6106 291.619 18.6431 291.739 18.6668C291.789 18.6772 291.868 18.6698 291.934 18.6668C292.07 18.6609 292.211 18.6565 292.344 18.6417C292.497 18.6254 292.612 18.6283 292.728 18.6624C292.836 18.6934 292.943 18.7363 293.068 18.7452C293.254 18.7585 293.461 18.6993 293.647 18.7674C293.742 18.8014 293.862 18.834 293.986 18.8443C294.11 18.8547 294.255 18.8325 294.387 18.834C294.445 18.834 294.516 18.8576 294.549 18.8769C294.569 18.8872 294.541 18.9153 294.512 18.9301C294.474 18.9479 294.421 18.9715 294.367 18.9745C293.957 19.0011 293.548 19.0233 293.138 19.0485C292.894 19.0632 292.894 19.0632 292.401 18.9701C292.286 18.9479 292.157 18.9523 292.013 18.9626C291.818 18.976 291.62 19.0011 291.417 18.9745C291.152 18.8739 290.825 18.865 290.478 18.9035C290.333 18.9197 290.2 18.9198 290.093 18.8916C289.865 18.8354 289.625 18.7837 289.422 18.7171C289.265 18.6653 289.191 18.6609 289.125 18.7319C289.104 18.7541 289.083 18.7777 289.087 18.7985C289.112 18.8724 289.158 18.9449 289.182 19.0189C289.191 19.0396 289.158 19.0632 289.137 19.0854C289.071 19.1476 288.984 19.1431 288.839 19.0913C288.694 19.0396 288.521 19.0056 288.289 19.0292C288.09 19.0499 287.875 19.047 287.676 19.0692C287.37 19.1017 287.155 19.0544 286.936 18.9908C286.89 18.9774 286.812 18.9701 286.754 18.973C286.137 19.007 285.525 19.0455 284.909 19.0795C284.776 19.0869 284.656 19.0647 284.553 19.0248C284.445 18.9848 284.325 18.9641 284.193 18.9715C283.647 19.0026 283.1 19.0307 282.554 19.0692C282.331 19.0854 282.153 19.0662 282 19.0144C281.884 18.976 281.776 18.9641 281.632 18.9686C281.474 18.973 281.363 18.9878 281.284 19.0307C281.21 19.0721 281.263 19.0973 281.429 19.1298C281.607 19.1653 281.772 19.2112 281.942 19.2526C282.078 19.2467 282.215 19.2348 282.347 19.2363C282.405 19.2363 282.459 19.2629 282.517 19.2777C282.683 19.3206 282.836 19.3635 283.071 19.3399C283.27 19.3192 283.481 19.3147 283.684 19.3014C283.965 19.2851 283.965 19.2851 284.42 19.3783C284.536 19.402 284.66 19.4005 284.809 19.3872C284.937 19.3768 285.07 19.3975 285.161 19.4419C285.198 19.4597 285.186 19.4893 285.107 19.5869C285.107 19.6594 285.194 19.6268 285.223 19.5795C285.268 19.5115 285.182 19.4893 285.016 19.5263C284.9 19.5529 284.842 19.5913 284.871 19.6224C284.888 19.6387 284.966 19.6594 285.107 19.5869C285.471 19.4982 285.748 19.4878 286.013 19.4641C286.17 19.4508 286.27 19.4567 286.394 19.4952C286.543 19.541 286.692 19.5899 286.936 19.5662C287.201 19.5396 287.482 19.5366 287.751 19.5144C287.999 19.4937 288.127 19.5588 288.285 19.5973C288.475 19.6431 288.686 19.5913 288.86 19.618C289.042 19.6446 289.17 19.7097 289.381 19.7215C289.687 19.6816 289.882 19.7555 290.113 19.8044C290.295 19.8413 290.511 19.8088 290.705 19.7925C290.924 19.7748 291.106 19.791 291.259 19.8443C291.433 19.9049 291.628 19.8916 291.826 19.8783C292.29 19.8487 292.306 19.8443 292.575 19.9256C292.77 19.9848 292.956 19.9582 293.15 19.9508C293.32 19.9907 293.485 20.0336 293.663 20.0691C293.709 20.078 293.796 20.0632 293.866 20.0588C294.069 20.0469 294.276 20.0351 294.478 20.0233C294.615 20.0159 294.76 19.9937 294.884 20.0026C295.008 20.0129 295.111 20.0558 295.223 20.0839C295.335 20.112 295.451 20.1401 295.558 20.1697C295.724 20.2141 295.881 20.2511 296.113 20.2289C296.311 20.2097 296.518 20.2038 296.725 20.1904C296.986 20.1742 296.977 20.1786 297.462 20.2674C297.722 20.3162 297.991 20.257 298.256 20.2511C298.388 20.2481 298.517 20.2644 298.608 20.3073C298.645 20.3251 298.632 20.3546 298.645 20.3798C297.962 20.4197 297.275 20.4537 296.601 20.5026C296.34 20.5218 296.204 20.4685 296.063 20.4242C295.831 20.3531 295.525 20.4567 295.306 20.365C295.174 20.3102 294.983 20.2792 294.756 20.3058C294.623 20.3206 294.483 20.3191 294.346 20.3324C293.998 20.365 293.68 20.3665 293.403 20.2644C293.307 20.2289 293.171 20.2097 293.072 20.1756C292.956 20.1387 292.844 20.1179 292.708 20.1253C292.091 20.1608 291.479 20.1963 290.866 20.2348C290.813 20.2378 290.759 20.26 290.713 20.2762C290.597 20.3176 290.635 20.3502 290.821 20.3768C290.883 20.3857 290.933 20.4049 290.991 20.4197C291.102 20.4478 291.206 20.4922 291.33 20.5026C291.454 20.5129 291.599 20.4922 291.735 20.4848C291.872 20.4774 292.017 20.4552 292.141 20.4641C292.265 20.4745 292.368 20.5174 292.484 20.544C292.538 20.5573 292.604 20.5795 292.658 20.578C292.931 20.5691 293.2 20.5529 293.473 20.5395C293.643 20.5795 293.788 20.6372 293.99 20.6505C294.118 20.6594 294.255 20.6431 294.387 20.646C294.445 20.6475 294.52 20.6697 294.549 20.6889C294.565 20.7008 294.512 20.7304 294.47 20.7452C294.313 20.8014 294.098 20.791 293.903 20.8088C293.692 20.828 293.502 20.8221 293.341 20.7644C293.233 20.7259 293.113 20.7052 292.981 20.7126C292.637 20.7318 292.298 20.754 291.955 20.7703C291.897 20.7733 291.826 20.76 291.773 20.7496C291.338 20.6594 291.338 20.6564 291.032 20.6756C290.581 20.7037 290.581 20.7037 290.279 20.6253C290.221 20.6105 290.159 20.5824 290.109 20.5839C289.629 20.6076 289.154 20.6313 288.678 20.6653C288.521 20.6756 288.413 20.6756 288.297 20.6372C288.198 20.6046 288.082 20.5676 287.958 20.5588C287.83 20.5499 287.689 20.5721 287.552 20.5795C287.416 20.5869 287.271 20.6061 287.151 20.5943C287.027 20.5824 286.919 20.541 286.812 20.5114C286.7 20.4804 286.58 20.4818 286.427 20.4937C285.955 20.5277 285.951 20.5233 285.484 20.4316C285.43 20.4212 285.36 20.4094 285.302 20.4123C284.958 20.4301 284.619 20.4523 284.276 20.47C284.143 20.4774 284.015 20.4582 283.924 20.4153C283.887 20.3975 283.899 20.3679 283.874 20.3102C283.845 20.2969 283.878 20.3206 283.887 20.3428C283.949 20.3398 284.023 20.3428 284.069 20.331C284.185 20.3029 284.242 20.2659 284.213 20.2348C284.197 20.2185 284.118 20.1978 284.069 20.1978C283.978 20.1978 283.899 20.2304 283.874 20.3102C283.614 20.3591 283.336 20.3694 283.067 20.3931C282.91 20.4079 282.811 20.4005 282.687 20.362C282.538 20.3147 282.385 20.2688 282.141 20.2925C281.876 20.3191 281.594 20.3236 281.321 20.3443C281.007 20.368 280.87 20.2348 280.606 20.2378C280.332 20.2407 280.059 20.2659 279.786 20.2836C279.546 20.2984 279.546 20.2984 279.05 20.2023C278.868 20.1668 278.653 20.2185 278.475 20.1816C278.355 20.1579 278.251 20.1224 278.136 20.0972C278.086 20.0869 278.007 20.0869 277.945 20.0898C277.602 20.1076 277.254 20.1194 276.923 20.152C276.547 20.1904 276.261 20.149 275.992 20.0617C275.653 20.078 275.31 20.0869 274.975 20.115C274.73 20.1357 274.59 20.0869 274.424 20.047C274.366 20.0336 274.317 20.0114 274.255 20.0055C274.193 19.9996 274.118 20.0114 274.052 20.0159C273.779 20.0321 273.497 20.0396 273.233 20.0662C272.906 20.1002 272.782 19.9789 272.529 19.9641C272.36 20.0366 272.269 20.1357 271.934 20.1431C271.66 20.149 271.387 20.1727 271.114 20.189C270.978 20.1964 270.841 20.2052 270.705 20.2126C270.485 20.2259 270.382 20.2836 270.428 20.3724C270.452 20.4212 270.473 20.47 270.494 20.5188C270.535 20.6061 270.432 20.6801 270.258 20.6904C269.778 20.7185 269.302 20.7481 268.822 20.7733C268.694 20.7807 268.57 20.7555 268.466 20.7156C268.359 20.6756 268.239 20.6579 268.106 20.6653C267.626 20.6934 267.151 20.723 266.671 20.7481C266.617 20.7511 266.547 20.7363 266.493 20.7244C266.377 20.6978 266.265 20.6668 266.154 20.6387C265.88 20.652 265.612 20.6608 265.343 20.6786C264.908 20.7052 264.908 20.7067 264.59 20.6253C264.532 20.6105 264.474 20.5824 264.42 20.5839C264.213 20.5898 264.01 20.6046 263.803 20.6179C263.195 20.6564 263.195 20.6564 263.017 20.612C262.856 20.5706 262.711 20.5203 262.467 20.544C262.202 20.5706 261.921 20.5795 261.648 20.5943C261.445 20.6046 261.242 20.6165 261.04 20.6194C260.986 20.6209 260.928 20.5928 260.87 20.578C260.704 20.5321 260.543 20.4952 260.316 20.5203C260.183 20.5351 260.042 20.5381 259.906 20.5455C259.55 20.5662 259.55 20.5662 258.967 20.4774C258.909 20.4685 258.838 20.4582 258.781 20.4626C258.301 20.4892 257.825 20.5188 257.345 20.544C257.287 20.5469 257.217 20.5381 257.159 20.5307C256.505 20.4449 256.505 20.4449 255.81 20.4863C255.545 20.5011 255.537 20.507 255.26 20.4286C255.135 20.3946 255.032 20.3783 254.887 20.3887C254.341 20.4242 253.791 20.4478 253.249 20.4893C253.005 20.507 252.864 20.4626 252.699 20.4227C252.641 20.4094 252.579 20.3798 252.529 20.3813C251.983 20.4094 251.437 20.4434 250.89 20.4715C250.841 20.4745 250.779 20.4449 250.721 20.4316C250.609 20.4049 250.501 20.365 250.377 20.3561C250.249 20.3472 250.108 20.3694 249.968 20.3768C249.624 20.3961 249.624 20.3946 249.227 20.3073C249.173 20.2955 249.103 20.2792 249.049 20.2822C248.503 20.3117 247.953 20.3369 247.411 20.3798C247.101 20.4035 246.89 20.3605 246.67 20.2984C246.625 20.2851 246.546 20.2792 246.488 20.2822C245.872 20.3162 245.259 20.3546 244.643 20.3887C244.515 20.396 244.391 20.3709 244.287 20.3324C244.122 20.2718 243.927 20.2792 243.72 20.2925C243.244 20.3236 243.24 20.3221 242.959 20.2511C242.901 20.2363 242.851 20.2171 242.789 20.2097C242.731 20.2023 242.657 20.2067 242.595 20.2097C242.322 20.2245 242.049 20.2407 241.776 20.257C241.503 20.2733 241.225 20.2822 240.956 20.3073C240.625 20.3384 240.468 20.2422 240.236 20.1978C239.897 20.2171 239.55 20.2289 239.215 20.26C238.958 20.2836 238.838 20.2185 238.668 20.1845C238.611 20.1727 238.548 20.1475 238.495 20.1505C237.878 20.183 237.262 20.2185 236.649 20.2585C236.5 20.2674 236.401 20.2555 236.277 20.22C236 20.1401 235.987 20.1431 235.524 20.1727C235.321 20.186 235.127 20.1978 234.953 20.1372C234.8 20.0825 234.614 20.0691 234.394 20.0869C234.126 20.1091 233.848 20.1209 233.575 20.1357C233.302 20.152 233.029 20.1742 232.756 20.1816C232.537 20.1889 232.404 20.1194 232.231 20.0839C232.177 20.0736 232.102 20.0721 232.04 20.0751C231.767 20.0884 231.486 20.0987 231.221 20.1239C230.898 20.1549 230.72 20.0736 230.493 20.0262C230.443 20.0159 230.36 20.0218 230.298 20.0262C229.818 20.0529 229.343 20.0824 228.863 20.1106C228.693 20.0706 228.519 20.0322 228.35 19.9922C228.077 20.007 227.803 20.0233 227.53 20.0381C227.324 20.0499 227.113 20.0543 226.918 20.0765C226.666 20.1061 226.542 20.0366 226.372 20.0026C226.314 19.9907 226.252 19.9656 226.198 19.9685C225.855 19.9848 225.511 20.0026 225.172 20.0277C224.849 20.0529 224.721 19.9197 224.456 19.9212C224.183 19.9227 223.902 19.9419 223.637 19.9685C223.331 19.9996 223.116 19.9523 222.896 19.8887C222.851 19.8754 222.772 19.868 222.714 19.8709C222.371 19.8887 222.032 19.9109 221.688 19.9286C221.63 19.9316 221.56 19.9242 221.502 19.9153C220.849 19.828 220.849 19.8265 220.563 19.8443C220.36 19.8561 220.153 19.8709 219.947 19.8783C219.889 19.8813 219.818 19.868 219.764 19.8561C219.334 19.7659 219.334 19.7644 219.024 19.7822C218.751 19.7984 218.478 19.8147 218.205 19.831C218.035 19.791 217.861 19.7526 217.692 19.7126C217.352 19.7319 217.005 19.7467 216.67 19.7733C216.512 19.7851 216.409 19.7807 216.289 19.7437C216.14 19.6993 215.991 19.6476 215.743 19.6727C215.478 19.6993 215.197 19.7023 214.928 19.7245C214.605 19.7511 214.473 19.6165 214.212 19.618C213.939 19.6194 213.658 19.6387 213.393 19.6653C213.087 19.6964 212.871 19.649 212.652 19.5854C212.607 19.5721 212.528 19.5647 212.47 19.5677C211.717 19.6106 210.968 19.6535 210.215 19.6993C209.752 19.7274 209.752 19.7289 208.871 19.6475C208.809 19.6416 208.742 19.6357 208.68 19.6387C208.407 19.652 208.126 19.6623 207.861 19.6875C207.538 19.7186 207.36 19.6387 207.133 19.5899C207.083 19.5795 207.005 19.5854 206.938 19.5884C206.731 19.5987 206.529 19.6121 206.322 19.6239C206.049 19.6402 205.776 19.6564 205.503 19.6727C205.333 19.6342 205.159 19.5943 204.99 19.5558C204.65 19.5751 204.303 19.5854 203.968 19.6165C203.711 19.6402 203.591 19.578 203.422 19.5425C203.364 19.5307 203.302 19.5055 203.248 19.507C202.631 19.5396 202.015 19.5736 201.403 19.615C201.15 19.6328 201.034 19.5662 200.865 19.5322C200.807 19.5218 200.741 19.5026 200.687 19.5055C200.277 19.5263 199.868 19.5514 199.458 19.5765C199.226 19.5913 199.226 19.5913 198.721 19.4996C198.664 19.4893 198.597 19.4789 198.539 19.4819C197.24 19.5558 195.945 19.6342 194.646 19.7082C194.514 19.7156 194.394 19.6934 194.29 19.6535C194.183 19.6135 194.063 19.5928 193.93 19.6002C193.384 19.6313 192.834 19.6594 192.292 19.6979C192.068 19.7141 191.89 19.6949 191.737 19.6431C191.622 19.6046 191.514 19.5899 191.369 19.5987C191.096 19.6165 190.823 19.6313 190.55 19.6475C190.277 19.6638 190.004 19.6801 189.731 19.6964C189.458 19.7126 189.181 19.7215 188.912 19.7467C188.581 19.7777 188.419 19.686 188.192 19.6402C187.782 19.6623 187.372 19.6845 186.967 19.7082C186.421 19.7393 185.875 19.7733 185.328 19.8029C185.279 19.8058 185.217 19.7792 185.159 19.7659C184.989 19.7289 184.865 19.6771 184.613 19.6934C183.388 19.7718 182.155 19.8384 180.926 19.9153C180.67 19.9316 180.558 19.868 180.384 19.8339C180.326 19.8236 180.26 19.8029 180.206 19.8058C179.524 19.8428 178.841 19.8842 178.158 19.9242C177.881 19.9404 177.881 19.9404 177.418 19.8487C177.364 19.8384 177.294 19.8251 177.236 19.828C176.346 19.8783 175.461 19.9316 174.571 19.9833C174.439 19.9907 174.319 19.97 174.211 19.9301C174.108 19.8901 173.984 19.868 173.855 19.8754C173.036 19.9227 172.213 19.9685 171.398 20.0203C171.178 20.0351 170.996 20.0218 170.839 19.9685C170.727 19.9301 170.616 19.9138 170.475 19.9227C169.246 19.9952 168.017 20.0647 166.789 20.1416C166.553 20.1564 166.387 20.1283 166.238 20.0795C166.118 20.041 166.015 20.0336 165.866 20.0396C165.709 20.0469 165.614 20.0632 165.527 20.1076C165.415 20.1653 165.345 20.2378 165.08 20.2422C164.807 20.2466 164.53 20.2644 164.261 20.2896C164.004 20.3147 163.884 20.2481 163.723 20.2082C163.603 20.1801 163.491 20.1756 163.338 20.189C163.197 20.2008 163.11 20.2259 163.028 20.2733C162.846 20.3739 162.829 20.3739 162.606 20.3102C162.486 20.2762 162.378 20.2496 162.246 20.2555C161.7 20.2851 161.153 20.3176 160.607 20.3517C160.293 20.3709 160.289 20.3739 160.053 20.2999C159.937 20.2629 159.825 20.2452 159.689 20.254C158.187 20.3428 156.685 20.4286 155.183 20.5218C154.951 20.5366 154.794 20.5055 154.629 20.4611C154.575 20.4463 154.521 20.4256 154.459 20.4197C154.397 20.4138 154.327 20.4197 154.26 20.4227C153.168 20.4863 152.072 20.5469 150.984 20.6179C150.735 20.6342 150.603 20.5869 150.433 20.5484C150.375 20.5351 150.326 20.5144 150.264 20.5085C150.202 20.504 150.127 20.5144 150.061 20.5188C148.969 20.5824 147.872 20.6431 146.784 20.7141C146.523 20.7304 146.412 20.6682 146.242 20.6357C146.184 20.6239 146.122 20.6017 146.068 20.6046C145.725 20.6209 145.386 20.6431 145.042 20.6623C144.223 20.7111 143.404 20.757 142.585 20.8073C142.27 20.8265 142.134 20.6949 141.869 20.7008C141.525 20.7082 141.186 20.7378 140.843 20.7585C140.57 20.7747 140.297 20.7895 140.023 20.8073C139.755 20.8236 139.755 20.8236 139.084 20.7378C139.026 20.7304 138.956 20.72 138.898 20.723C137.942 20.7777 136.982 20.8324 136.031 20.8916C135.812 20.9049 135.63 20.8975 135.472 20.8428C135.361 20.8043 135.245 20.7851 135.108 20.794C133.673 20.8783 132.241 20.9626 130.805 21.0455C130.751 21.0484 130.681 21.0336 130.627 21.0218C130.512 20.9952 130.4 20.9641 130.288 20.936C130.205 20.97 130.098 21.0011 130.044 21.0395C129.97 21.0913 129.87 21.1061 129.713 21.115C129.556 21.1238 129.457 21.1209 129.332 21.0824C129.183 21.0351 129.03 20.9981 128.786 21.0129C127.284 21.1061 125.782 21.1904 124.28 21.2821C124.032 21.2969 123.916 21.2318 123.743 21.1978C123.685 21.1874 123.619 21.1712 123.565 21.1741C122.948 21.2082 122.336 21.2451 121.719 21.2806C120.011 21.3812 118.302 21.4774 116.597 21.5839C116.287 21.6031 116.076 21.5661 115.857 21.5025C115.811 21.4892 115.733 21.4818 115.675 21.4848C113.283 21.6238 110.892 21.7644 108.504 21.9049C108.376 21.9123 108.252 21.8886 108.149 21.8502C108.041 21.8102 107.921 21.791 107.789 21.7984C106.696 21.862 105.604 21.9256 104.512 21.9907C104.239 22.007 104.235 22.0084 103.953 21.9374C103.895 21.9226 103.833 21.8945 103.788 21.8975C103.693 21.9049 103.602 21.9419 103.535 21.9922C103.469 22.0454 103.366 22.0602 103.213 22.0706C103.055 22.0809 102.952 22.0765 102.832 22.041C102.679 21.9966 102.538 21.9537 102.29 21.9685C99.1497 22.1579 96.0094 22.3398 92.869 22.5277C92.6167 22.5424 92.5008 22.4803 92.327 22.4463C92.2691 22.4359 92.2112 22.4211 92.1491 22.4182C92.0829 22.4152 92.0126 22.4241 91.9464 22.4286C86.8242 22.7288 81.7021 23.0306 76.58 23.3309C76.2738 23.3486 76.2779 23.3487 75.9428 23.4847C75.9014 23.501 75.8476 23.5232 75.7897 23.5261C74.2216 23.6208 72.6494 23.7125 71.0772 23.8043C70.3945 23.8442 69.7118 23.8856 69.0292 23.9241C68.785 23.9374 68.785 23.9374 68.2017 24.0972C68.152 24.1105 68.094 24.1282 68.0361 24.1312C65.3054 24.2924 62.5747 24.4537 59.8398 24.6119C59.6247 24.6238 59.4509 24.6504 59.3516 24.7214C59.2813 24.7717 59.1903 24.8013 59.0537 24.8102C57.1422 24.9226 55.2308 25.0365 53.3151 25.1459C53.0876 25.1593 52.951 25.2007 52.8393 25.2628C52.802 25.2835 52.7689 25.3072 52.7151 25.322C52.6655 25.3353 52.591 25.3397 52.529 25.3442C50.8905 25.4403 49.2522 25.5394 47.6096 25.6311C47.3655 25.6445 47.2661 25.6992 47.1462 25.7569C47.1048 25.7761 47.0758 25.8027 47.022 25.8161C46.9682 25.8279 46.8896 25.8279 46.8234 25.8308C45.4581 25.9107 44.0927 25.9921 42.7274 26.072C42.4626 26.0646 42.4046 26.1504 42.2764 26.2021C42.2309 26.2199 42.1978 26.2436 42.144 26.2554C42.0861 26.2672 42.0116 26.2657 41.9412 26.2687C40.8489 26.3323 39.7567 26.4004 38.6603 26.4595C38.4079 26.4728 38.3582 26.5483 38.2217 26.6C38.1761 26.6163 38.1307 26.6415 38.0769 26.6459C37.3942 26.6888 36.7116 26.7287 36.0289 26.7672C35.8013 26.7805 35.8013 26.7791 35.4 26.9255C35.3545 26.9418 35.3006 26.9595 35.2427 26.964C34.2208 27.0261 33.1947 27.0853 32.1686 27.1459C32.0362 27.1533 31.9452 27.1888 31.879 27.2391C31.8128 27.2894 31.7177 27.3219 31.5853 27.3293C30.7661 27.3781 29.9468 27.4284 29.1276 27.4728C28.9 27.4846 28.7511 27.5216 28.6518 27.5882C28.5773 27.6385 28.4863 27.6636 28.3415 27.6725C27.5223 27.7198 26.7031 27.7716 25.8797 27.8131C25.6398 27.8249 25.5156 27.8752 25.4163 27.9373C25.3377 27.9876 25.2466 28.0054 25.0936 28.0142C23.5917 28.1 22.0857 28.1858 20.5879 28.2805C20.3355 28.2968 20.2073 28.245 20.0418 28.208C19.8059 28.1562 19.5867 28.1 19.5867 27.9846C19.5867 27.9669 19.5163 27.9462 19.4667 27.9314C19.0985 27.8204 19.0984 27.8204 19.0405 27.7021C19.0074 27.6296 18.9702 27.5557 18.9412 27.4817C18.8874 27.3604 18.755 27.3293 18.3744 27.3515C18.2378 27.3589 18.1013 27.3693 17.9647 27.3752C17.762 27.3855 17.6089 27.3367 17.5717 27.248C17.551 27.1991 17.5262 27.1503 17.5055 27.1015C17.7124 27.0897 17.7082 27.0882 18.0723 26.9092C18.2254 26.8338 18.2255 26.8338 17.9317 26.7583C17.82 26.7302 17.7124 26.6992 17.5924 26.6725C17.5386 26.6607 17.4683 26.6533 17.4104 26.6563C17.067 26.674 16.7277 26.6947 16.3885 26.7154C15.8423 26.748 15.8423 26.748 15.2878 26.5971C15.2423 26.5853 15.172 26.5631 15.1803 26.5512C15.2258 26.4965 15.3375 26.4728 15.4781 26.4669C15.685 26.458 15.8877 26.4432 16.0905 26.4314C16.227 26.424 16.3635 26.4152 16.5001 26.4078C16.6283 26.3515 16.7608 26.2968 16.8808 26.2391C17.0711 26.1504 17.071 26.1474 16.8104 26.0853C16.6449 26.0439 16.467 26.0069 16.2973 25.9684C16.0946 25.9802 15.8877 25.9935 15.685 26.0039C15.4285 26.0172 15.325 25.9891 15.2588 25.893C15.2009 25.8086 15.2713 25.7362 15.4699 25.7184C15.6726 25.7007 15.863 25.6888 15.9664 25.6134C16.0657 25.5409 16.2395 25.5128 16.4546 25.5069C16.5912 25.5024 16.7277 25.4921 16.8642 25.4832C17.0421 25.4714 17.1373 25.3959 17.1001 25.3116C17.0794 25.2569 17.038 25.211 16.8766 25.1992C16.1609 25.1474 16.1526 25.1489 15.7967 25.0483C15.7636 25.0394 15.7389 25.0128 15.7513 24.9995C15.772 24.9773 15.8175 24.9448 15.8671 24.9403C16.3429 24.9078 16.8187 24.8782 17.2945 24.856C17.4518 24.8486 17.5676 24.8383 17.6214 24.7835C17.6959 24.7081 17.6628 24.6386 17.518 24.5868C17.4725 24.5705 17.3979 24.5498 17.3483 24.5513C16.8021 24.5779 16.2601 24.6119 15.714 24.6386C15.6644 24.6415 15.5734 24.6164 15.5527 24.5971C15.5113 24.5616 15.5733 24.5143 15.7181 24.498C15.9085 24.4758 16.1029 24.4744 16.2312 24.4004C16.4091 24.2954 16.6284 24.1992 16.827 24.0986C16.8601 24.0809 16.9139 24.0468 16.9015 24.0439C16.7981 24.0113 16.6781 23.9862 16.5705 23.9551C16.3884 23.9034 16.3884 23.8309 16.4298 23.7614C16.4629 23.7052 16.587 23.683 16.7401 23.683C16.8063 23.683 16.889 23.683 16.9428 23.6697C17.0835 23.6371 17.129 23.5957 17.0587 23.5646C17.0173 23.5469 16.9429 23.5217 16.8932 23.5247C16.0078 23.5735 15.1182 23.6208 14.2369 23.6815C13.9762 23.6992 13.8563 23.643 13.6991 23.6031C13.5791 23.572 13.4674 23.5602 13.3184 23.5824C13.1777 23.6031 13.0412 23.5913 12.9544 23.5424C12.884 23.5025 13.0081 23.4685 13.3433 23.43C13.4053 23.4226 13.4756 23.4182 13.5211 23.4034C14.0011 23.2436 14.0011 23.2421 14.3321 23.2214C14.6548 23.2022 14.6549 23.2007 14.8245 23.1149C14.9031 23.075 14.9899 23.035 15.0644 22.9936C15.0934 22.9774 15.1431 22.9478 15.1265 22.9389C15.0355 22.893 14.9113 22.8827 14.7665 22.893C14.4438 22.9182 14.0632 22.8975 13.8936 23.038C13.8274 23.0913 13.7239 23.1061 13.575 23.1149C12.0772 23.2007 10.5794 23.2924 9.07753 23.3753C8.83342 23.3886 8.72177 23.4433 8.62661 23.504C8.54386 23.5543 8.45282 23.5691 8.2956 23.5779C8.13837 23.5868 8.01419 23.5913 7.92316 23.5424C7.86938 23.5129 7.9149 23.4714 8.03903 23.43C8.21694 23.3708 8.18382 23.2969 8.1259 23.2274C8.08452 23.1815 7.95626 23.149 7.81973 23.1519C7.61699 23.1578 7.42259 23.1741 7.25295 23.1149C7.15365 23.0809 7.02951 23.0572 6.91779 23.0276C6.70265 22.967 6.48749 22.9049 6.18546 22.9448C5.97859 22.93 5.83378 22.8768 5.66828 22.8353C5.39107 22.7673 5.36624 22.7569 5.56484 22.6845C5.78826 22.6031 5.61446 22.4966 5.73858 22.4167C5.87098 22.3309 6.05309 22.2555 6.21445 22.1756C6.25582 22.1549 6.29308 22.1357 6.33445 22.115C6.23929 22.0854 6.15242 22.0484 6.04071 22.0277C5.8959 22.0011 5.82142 21.9685 5.82969 21.8768C5.80073 21.8635 5.81306 21.8975 5.84616 21.9064C5.8834 21.9152 5.97449 21.9079 6.02 21.8975C6.13585 21.8694 6.19371 21.8324 6.16475 21.8013C6.1482 21.7851 6.06965 21.7644 6.02 21.7644C5.92898 21.7644 5.85038 21.7969 5.82555 21.8768C5.36216 21.9374 4.88214 21.967 4.4022 21.9907C4.35255 21.9937 4.29052 21.9641 4.2326 21.9493C4.04227 21.899 4.04225 21.9005 3.4837 21.8857C3.42577 21.8842 3.3472 21.8635 3.31824 21.8428C3.19825 21.7525 3.20242 21.6534 3.1445 21.5573C3.25207 21.4951 3.35956 21.4345 3.47127 21.3738C3.69469 21.2511 3.98438 21.1431 4.15815 21.0085C4.12091 20.936 4.07126 20.8635 4.2533 20.8043C4.77048 20.7304 4.76638 20.7304 4.90705 20.6594C5.30838 20.4582 5.70556 20.2555 6.12344 20.0573C6.23515 20.0055 6.23516 19.9774 6.03657 19.9552C5.97451 19.9493 5.90822 19.9478 5.84202 19.9508C5.63515 19.9612 5.42828 19.9878 5.22554 19.9819C5.02281 19.9774 4.87386 19.9123 4.70836 19.8724C4.53873 19.831 4.3691 19.7881 4.19947 19.7452C4.00501 19.7496 3.81058 19.791 3.61612 19.7245C3.46717 19.6727 3.281 19.6357 3.11137 19.5928C3.23963 19.4804 3.47963 19.3946 3.66582 19.2955C3.83545 19.2052 3.8395 19.2067 4.29462 19.1372C4.50977 19.1047 4.58424 18.9375 4.4022 18.8887C4.18291 18.8295 3.95126 18.7748 3.72784 18.7186C3.53338 18.723 3.33482 18.763 3.14864 18.6964C3.00383 18.6461 2.8383 18.6121 2.59833 18.6313C2.19286 18.6638 1.77913 18.6801 1.36952 18.7067C1.22885 18.7156 1.07572 18.7097 1.01365 18.6594C0.972279 18.6239 1.09227 18.5751 1.22881 18.5647C1.43568 18.5499 1.62185 18.5322 1.72528 18.4582C1.82458 18.3843 2.00661 18.3621 2.22175 18.3517C2.27968 18.3488 2.34593 18.331 2.37489 18.3133C2.52384 18.2275 2.68935 18.1535 3.00793 18.1565C3.14033 18.1269 3.21062 18.0899 3.16925 18.0544C3.14442 18.0352 3.05758 18.01 3.00793 18.013C2.66452 18.0278 2.32113 18.0426 1.98599 18.0692C1.82877 18.081 1.70872 18.084 1.60942 18.0396C1.53908 18.01 1.57632 17.9701 1.70872 17.9272C1.82456 17.8902 1.8577 17.8473 1.84943 17.797C1.82874 17.6801 1.70459 17.6461 1.3074 17.6535C1.02191 17.6594 0.951572 17.6402 0.88951 17.5396C0.87296 17.5159 0.831659 17.4834 0.860621 17.4671C1.03853 17.3665 1.15439 17.2423 1.48952 17.1949C1.62192 17.1772 1.76253 17.1772 1.84528 17.1387C1.92803 17.1003 2.00254 17.0559 2.08943 17.0189C2.197 16.9745 2.2714 16.9331 2.22175 16.905C2.13901 16.8547 2.00665 16.8503 1.85357 16.868C1.72117 16.8828 1.5805 16.8843 1.44396 16.8932C1.19985 16.9094 1.0013 16.871 0.97234 16.8059C0.893728 16.6343 0.810955 16.4642 0.740619 16.2926C0.732344 16.2719 0.752974 16.2453 0.786074 16.2275C0.901922 16.1654 1.02609 16.1062 1.14608 16.0456C1.28675 15.976 1.51021 15.9894 1.70053 15.976C1.96947 15.9568 1.96937 15.9583 2.32933 15.8163C2.47001 15.7601 2.71413 15.7823 2.85894 15.732C2.90445 15.7157 2.97479 15.6891 2.96237 15.6743C2.94582 15.655 2.86312 15.6402 2.80106 15.6314C2.74313 15.6225 2.67281 15.6181 2.61075 15.6225C1.85774 15.6654 1.10888 15.7112 0.355865 15.7527C0.227604 15.7601 0.0869267 15.7275 0.0414148 15.6817C-0.00409704 15.6388 0.00827489 15.587 0 15.5382C0.119986 15.4775 0.256469 15.4213 0.359905 15.3562C0.438517 15.3059 0.529556 15.2837 0.686779 15.2808C0.893652 15.2763 1.09641 15.2586 1.3281 15.2453C1.7584 15.0293 2.18039 14.803 2.64378 14.587C2.82997 14.4997 2.78453 14.411 2.82176 14.3178C2.859 14.232 3.13619 14.2453 3.32238 14.2202C3.47133 14.1995 3.52091 14.1521 3.46299 14.1196C3.42989 14.1003 3.35545 14.0781 3.29753 14.0781C3.161 14.0781 3.02446 14.0915 2.88793 14.0989C2.75139 14.1062 2.59418 14.1018 2.48247 14.127C2.37489 14.1506 2.30452 14.2009 2.23418 14.2438C2.15557 14.2912 2.0522 14.3074 1.89498 14.3104C1.69225 14.3134 1.48952 14.3267 1.28679 14.337C1.06337 14.2793 0.831622 14.2231 0.616475 14.1625C0.575101 14.1506 0.566781 14.1166 0.570919 14.0944C0.579194 14.0367 0.517148 14.0012 0.380613 13.9731C0.264764 13.9495 0.169595 13.9154 0.0620213 13.8858C0.14477 13.8459 0.235826 13.8074 0.302025 13.7645C0.446836 13.6743 0.628904 13.6092 0.943349 13.6122C1.06747 13.5545 1.16674 13.4835 1.3281 13.4436C1.48119 13.4051 1.74186 13.4435 1.85771 13.3563C1.91563 13.3134 2.00257 13.2645 2.11428 13.2468C2.29219 13.2187 2.52388 13.2335 2.62732 13.1507C2.68938 13.1033 2.78037 13.0604 2.90035 13.0486C3.03689 13.0353 3.17752 13.0323 3.27682 13.0042C3.33061 12.9894 3.38854 12.9658 3.38854 12.945C3.38854 12.9317 3.30586 12.911 3.24793 12.9021C3.19415 12.8918 3.12373 12.8844 3.06167 12.8873C2.8548 12.8962 2.65207 12.9125 2.44519 12.9214C2.38727 12.9243 2.32109 12.914 2.25903 12.9051C2.07698 12.8814 2.08937 12.8519 2.23418 12.7986C2.37899 12.7468 2.48248 12.6802 2.60247 12.6196C2.73487 12.6092 2.90034 12.6137 2.99136 12.5856C3.14445 12.5397 3.25199 12.4731 3.37612 12.4155C3.51265 12.4066 3.65332 12.4036 3.78158 12.3874C3.83537 12.3814 3.86021 12.3489 3.90572 12.3297C3.98847 12.2927 4.05886 12.2394 4.17058 12.2217C4.35262 12.1951 4.57604 12.2054 4.68361 12.124C4.74568 12.0767 4.8408 12.0264 4.95665 12.0235C5.27937 12.0176 5.41591 11.9362 5.58141 11.8593C5.70553 11.8016 5.97034 11.8312 6.10687 11.7735C6.1979 11.7365 6.26413 11.6906 6.35516 11.6551C6.3924 11.6403 6.47098 11.6329 6.53304 11.6285C6.87231 11.6063 7.21571 11.59 7.55498 11.5664C7.60876 11.5619 7.65845 11.5397 7.69983 11.522C7.78671 11.4835 7.84044 11.4303 7.94801 11.4051C8.05559 11.38 8.20865 11.38 8.34105 11.3726C8.76721 11.3504 8.80034 11.3563 8.9948 11.2306C9.15202 11.1285 9.53685 11.201 9.66511 11.0886C9.73959 11.0235 9.87606 10.9702 10.1202 10.9628C10.4636 10.9525 10.8028 10.9244 11.1462 10.9051C11.4524 10.8874 11.4483 10.8874 11.7793 10.7498C11.9282 10.6877 12.1476 10.6966 12.342 10.6847C12.5489 10.6729 12.7392 10.6552 12.8385 10.5812C12.9378 10.5087 13.1198 10.485 13.3308 10.4747C13.5253 10.4643 13.7446 10.4717 13.8977 10.4126C14.2701 10.2705 14.266 10.2691 14.5266 10.2543C14.9362 10.2306 15.3458 10.2069 15.7554 10.1818C16.0285 10.1655 16.314 10.1626 16.5705 10.13C16.7567 10.1063 16.8394 10.0235 16.9594 9.96582C17.2986 9.94363 17.6379 9.92143 17.9772 9.90072C18.453 9.87114 18.9329 9.84452 19.4129 9.81641C19.6197 9.7602 19.6488 9.63594 19.9963 9.63002C20.2032 9.62706 20.4059 9.60784 20.6128 9.596C20.9562 9.57529 21.2954 9.54867 21.6389 9.53831C21.8995 9.53091 21.945 9.45103 22.0815 9.40073C22.127 9.38298 22.1684 9.35784 22.2222 9.3534C22.7601 9.31199 23.3144 9.30311 23.8399 9.24246C23.8937 9.23654 23.9433 9.20547 23.9558 9.18329C23.964 9.17145 23.8937 9.14927 23.8482 9.13892C23.7944 9.12708 23.7241 9.11525 23.6662 9.11821C21.9574 9.21732 20.2487 9.31791 18.5399 9.41702C18.2999 9.43181 18.2999 9.43032 17.7166 9.59304C17.6669 9.60636 17.6089 9.62114 17.5469 9.62558C17.2738 9.64333 16.9966 9.6537 16.7277 9.67589C16.5084 9.69364 16.3264 9.67587 16.1692 9.62262C16.0575 9.58416 15.9415 9.57233 15.8009 9.57529C15.6437 9.57973 15.5403 9.59601 15.4493 9.63595C15.3293 9.69068 15.2672 9.76168 15.0148 9.77647C13.8522 9.84008 12.6895 9.91108 11.531 9.97913C11.3696 9.95842 11.291 9.92736 11.3324 9.89037C11.3572 9.86819 11.4069 9.8386 11.4566 9.83564C11.9324 9.80458 12.4123 9.77796 12.8881 9.74837C12.9543 9.74393 13.0453 9.74688 13.0825 9.73208C13.2646 9.66552 13.3309 9.55753 13.6743 9.55014C13.8729 9.5457 14.0756 9.52352 14.2659 9.50281C14.3197 9.49689 14.3693 9.46583 14.3818 9.44364C14.3859 9.4318 14.3197 9.40961 14.27 9.39925C14.088 9.35635 13.877 9.40814 13.695 9.37856C13.6329 9.3682 13.546 9.3534 13.5336 9.33565C13.5253 9.31938 13.5956 9.29275 13.6453 9.27648C13.6908 9.26169 13.7528 9.24838 13.8149 9.24394C14.361 9.20992 14.9073 9.17441 15.4534 9.14779C15.6768 9.13743 15.834 9.10044 15.9333 9.0324C16.0078 8.9821 16.0988 8.95549 16.2395 8.94809C17.1952 8.89336 18.1509 8.83271 19.1108 8.78241C19.3508 8.77058 19.475 8.72177 19.5743 8.65816C19.6529 8.60787 19.7439 8.59011 19.897 8.58124C21.2665 8.50432 22.6277 8.41852 23.9972 8.34456C24.2496 8.33125 24.3241 8.26764 24.4523 8.2129C24.4978 8.19367 24.5267 8.17 24.5847 8.15817C24.6426 8.14634 24.7171 8.1478 24.7874 8.14485C25.8797 8.08124 26.972 8.0132 28.0685 7.95403C28.325 7.94072 28.3745 7.86675 28.5069 7.81497C28.5525 7.7987 28.5939 7.77208 28.6477 7.76765C29.4669 7.71735 30.2861 7.67002 31.1053 7.6212C31.6514 7.58866 32.1975 7.55611 32.7437 7.52504C33.0126 7.51025 33.0126 7.50876 33.3767 7.36824C33.4181 7.35196 33.4761 7.33273 33.5299 7.32829C35.1021 7.23362 36.6701 7.1434 38.2424 7.05021C38.3748 7.04281 38.4699 7.00877 38.5361 6.95848C38.6023 6.90818 38.6975 6.87416 38.8258 6.86677C40.0546 6.7928 41.2834 6.72032 42.5164 6.6508C42.7398 6.63897 42.897 6.60346 42.9963 6.53689C43.0708 6.4866 43.1618 6.45998 43.3025 6.45258C44.5313 6.38158 45.7602 6.30613 46.9931 6.23808C47.229 6.22477 47.3448 6.17448 47.4606 6.11531C47.502 6.0946 47.5351 6.06057 47.5847 6.05762C48.1971 6.0162 48.8053 5.9733 49.4217 5.94519C49.6783 5.93336 49.7652 5.87122 49.8686 5.81205C49.9514 5.76472 50.0466 5.74845 50.2038 5.74253C50.5472 5.72922 50.8864 5.70408 51.2216 5.67894C51.2712 5.6745 51.3333 5.64195 51.3374 5.62124C51.3457 5.58278 51.2505 5.55615 51.0933 5.54284C49.4549 5.63899 47.8123 5.73513 46.1739 5.83129C45.905 5.84756 45.905 5.84757 45.5409 5.9881C45.4995 6.00437 45.4415 6.0236 45.3836 6.02804C43.8114 6.12123 42.2433 6.21295 40.6711 6.30614C40.5387 6.31354 40.4436 6.34756 40.3773 6.39785C40.3112 6.44815 40.2159 6.48217 40.0877 6.48957C38.5858 6.57832 37.0839 6.66856 35.5779 6.75288C35.3545 6.76471 35.1973 6.79872 35.098 6.86677C35.0235 6.91706 34.9325 6.9437 34.7918 6.95109C33.3561 7.03393 31.9245 7.1212 30.4847 7.20108C30.3398 7.20847 30.2323 7.16558 30.2406 7.12564C30.2448 7.10493 30.3067 7.07092 30.3564 7.06796C31.1053 7.01914 31.8501 6.96884 32.6031 6.93186C32.8555 6.92003 32.9299 6.85494 33.0581 6.80021C33.0995 6.78098 33.1326 6.75583 33.1864 6.74547C33.2443 6.73364 33.3188 6.73512 33.3892 6.73217C35.1641 6.62714 36.9391 6.52064 38.7182 6.42153C38.9748 6.40673 39.0243 6.33424 39.1567 6.28247C39.2022 6.26472 39.2436 6.2381 39.2974 6.23514C39.8436 6.19964 40.3897 6.16857 40.9358 6.1375C41.8916 6.08129 42.8473 6.02508 43.8072 5.96886C44.0844 5.95259 44.0844 5.95259 44.4403 5.81354C44.4816 5.79726 44.5396 5.77657 44.5934 5.77361C47.1214 5.62421 49.6494 5.4748 52.1773 5.32687C52.3097 5.31948 52.4049 5.28545 52.4711 5.23516C52.5373 5.18634 52.6324 5.15084 52.7607 5.14196C56.1782 4.94079 59.5916 4.7396 63.0091 4.54138C63.2326 4.52807 63.3898 4.497 63.4891 4.42747C63.5594 4.37718 63.6545 4.35056 63.7952 4.34168C67.552 4.12127 71.3088 3.90087 75.0698 3.67898C77.5977 3.53105 80.1257 3.38017 82.6537 3.2352C82.8854 3.22189 83.0095 3.17602 83.1254 3.11537C83.1626 3.09466 83.1998 3.06064 83.2495 3.05768C83.7915 3.0207 84.3335 2.98668 84.8755 2.95266C85.0451 2.9926 85.2147 3.03107 85.3844 3.07101C85.5126 3.01479 85.6368 2.9571 85.7651 2.90089C86.5843 2.85799 87.3911 2.79142 88.2186 2.77071C88.2724 2.76923 88.3302 2.79734 88.3882 2.81214C88.7729 2.90533 88.9923 2.89793 89.2364 2.77367C89.3232 2.7293 89.3977 2.68936 89.5301 2.68196C89.9397 2.65533 90.3535 2.63758 90.759 2.60652C90.9783 2.59025 91.1603 2.60503 91.3175 2.65829C91.4292 2.69675 91.5451 2.71303 91.6817 2.70415C92.4347 2.65978 93.1835 2.61687 93.9365 2.56954C93.9903 2.56658 94.0399 2.54142 94.0813 2.52367C94.1682 2.48521 94.2427 2.4438 94.3254 2.40386C94.4371 2.42901 94.5613 2.44824 94.6523 2.48078C94.7682 2.51924 94.8757 2.51924 95.0329 2.50888C98.0367 2.32989 101.045 2.15534 104.048 1.97487C104.305 1.96008 104.417 2.02221 104.59 2.05476C104.648 2.06659 104.706 2.08138 104.768 2.08434C104.835 2.08729 104.905 2.07843 104.971 2.07399C107.226 1.94086 109.481 1.80919 111.736 1.67606C112.034 1.65831 112.034 1.65831 112.476 1.75002C112.53 1.76186 112.601 1.77517 112.658 1.77073C113.685 1.71304 114.711 1.65092 115.733 1.59175C115.865 1.58435 115.977 1.60802 116.097 1.64204C116.333 1.70861 116.349 1.70861 116.523 1.61098C116.606 1.56512 116.692 1.537 116.829 1.52369C116.978 1.5089 117.098 1.51335 117.214 1.53998C117.379 1.57696 117.499 1.63908 117.752 1.62281C118.844 1.55328 119.94 1.4956 121.029 1.42459C121.277 1.40832 121.409 1.45861 121.575 1.49559C121.633 1.50891 121.686 1.52962 121.748 1.53406C121.81 1.53849 121.885 1.52813 121.951 1.52369C123.317 1.44381 124.686 1.36543 126.047 1.27963C126.304 1.26336 126.415 1.32695 126.589 1.3595C126.647 1.37133 126.713 1.39205 126.767 1.38909C127.586 1.34324 128.41 1.29441 129.229 1.24559C129.523 1.22784 129.523 1.22932 129.969 1.31955C130.023 1.33139 130.094 1.34322 130.152 1.34027C131.107 1.28553 132.067 1.22932 133.023 1.17311C133.317 1.15536 133.317 1.15536 134.165 1.23228C134.227 1.2382 134.293 1.24709 134.355 1.24413C135.447 1.18052 136.544 1.11838 137.636 1.05034C137.855 1.03702 138.038 1.04885 138.195 1.10211C138.306 1.14057 138.422 1.15685 138.559 1.14797C139.788 1.07549 141.021 1.00597 142.245 0.929046C142.481 0.914253 142.634 0.946784 142.8 0.989682C142.853 1.00447 142.907 1.02519 142.969 1.03111C143.031 1.03702 143.102 1.0311 143.168 1.02666C144.397 0.95418 145.63 0.886137 146.854 0.807737C147.103 0.791465 147.235 0.841757 147.401 0.878738C147.459 0.892051 147.521 0.918679 147.57 0.9172C148.05 0.892053 148.53 0.869872 149.006 0.83289C149.262 0.812181 149.374 0.880214 149.548 0.912758C149.606 0.923113 149.672 0.945312 149.726 0.942354C150.752 0.884663 151.778 0.824018 152.8 0.761889C152.945 0.753013 153.052 0.766314 153.168 0.804775C153.321 0.856549 153.499 0.877259 153.723 0.860988C154.198 0.826965 154.678 0.803303 155.158 0.775197C155.44 0.758925 155.44 0.75893 156.3 0.835852C156.362 0.841769 156.428 0.850638 156.491 0.847679C157.31 0.800343 158.133 0.754489 158.948 0.702715C159.167 0.687923 159.35 0.701232 159.507 0.754485C159.618 0.792946 159.73 0.809227 159.871 0.800351C160.624 0.755973 161.373 0.711592 162.126 0.667214C162.399 0.650943 162.672 0.622829 162.945 0.622829C163.144 0.624309 163.288 0.69531 163.466 0.730812C163.516 0.741167 163.599 0.729347 163.665 0.726388C164.621 0.670177 165.581 0.618397 166.532 0.554789C166.78 0.538518 166.913 0.588809 167.078 0.625791C167.136 0.639104 167.198 0.665732 167.248 0.664253C167.591 0.647981 167.931 0.62579 168.274 0.60656C168.684 0.582892 169.097 0.565141 169.503 0.532597C169.834 0.50597 169.958 0.634661 170.223 0.639099C170.425 0.643537 170.632 0.618394 170.835 0.60656C171.245 0.582892 171.654 0.556268 172.064 0.535558C172.209 0.528162 172.32 0.504484 172.366 0.451231C172.374 0.440876 172.304 0.418696 172.258 0.405383C171.708 0.254499 171.708 0.254492 171.154 0.287035C170.81 0.307745 170.471 0.328458 170.128 0.346209C170.07 0.349168 170.003 0.337334 169.946 0.328459C169.78 0.303311 169.797 0.273729 169.937 0.220476C170.078 0.167223 170.185 0.102141 170.305 0.0414918C170.475 0.0799524 170.641 0.118399 170.81 0.15686C170.947 0.149464 171.083 0.140601 171.22 0.133205C171.903 0.0947443 172.585 0.0548015 173.268 0.0192993C173.318 0.0163408 173.38 0.0459303 173.437 0.0607228C173.603 0.103621 173.752 0.140593 173.992 0.124321C174.604 0.0814223 175.221 0.0503579 175.833 0.0133765C176.102 -0.00289532 176.102 -0.00289387 176.574 0.08882C176.627 0.0991748 176.698 0.11101 176.756 0.108051C177.372 0.0740282 177.985 0.0370511 178.601 0.00154895C178.733 -0.00584733 178.862 0.0133823 178.957 0.0562807C178.994 0.0740318 178.986 0.103611 179.143 0.346209C179.631 0.54295 179.966 0.522251 180.306 0.5045C180.451 0.497103 180.579 0.4897 180.674 0.460115C180.724 0.443843 180.786 0.420171 180.786 0.400941C180.786 0.386148 180.695 0.362476 180.637 0.359517C180.227 0.329932 179.838 0.39207 179.437 0.405383C179.251 0.4113 179.089 0.359525 179.056 0.275208C179.048 0.25154 179.035 0.226394 179.023 0.202726C179.011 0.179058 179.002 0.153912 178.99 0.130244C178.829 0.122847 178.733 0.14947 178.663 0.199764C178.605 0.241183 178.522 0.28852 178.411 0.310708C178.299 0.334377 178.146 0.329947 178.009 0.337343C177.877 0.344739 177.732 0.363968 177.608 0.353613C177.484 0.341779 177.385 0.298873 177.269 0.272246C177.215 0.258933 177.149 0.23971 177.095 0.242668C176.619 0.267816 176.148 0.292954 175.676 0.325497C175.428 0.343249 175.304 0.281129 175.146 0.242668C175.022 0.213083 174.898 0.22047 174.877 0.288516C174.824 0.451234 175.014 0.519276 175.436 0.488212C175.783 0.461585 176.098 0.457161 176.371 0.557751C176.408 0.571064 176.495 0.576979 176.549 0.57402C176.888 0.556269 177.223 0.534078 177.562 0.516327C177.625 0.513369 177.691 0.519276 177.749 0.525193C178.593 0.605073 178.593 0.606561 178.878 0.588809C179.015 0.579934 179.147 0.572537 179.135 0.34769C179.395 0.106571 179.809 0.0903022 180.211 0.0548C180.471 0.0326112 180.583 0.0977013 180.752 0.131724C180.81 0.143558 180.873 0.167222 180.926 0.164264C181.816 0.115448 182.701 0.0636669 183.587 0.0089344C183.736 5.88594e-05 183.843 0.00893584 183.959 0.0473965C184.108 0.096212 184.273 0.127283 184.509 0.109532C184.981 0.0740296 185.461 0.0518458 185.941 0.0222607C186.185 0.00746814 186.185 0.00745298 186.677 0.0991669C186.731 0.109522 186.801 0.121356 186.859 0.118398C187.339 0.0932506 187.815 0.0621956 188.291 0.035569C188.423 0.0281727 188.543 0.0488801 188.647 0.08882C188.75 0.12876 188.874 0.149467 189.003 0.142071C189.483 0.115444 189.958 0.0858687 190.434 0.0592421C190.492 0.0562836 190.562 0.0666377 190.616 0.0769925C191.121 0.168706 191.121 0.168691 191.353 0.153899C191.692 0.13171 192.039 0.121367 192.375 0.0917814C192.701 0.0621963 192.871 0.147986 193.094 0.195322C193.707 0.161299 194.323 0.133201 194.931 0.0917814C195.18 0.0740304 195.312 0.122841 195.478 0.161302C195.536 0.174615 195.593 0.202724 195.647 0.201245C195.854 0.195328 196.057 0.179059 196.26 0.167225C196.462 0.155391 196.669 0.143558 196.872 0.131724C197.104 0.174623 197.257 0.275211 197.588 0.241188C197.786 0.220478 197.997 0.21604 198.2 0.204206C198.403 0.192372 198.61 0.18054 198.812 0.168706C198.949 0.161309 199.09 0.156865 199.222 0.143552C199.466 0.121363 199.586 0.193855 199.76 0.226399C199.818 0.236754 199.884 0.254493 199.938 0.251535C200.347 0.230825 200.761 0.213075 201.163 0.179053C201.473 0.152426 201.684 0.196809 201.903 0.258938C201.949 0.272251 202.027 0.279647 202.085 0.276688C202.565 0.251541 203.041 0.220468 203.517 0.193841C203.645 0.186445 203.769 0.210113 203.873 0.248573C203.98 0.288513 204.1 0.307758 204.232 0.300362C204.708 0.273735 205.188 0.244141 205.664 0.217515C205.722 0.214556 205.792 0.226392 205.846 0.238226C206.31 0.32994 206.31 0.331421 206.583 0.31367C206.649 0.309232 206.719 0.306262 206.785 0.301824C207.125 0.281115 207.476 0.273729 207.807 0.238226C208.188 0.198286 208.465 0.248583 208.734 0.332901C209.073 0.31515 209.421 0.304793 209.752 0.275208C210 0.253019 210.133 0.309228 210.298 0.346209C210.356 0.359522 210.418 0.386149 210.468 0.383191C210.948 0.358043 211.427 0.335862 211.899 0.298881C212.156 0.278171 212.267 0.344726 212.441 0.378749C212.499 0.390583 212.561 0.411303 212.615 0.408344C212.888 0.39651 213.161 0.378751 213.434 0.362479C213.753 0.343249 213.753 0.344726 214.175 0.434961C214.373 0.477859 214.572 0.443835 214.766 0.43348C214.973 0.421646 215.168 0.412774 215.333 0.473423C215.437 0.511884 215.561 0.535553 215.689 0.529636C215.962 0.516322 216.239 0.503015 216.508 0.480827C216.723 0.463076 216.91 0.474903 217.067 0.529636C217.179 0.568096 217.294 0.587338 217.431 0.578463C218.043 0.54296 218.66 0.505965 219.272 0.471942C219.326 0.468984 219.4 0.482302 219.45 0.495616C219.566 0.522242 219.678 0.551821 219.789 0.581406C220.058 0.568093 220.335 0.562191 220.6 0.541481C220.882 0.520772 221.138 0.513373 221.357 0.594732C221.403 0.612483 221.469 0.637617 221.523 0.636138C221.73 0.630221 221.932 0.615432 222.135 0.603598C222.338 0.591764 222.545 0.579932 222.748 0.568098C222.983 0.605079 223.132 0.711584 223.463 0.677561C223.662 0.656852 223.873 0.652414 224.076 0.64058C224.278 0.628746 224.485 0.615434 224.688 0.605079C224.754 0.602121 224.829 0.59472 224.887 0.600637C224.949 0.606554 225.002 0.627268 225.056 0.642061C225.222 0.684959 225.375 0.727862 225.611 0.702715C225.809 0.682006 226.02 0.677566 226.223 0.664253C226.5 0.647981 226.5 0.647984 226.96 0.741177C227.146 0.779638 227.357 0.729345 227.535 0.761889C227.655 0.784078 227.758 0.821051 227.874 0.846199C227.924 0.856553 228.002 0.860985 228.06 0.858026C228.333 0.844713 228.61 0.831406 228.879 0.809217C229.099 0.791466 229.281 0.809215 229.434 0.862468C229.545 0.900929 229.657 0.917209 229.798 0.908334C230.48 0.866915 231.163 0.831401 231.842 0.785544C232.073 0.769272 232.26 0.794426 232.388 0.847679C232.607 0.939393 232.917 0.83141 233.145 0.905373C233.286 0.951229 233.426 1.00449 233.683 0.982297C234.155 0.943836 234.634 0.923115 235.11 0.896488C235.28 0.936428 235.45 0.976377 235.623 1.01632C235.896 1.00004 236.169 0.983763 236.442 0.96897C236.645 0.957136 236.852 0.943825 237.055 0.93347C237.121 0.930511 237.191 0.924593 237.253 0.931989C237.315 0.939385 237.365 0.95862 237.423 0.973413C237.709 1.0459 237.709 1.04738 238.18 1.0178C238.383 1.00448 238.577 0.995609 238.747 1.05478C238.904 1.10951 239.09 1.11986 239.306 1.10359C239.711 1.074 240.121 1.05182 240.534 1.03111C240.663 1.02371 240.783 1.04886 240.89 1.08732C241.052 1.14797 241.25 1.14205 241.453 1.12578C241.722 1.10507 241.987 1.08437 242.214 1.1672C242.26 1.18495 242.33 1.21009 242.38 1.20861C242.719 1.19678 243.062 1.18791 243.393 1.1598C243.724 1.13169 243.886 1.22341 244.113 1.26778C244.453 1.24855 244.796 1.22932 245.135 1.21009C245.201 1.20565 245.28 1.19235 245.338 1.19974C245.582 1.23081 245.723 1.34175 246.058 1.30773C246.252 1.2885 246.463 1.28259 246.666 1.27815C246.72 1.27667 246.79 1.3018 246.828 1.32103C246.848 1.33139 246.827 1.35949 246.803 1.37429C246.728 1.4157 246.637 1.45418 246.571 1.49708C246.563 1.50299 246.641 1.52961 246.687 1.54144C246.799 1.56807 246.927 1.56364 247.076 1.55181C247.204 1.54145 247.336 1.56216 247.427 1.60654C247.465 1.62429 247.452 1.65387 247.374 1.7515C247.374 1.82399 247.46 1.79144 247.489 1.7441C247.535 1.67605 247.448 1.65387 247.283 1.69085C247.167 1.71747 247.109 1.75594 247.138 1.787C247.154 1.80328 247.233 1.82399 247.374 1.7515C247.738 1.66275 248.011 1.64648 248.284 1.63021C248.354 1.62577 248.437 1.61097 248.487 1.61985C248.665 1.65535 248.83 1.69825 249.004 1.73819C249.202 1.72932 249.389 1.70712 249.583 1.76481C249.856 1.84617 249.869 1.83878 250.133 1.8225C250.27 1.81363 250.406 1.80625 250.543 1.79885C250.679 1.79145 250.787 1.81364 250.907 1.84766C251.151 1.91718 251.172 1.91718 251.333 1.8225C251.428 1.76481 251.494 1.74559 251.614 1.77221C252.012 1.86245 252.016 1.86836 252.355 1.84174C252.636 1.81955 252.901 1.81363 253.108 1.89795C253.249 1.95712 253.294 1.94381 253.406 1.88168C253.704 1.71748 253.84 1.72043 254.399 1.83877C254.66 1.89499 254.929 1.83434 255.193 1.82695C255.417 1.82103 255.574 1.85653 255.591 1.94972C255.603 2.00741 255.64 2.04884 255.789 2.06807C255.847 2.07546 255.917 2.08581 255.975 2.08285C256.319 2.0651 256.658 2.04439 257.001 2.02368C257.175 2.01333 257.27 1.94381 257.237 1.8521C257.2 1.75447 257.266 1.71895 257.514 1.69085C257.663 1.67458 257.783 1.67755 257.903 1.70417C258.036 1.73376 257.999 1.76038 257.883 1.81364C257.606 1.94381 257.639 2.02368 257.994 2.11391C258.119 2.14498 258.218 2.1731 258.247 2.21895C258.263 2.24262 258.247 2.27368 258.284 2.29144C258.487 2.39055 258.768 2.45416 259.083 2.5015C259.385 2.46156 259.591 2.52811 259.823 2.58136C260.005 2.62278 260.22 2.58729 260.415 2.5725C260.634 2.55623 260.816 2.56805 260.973 2.62279C261.085 2.66125 261.201 2.67899 261.337 2.6716C261.611 2.65532 261.888 2.64497 262.157 2.62131C262.388 2.6006 262.562 2.63019 262.707 2.68048C262.889 2.74409 263.092 2.70118 263.282 2.71006C263.539 2.72041 263.667 2.85206 264.002 2.81656C264.201 2.79585 264.408 2.78846 264.614 2.78254C264.668 2.78106 264.734 2.80621 264.78 2.82396C264.999 2.90532 265.256 2.90088 265.537 2.87721C265.731 2.86094 265.922 2.84616 266.112 2.90237C266.427 2.99704 266.774 3.07989 267.105 3.16716C267.151 3.23521 267.117 3.31507 267.353 3.35501C267.477 3.37572 267.593 3.4068 267.688 3.44082C267.804 3.48076 267.912 3.49112 268.061 3.48076C268.33 3.46005 268.611 3.4556 268.876 3.42897C269.12 3.40531 269.273 3.45414 269.422 3.49999C269.542 3.53698 269.654 3.55472 269.799 3.52809C269.948 3.50294 270.055 3.51921 270.175 3.55915C270.345 3.61388 270.357 3.60797 270.92 3.62425C270.978 3.62573 271.048 3.6479 271.081 3.66713C271.098 3.67749 271.061 3.70709 271.032 3.72188C270.994 3.73963 270.936 3.76033 270.883 3.76477C270.27 3.80323 269.654 3.83725 269.041 3.87571C268.979 3.88015 268.913 3.89052 268.868 3.90531C268.818 3.92158 268.756 3.94376 268.756 3.96446C268.756 3.97926 268.839 3.99701 268.897 4.00737C269.079 4.04139 269.294 3.98962 269.472 4.02808C269.592 4.05323 269.691 4.08872 269.811 4.11239C269.861 4.12275 269.939 4.12127 270.001 4.11831C270.208 4.10796 270.411 4.09317 270.618 4.08429C270.676 4.08281 270.742 4.09761 270.796 4.10945C271.193 4.1982 271.193 4.1982 271.536 4.17897C271.673 4.17157 271.818 4.14938 271.946 4.15826C272.07 4.16713 272.178 4.20707 272.289 4.23222C272.521 4.28547 272.74 4.33724 272.757 4.45263C272.765 4.497 272.902 4.53546 273.038 4.53842C273.171 4.54138 273.311 4.52512 273.448 4.51624C273.77 4.49849 273.771 4.49849 274.188 4.58872C274.304 4.61387 274.428 4.61683 274.577 4.60203C274.635 4.59612 274.706 4.60204 274.768 4.60944C274.97 4.63163 274.97 4.65972 274.838 4.71298C274.652 4.79138 274.668 4.79878 275.19 4.86535C275.388 4.89049 275.541 4.93783 275.707 4.97925C275.976 5.04582 275.972 5.0458 275.794 5.13308C275.752 5.15231 275.715 5.17303 275.674 5.19374C275.554 5.25143 275.459 5.31355 275.21 5.31947C274.937 5.32539 274.664 5.34906 274.391 5.36533C274.126 5.38161 274.056 5.41709 274.081 5.51768C274.11 5.63898 274.164 5.6523 274.639 5.65082C274.776 5.65082 274.896 5.66265 274.999 5.70259C274.95 5.74993 274.859 5.78691 274.726 5.79578C274.387 5.81797 274.044 5.83721 273.704 5.85644C273.431 5.87271 273.158 5.88898 272.885 5.90525C272.715 5.9156 272.608 5.99253 272.653 6.07833C272.678 6.12714 272.699 6.17596 272.72 6.22477C272.765 6.3224 272.852 6.34756 273.129 6.34312C273.2 6.34164 273.266 6.3298 273.332 6.33276C273.601 6.34311 273.729 6.46589 274.052 6.44074C274.321 6.42003 274.602 6.4156 274.867 6.38897C275.111 6.3653 275.248 6.41857 275.417 6.45851C275.475 6.47182 275.537 6.49991 275.587 6.49843C275.93 6.48216 276.274 6.4659 276.609 6.4378C276.766 6.42596 276.861 6.43483 276.985 6.47033C277.283 6.55613 277.292 6.55169 277.734 6.52507C278.057 6.50436 278.061 6.50731 278.475 6.59755C278.591 6.6227 278.715 6.62269 278.864 6.61086C279.058 6.59606 279.261 6.5724 279.464 6.59459C279.526 6.6005 279.604 6.61826 279.625 6.63749C279.637 6.6508 279.58 6.68335 279.53 6.6937C279.166 6.77063 278.74 6.75731 278.342 6.78838C278.218 6.79725 278.094 6.76914 277.991 6.7292C277.883 6.68926 277.767 6.673 277.627 6.6804C277.354 6.69667 277.076 6.70702 276.807 6.73069C276.576 6.75139 276.414 6.71737 276.253 6.67151C276.199 6.65672 276.137 6.62861 276.083 6.63009C275.471 6.65967 274.855 6.68927 274.246 6.73069C274.002 6.74844 273.862 6.7011 273.696 6.66116C273.638 6.64785 273.58 6.61974 273.526 6.62122C273.32 6.62714 273.117 6.64341 272.91 6.65524C272.157 6.69962 271.408 6.744 270.655 6.78542C270.605 6.78838 270.543 6.75731 270.485 6.74399C270.374 6.71737 270.258 6.69222 270.142 6.66707C269.935 6.6789 269.732 6.69369 269.525 6.70257C269.377 6.70849 269.244 6.72921 269.223 6.78542C269.211 6.8224 269.348 6.85642 269.492 6.85346C269.633 6.8505 269.774 6.83275 269.89 6.85198C270.465 6.94665 270.465 6.94813 270.825 6.9289C271.139 6.91115 271.106 6.89635 271.383 6.97771C271.503 7.01321 271.611 7.03393 271.747 7.02506C272.087 7.00435 272.43 6.98363 272.773 6.96588C272.827 6.96292 272.898 6.97772 272.951 6.98955C273.357 7.07831 273.357 7.08126 273.692 7.05908C274.13 7.03245 274.147 7.02505 274.441 7.11529C274.644 7.17742 274.83 7.13452 275.024 7.13156C275.248 7.18925 275.492 7.24103 275.694 7.30612C275.934 7.38304 276.187 7.36971 276.46 7.34752C276.663 7.33125 276.861 7.32534 277.027 7.38599C277.184 7.4422 277.374 7.44812 277.589 7.43333C277.784 7.42002 277.982 7.3919 278.185 7.42445C278.239 7.43332 278.322 7.45552 278.318 7.46883C278.313 7.48954 278.26 7.51913 278.206 7.52801C277.825 7.58866 277.407 7.58717 277.006 7.61528C276.952 7.61972 276.882 7.60344 276.828 7.5916C276.712 7.56498 276.601 7.53392 276.489 7.50581C276.286 7.51469 276.079 7.51764 275.881 7.53539C275.728 7.54871 275.612 7.54724 275.5 7.51174C275.396 7.47919 275.285 7.43924 275.161 7.42889C275.037 7.41854 274.892 7.44073 274.755 7.4496C274.619 7.45848 274.462 7.45403 274.354 7.4777C274.246 7.50137 274.18 7.55315 274.11 7.59457C274.031 7.64042 273.924 7.65522 273.766 7.65966C273.622 7.6641 273.506 7.65818 273.398 7.61676C273.353 7.59901 273.291 7.58569 273.228 7.57385C273.171 7.5635 273.104 7.54722 273.051 7.55018C272.434 7.5842 271.822 7.6212 271.205 7.6567C270.899 7.67445 270.903 7.67444 270.266 7.58716C270.208 7.57977 270.138 7.56942 270.08 7.57237C269.737 7.59012 269.397 7.61084 269.054 7.63155C268.706 7.65226 268.71 7.6493 268.119 7.5561C268.011 7.53835 267.854 7.56202 267.726 7.55907C267.457 7.55167 267.324 7.42741 267.01 7.45108C266.741 7.47179 266.46 7.47623 266.191 7.50285C265.947 7.52652 265.806 7.47475 265.64 7.43481C265.583 7.4215 265.52 7.39191 265.471 7.39487C264.854 7.42741 264.242 7.4644 263.423 7.46883C263.22 7.46883 263.311 7.4999 263.443 7.51026C263.634 7.52653 263.696 7.49546 263.592 7.43629C263.518 7.39487 263.41 7.37415 263.323 7.3845C263.278 7.39042 263.22 7.41854 263.423 7.46883C263.638 7.52504 263.626 7.5561 263.663 7.57385C263.754 7.61675 263.882 7.6345 264.014 7.62859C264.221 7.61823 264.424 7.60344 264.631 7.59457C264.689 7.59161 264.759 7.60196 264.813 7.6138C265.268 7.70551 265.272 7.71143 265.756 7.67593C265.909 7.66558 266.021 7.66558 266.141 7.69368C266.307 7.73214 266.427 7.79722 266.679 7.77651C267.014 7.74841 267.357 7.73215 267.701 7.71588C267.755 7.71292 267.813 7.73954 267.875 7.75138C268.044 7.78688 268.168 7.85344 268.421 7.82534C268.615 7.80315 268.826 7.79722 269.033 7.79278C269.087 7.7913 269.17 7.81497 269.194 7.8342C269.244 7.86823 269.182 7.90818 269.041 7.93628C268.984 7.94812 268.905 7.94515 268.839 7.94959C268.566 7.96586 268.293 7.98361 268.02 7.99692C267.875 8.00432 267.738 8.02651 267.722 8.08125C267.709 8.11823 267.858 8.15076 267.999 8.14781C268.206 8.14337 268.413 8.13154 268.611 8.11231C268.963 8.07976 269.269 8.08863 269.554 8.18183C269.757 8.24691 269.745 8.22326 269.96 8.41556C270.014 8.46438 270.175 8.46881 270.316 8.46585C270.655 8.45845 270.812 8.48065 270.783 8.5265C270.746 8.58272 270.626 8.60046 270.473 8.60785C270.2 8.61969 269.927 8.63893 269.654 8.6552C269.588 8.65964 269.513 8.6685 269.451 8.66555C269.389 8.66259 269.331 8.64484 269.277 8.63153C269.161 8.60342 269.062 8.56051 268.938 8.55016C268.814 8.53981 268.669 8.562 268.533 8.57087C268.396 8.57827 268.251 8.60046 268.127 8.5901C268.003 8.57975 267.899 8.53538 267.788 8.50875C267.734 8.49544 267.668 8.47472 267.614 8.4762C267.341 8.48803 267.068 8.50727 266.795 8.52206C266.46 8.54129 266.46 8.54129 266.054 8.44958C265.938 8.42295 265.818 8.42444 265.665 8.43627C265.334 8.45994 265.33 8.45549 264.726 8.36969C264.668 8.36082 264.598 8.35047 264.54 8.35491C263.923 8.38893 263.311 8.42591 262.699 8.46141C262.173 8.49247 262.173 8.49249 261.884 8.64041C261.668 8.74988 261.664 8.74987 261.875 8.80016C262.045 8.84158 262.198 8.90223 262.384 8.92442C262.558 8.94513 262.773 8.87856 262.964 8.94661C263.059 8.98063 263.183 9.01762 263.303 9.02353C263.493 9.03093 263.696 8.98802 263.878 9.05311C263.969 9.08565 264.105 9.11969 264.221 9.12117C264.424 9.12413 264.631 9.10045 264.834 9.09009C264.896 9.08713 264.966 9.08714 265.024 9.09453C265.086 9.10341 265.14 9.12117 265.194 9.13596C265.359 9.18625 265.537 9.20991 265.752 9.18477C266.104 9.14335 266.418 9.16406 266.691 9.25873C266.729 9.27204 266.82 9.27353 266.878 9.26761C267.026 9.25282 267.155 9.25134 267.266 9.27944C267.312 9.29128 267.378 9.31198 267.37 9.32529C267.357 9.34748 267.308 9.37707 267.254 9.38446C266.865 9.43476 266.447 9.44068 266.046 9.46731C265.992 9.47027 265.926 9.45103 265.872 9.43771C265.756 9.41109 265.657 9.36672 265.533 9.35637C265.409 9.34601 265.264 9.36524 265.127 9.37263C264.991 9.38003 264.846 9.40222 264.722 9.39335C264.598 9.38299 264.482 9.346 264.383 9.31346C264.267 9.27648 264.155 9.27205 264.002 9.28684C263.803 9.30608 263.597 9.30903 263.394 9.31938C263.282 9.29128 263.17 9.2602 263.055 9.23358C263.001 9.22026 262.935 9.204 262.877 9.20548C262.604 9.21731 262.33 9.23505 262.057 9.25133C261.784 9.2676 261.784 9.26761 261.321 9.1759C261.267 9.16555 261.197 9.15371 261.139 9.15667C260.795 9.17442 260.456 9.19659 260.113 9.21434C259.98 9.22174 259.86 9.20103 259.753 9.16109C259.649 9.12115 259.525 9.09897 259.397 9.10636C258.851 9.13743 258.305 9.16702 257.759 9.204C257.539 9.21879 257.353 9.20548 257.204 9.15223C257.03 9.09158 256.836 9.10637 256.633 9.11821C256.174 9.14779 256.17 9.1463 255.876 9.07086C255.818 9.05607 255.76 9.02796 255.706 9.02944C255.231 9.05163 254.751 9.07234 254.279 9.10784C254.031 9.12707 253.898 9.0753 253.733 9.03684C253.675 9.02353 253.613 8.99542 253.563 8.99838C253.22 9.01465 252.876 9.02945 252.541 9.05903C252.206 9.08862 252.078 8.95105 251.825 8.95253C251.482 8.95401 251.143 8.98803 250.804 9.00874C250.53 9.02502 250.257 9.04128 249.984 9.05755C249.711 9.07382 249.438 9.08713 249.165 9.10636C249.02 9.11672 248.913 9.1034 248.793 9.06642C248.64 9.0176 248.458 8.97916 248.292 8.93478C248.04 8.87117 248.04 8.87116 247.734 8.88892C247.667 8.89335 247.597 8.89631 247.531 8.90074C247.03 8.93329 247.03 8.93034 246.393 8.83714C246.364 8.83271 246.29 8.84898 246.261 8.86082C246.174 8.89928 246.095 8.94069 246.017 8.98063C245.905 8.95696 245.768 8.94365 245.694 8.90963C245.483 8.81348 245.152 8.94513 244.937 8.85045C244.858 8.81495 244.721 8.78389 244.597 8.77501C244.469 8.76613 244.324 8.78685 244.192 8.79572C243.849 8.81791 243.848 8.81643 243.555 8.94809C243.406 9.01318 243.191 9.00134 242.996 9.01613C242.794 9.0324 242.599 9.04128 242.429 8.98063C242.276 8.9259 242.09 8.91259 241.871 8.93034C241.602 8.95253 241.325 8.96583 241.052 8.97915C240.994 8.98211 240.923 8.97472 240.865 8.96584C240.232 8.87856 240.232 8.87709 239.926 8.89632C239.79 8.90519 239.649 8.90814 239.517 8.92145C239.293 8.94512 239.124 8.91406 238.962 8.86672C238.908 8.85193 238.846 8.82384 238.793 8.82532C238.519 8.83271 238.251 8.84602 237.982 8.85934C237.775 8.86969 237.568 8.87561 237.369 8.89632C237.038 8.93034 236.877 8.83418 236.649 8.7898C236.31 8.80903 235.967 8.82235 235.627 8.84897C235.47 8.86081 235.367 8.85638 235.247 8.82088C235.094 8.7765 234.953 8.7262 234.705 8.74839C234.374 8.77798 234.026 8.78833 233.687 8.80609C233.459 8.76023 233.294 8.66702 232.967 8.70105C232.768 8.72176 232.557 8.72619 232.355 8.73803C232.082 8.7543 231.809 8.7691 231.536 8.78685C231.242 8.80461 231.246 8.80017 230.795 8.71289C230.534 8.66112 230.265 8.71881 230 8.72768C229.794 8.73508 229.69 8.80312 229.74 8.8904C229.79 8.97767 229.678 9.04572 229.487 9.05755C229.012 9.08566 228.532 9.11523 228.056 9.14038C227.998 9.14334 227.928 9.13299 227.874 9.12263C227.365 9.02944 227.365 9.03093 227.137 9.04424C226.798 9.06643 226.451 9.07826 226.115 9.10636C225.884 9.12559 225.714 9.09454 225.565 9.04424C225.449 9.00578 225.342 8.99691 225.193 9.00578C223.554 9.10489 221.916 9.1966 220.282 9.29867C220.038 9.31347 219.897 9.27057 219.731 9.23063C219.673 9.21732 219.62 9.18921 219.562 9.18921C219.425 9.18921 219.289 9.20253 219.152 9.2114C218.54 9.2469 217.927 9.2898 217.311 9.31642C217.05 9.32826 216.98 9.39631 216.868 9.45252C216.781 9.49542 216.682 9.51316 216.529 9.51908C216.38 9.525 216.272 9.5176 216.157 9.47914C216.008 9.42884 215.838 9.39777 215.606 9.41848C215.337 9.44215 215.064 9.45252 214.787 9.46879C214.646 9.47619 214.539 9.50281 214.493 9.55606C214.485 9.56494 214.572 9.58713 214.622 9.60045C214.787 9.64482 214.944 9.6966 215.131 9.72766C215.321 9.75872 215.528 9.72321 215.726 9.71433C215.797 9.71138 215.863 9.70251 215.929 9.70399C215.991 9.70547 216.066 9.71287 216.111 9.72618C216.326 9.79275 216.554 9.8386 216.852 9.79866C217.108 9.81789 217.241 9.94067 217.568 9.90812C217.766 9.88889 217.973 9.88002 218.18 9.87262C218.234 9.87114 218.292 9.89777 218.349 9.91109C218.515 9.94807 218.647 10.0072 218.896 9.98209C219.16 9.95546 219.442 9.95103 219.711 9.93032C219.86 9.91848 219.967 9.92884 220.083 9.9673C220.232 10.0161 220.402 10.0531 220.633 10.0294C220.832 10.0087 221.043 10.0043 221.246 9.99095C221.51 9.97468 221.51 9.97616 221.982 10.0679C222.036 10.0782 222.106 10.0901 222.164 10.0871C222.508 10.0694 222.847 10.0472 223.19 10.0294C223.323 10.022 223.451 10.0412 223.542 10.0841C223.579 10.1019 223.567 10.1315 223.579 10.1566C222.896 10.1966 222.214 10.2306 221.535 10.2794C221.279 10.2986 221.163 10.238 220.993 10.204C220.935 10.1921 220.873 10.167 220.82 10.17C220.34 10.1951 219.864 10.2217 219.388 10.2543C219.239 10.2646 219.127 10.2587 219.016 10.2158C218.73 10.1019 218.383 10.164 218.06 10.1803C217.812 10.1921 217.733 10.238 217.762 10.3356C217.799 10.451 217.948 10.4865 218.329 10.4658C218.465 10.4584 218.602 10.4481 218.738 10.4421C218.871 10.4362 218.991 10.4554 219.098 10.4954C219.202 10.5353 219.326 10.556 219.454 10.5501C219.727 10.5368 220.004 10.5235 220.269 10.5013C220.488 10.4836 220.671 10.4983 220.824 10.5531C220.993 10.6137 221.192 10.6004 221.391 10.5871C221.854 10.5575 221.858 10.559 222.148 10.633C222.206 10.6478 222.264 10.6759 222.317 10.6744C222.793 10.6522 223.273 10.633 223.741 10.5975C223.985 10.5797 224.125 10.627 224.287 10.6655C224.345 10.6788 224.403 10.7084 224.456 10.7054C224.8 10.6892 225.143 10.6729 225.478 10.6448C225.635 10.6315 225.731 10.6403 225.859 10.6758C226.165 10.7631 226.173 10.7602 226.608 10.7321C226.74 10.7232 226.885 10.7069 227.009 10.7188C227.133 10.7306 227.233 10.7735 227.348 10.8001C227.402 10.812 227.468 10.8282 227.526 10.8253C227.799 10.8134 228.072 10.7957 228.345 10.7794C228.602 10.7631 228.602 10.7646 229.082 10.8563C229.276 10.8948 229.479 10.8622 229.674 10.8504C229.885 10.8371 230.075 10.8371 230.236 10.8948C230.398 10.9525 230.592 10.9495 230.799 10.9377C230.994 10.9258 231.192 10.8933 231.391 10.9333C231.846 11.025 231.846 11.0264 232.127 11.0087C232.537 10.9835 232.942 10.9599 233.356 10.9377C233.41 10.9347 233.48 10.9525 233.534 10.9643C233.65 10.9909 233.749 11.0353 233.873 11.0457C233.997 11.0575 234.142 11.0398 234.274 11.0309C234.701 11.0028 234.73 10.9924 235.015 11.09C235.255 11.1699 235.553 11.0545 235.776 11.1463C235.905 11.198 236.078 11.2394 236.318 11.2143C236.517 11.1936 236.724 11.1877 236.931 11.1758C237.258 11.1566 237.258 11.1581 237.671 11.2469C237.725 11.2587 237.795 11.2735 237.849 11.2705C238.122 11.2587 238.4 11.2483 238.664 11.2217C238.975 11.1906 239.173 11.2469 239.405 11.3016C239.587 11.3445 239.802 11.309 239.997 11.2942C240.208 11.2794 240.398 11.2838 240.555 11.3415C240.721 11.4007 240.915 11.3933 241.122 11.3815C241.316 11.3711 241.515 11.3371 241.714 11.3785C242.14 11.4702 242.14 11.4702 242.45 11.4525C242.723 11.4362 242.996 11.4184 243.269 11.4066C243.323 11.4037 243.389 11.4229 243.443 11.4362C243.559 11.4628 243.658 11.5072 243.782 11.5176C243.906 11.5279 244.051 11.5087 244.188 11.5013C244.324 11.4939 244.469 11.4717 244.593 11.4806C244.717 11.4895 244.833 11.5264 244.933 11.559C245.048 11.5974 245.156 11.6019 245.313 11.5871C245.512 11.5678 245.719 11.5634 245.921 11.5531C246.033 11.5812 246.149 11.6093 246.257 11.6403C246.368 11.6729 246.488 11.6699 246.641 11.6596C247.15 11.6241 247.154 11.6285 247.58 11.7202C247.775 11.7616 247.978 11.7276 248.172 11.7173C248.379 11.7054 248.573 11.6995 248.735 11.7587C248.892 11.8149 249.087 11.8223 249.293 11.8045C249.426 11.7927 249.566 11.7853 249.703 11.7809C249.765 11.7794 249.84 11.7853 249.885 11.7971C250.104 11.8593 250.319 11.9155 250.622 11.8755C250.886 11.8874 251.019 12.0087 251.337 11.985C251.606 11.9643 251.888 11.9598 252.152 11.9332C252.396 11.9095 252.57 11.951 252.694 12.0028C252.918 12.0945 253.232 11.9702 253.456 12.0604C253.584 12.1122 253.749 12.1536 253.998 12.1315C254.271 12.1078 254.358 12.1388 254.436 12.232C254.482 12.2853 254.474 12.3282 254.391 12.3696C254.308 12.4125 254.217 12.4051 254.085 12.3563C253.932 12.3016 253.749 12.2912 253.53 12.303C253.315 12.3149 253.183 12.238 253.005 12.2084C252.827 12.1773 252.616 12.2291 252.43 12.1891C251.991 12.096 251.991 12.096 251.693 12.1137C251.49 12.1255 251.279 12.1315 251.081 12.1522C250.845 12.1773 250.692 12.1314 250.531 12.09C250.473 12.0752 250.415 12.0471 250.365 12.0486C249.889 12.0708 249.409 12.0915 248.938 12.1285C248.689 12.1477 248.557 12.0945 248.391 12.0575C248.334 12.0442 248.271 12.0175 248.222 12.0205C247.812 12.0412 247.407 12.0678 246.997 12.093C246.919 12.1329 246.832 12.1714 246.757 12.2143C246.678 12.2587 246.571 12.2779 246.414 12.2764C246.153 12.2764 245.897 12.3385 245.636 12.2601C245.367 12.1803 245.346 12.1847 245.086 12.2039C244.755 12.2291 244.403 12.2232 244.093 12.2809C244.039 12.2912 243.981 12.3193 243.981 12.34C243.977 12.3533 244.064 12.3726 244.117 12.3844C244.3 12.4199 244.51 12.3681 244.693 12.4051C244.813 12.4288 244.912 12.4643 245.032 12.4894C245.081 12.4998 245.156 12.4983 245.222 12.4968C245.292 12.4953 245.359 12.485 245.425 12.4865C245.487 12.488 245.553 12.4968 245.603 12.5101C245.83 12.5663 246.07 12.6181 246.273 12.6847C246.472 12.7498 246.658 12.7054 246.856 12.7024C247.651 12.806 247.651 12.8075 248.185 12.7749C248.317 12.7675 248.454 12.7587 248.59 12.7601C248.648 12.7601 248.702 12.7867 248.76 12.8015C248.925 12.8459 249.082 12.8859 249.314 12.8622C249.513 12.8415 249.724 12.837 249.926 12.8237C250.2 12.8075 250.2 12.8075 250.663 12.9007C250.779 12.9243 250.903 12.9214 251.052 12.9095C251.18 12.8992 251.312 12.9214 251.403 12.9643C251.441 12.982 251.428 13.0116 251.441 13.0368C251.031 13.0604 250.617 13.0767 250.22 13.1122C249.964 13.1344 249.848 13.0708 249.678 13.0368C249.62 13.0249 249.558 12.9998 249.504 13.0027C249.099 13.0249 248.694 13.0501 248.288 13.0796C248.238 13.0826 248.176 13.1166 248.172 13.1373C248.164 13.1758 248.267 13.2128 248.416 13.2113C248.615 13.2098 248.809 13.1847 248.987 13.2453C249.136 13.2986 249.322 13.3223 249.542 13.2986C249.674 13.2853 249.815 13.2853 249.947 13.2734C250.299 13.2379 250.617 13.2453 250.882 13.3459C251.085 13.3725 251.284 13.3474 251.478 13.3341C251.623 13.3237 251.763 13.3134 251.867 13.3415C252.086 13.4006 252.301 13.4598 252.603 13.4199C252.93 13.4613 253.178 13.5486 253.452 13.6196C253.58 13.6536 253.679 13.6728 253.828 13.6507C253.89 13.6418 253.965 13.6418 254.031 13.6373C254.167 13.6299 254.312 13.6077 254.436 13.6166C254.56 13.627 254.664 13.6699 254.776 13.6965C254.829 13.7098 254.891 13.732 254.945 13.7305C255.152 13.7231 255.355 13.7083 255.557 13.6965C255.76 13.6861 255.963 13.6758 256.166 13.6654C256.335 13.7039 256.509 13.7424 256.679 13.7808C256.952 13.7646 257.225 13.7483 257.494 13.7335C257.796 13.7157 257.796 13.7172 258.23 13.8089C258.425 13.8503 258.632 13.8237 258.818 13.8045C259.128 13.7734 259.335 13.8296 259.554 13.8888C259.6 13.9006 259.683 13.908 259.736 13.9021C259.951 13.8814 260.138 13.8977 260.295 13.9524C260.407 13.9909 260.518 14.0086 260.655 14.0012C261.131 13.9731 261.606 13.9435 262.082 13.9184C262.14 13.9154 262.206 13.9287 262.26 13.9406C262.682 14.0308 262.686 14.0352 262.997 14.0116C263.274 13.9909 263.53 13.982 263.75 14.0634C263.795 14.0811 263.865 14.1063 263.915 14.1048C264.254 14.09 264.598 14.0737 264.933 14.0486C265.086 14.0367 265.194 14.0412 265.314 14.0752C265.467 14.1181 265.603 14.1699 265.856 14.1506C266.555 14.0959 266.559 14.1048 267.386 14.2068C267.444 14.2142 267.523 14.2024 267.589 14.1965C267.73 14.1817 267.833 14.2024 267.957 14.2364C268.235 14.3134 268.243 14.3089 268.508 14.2926C268.71 14.2793 268.921 14.2764 269.12 14.2542C269.426 14.2216 269.629 14.2793 269.857 14.3341C270.039 14.377 270.25 14.3415 270.444 14.3281C270.655 14.3134 270.845 14.3178 271.003 14.374C271.11 14.4125 271.226 14.4332 271.362 14.4258C271.838 14.3992 272.314 14.3696 272.79 14.3429C272.848 14.34 272.918 14.3518 272.972 14.3622C273.444 14.4539 273.444 14.4583 273.911 14.4243C274.06 14.4139 274.184 14.411 274.296 14.442C274.404 14.4716 274.519 14.4997 274.631 14.5278C274.834 14.5175 275.041 14.5145 275.239 14.4968C275.392 14.4835 275.5 14.4894 275.62 14.5205C275.777 14.5604 275.91 14.6299 276.158 14.5959C276.286 14.5796 276.435 14.5841 276.563 14.5693C276.716 14.55 276.82 14.5619 276.94 14.6003C277.089 14.6462 277.242 14.6935 277.482 14.6698C277.747 14.6432 278.028 14.6388 278.297 14.6181C278.446 14.6062 278.549 14.6181 278.669 14.6565C278.818 14.7053 278.988 14.7364 279.22 14.7172C279.691 14.6802 279.695 14.6876 280.155 14.7808C280.27 14.8045 280.395 14.8015 280.544 14.7897C280.672 14.7793 280.804 14.8015 280.895 14.8444C280.982 14.8917 280.974 14.9213 280.982 14.9465ZM244.113 1.60506C243.977 1.61245 243.84 1.62133 243.642 1.49263C243.629 1.47044 243.638 1.44382 243.609 1.42459C243.542 1.38465 243.439 1.35655 243.315 1.35211C243.091 1.34619 242.822 1.39648 242.827 1.43494C242.831 1.46748 242.901 1.49558 243.038 1.52221C243.095 1.53257 243.141 1.55032 243.195 1.56215C243.352 1.59618 243.476 1.66275 243.704 1.62873C243.662 1.53702 243.683 1.58287 243.704 1.62873C243.683 1.68494 243.745 1.72488 243.894 1.74116C243.935 1.74559 243.997 1.74263 244.031 1.73375C244.159 1.70121 244.18 1.65684 244.084 1.53998C244.068 1.55921 244.08 1.59322 244.117 1.6021C244.155 1.61097 244.246 1.60359 244.291 1.59323C244.407 1.56512 244.465 1.52814 244.436 1.49708C244.42 1.4808 244.341 1.46009 244.291 1.46009C244.204 1.46009 244.126 1.49263 244.113 1.60506ZM277.569 18.76C277.267 18.7881 276.919 18.7777 276.617 18.8354C276.563 18.8458 276.51 18.8724 276.505 18.8931C276.501 18.9064 276.584 18.9257 276.634 18.936C276.745 18.9597 276.869 18.9523 277.014 18.9449C277.234 18.9345 277.362 19.0026 277.531 19.0366C277.585 19.047 277.656 19.0544 277.714 19.0514C278.049 19.0336 278.38 19.0144 278.715 18.9937C278.773 18.9893 278.835 18.9789 278.884 18.9656C279.05 18.9227 279.033 18.8946 278.872 18.8621C278.694 18.8266 278.553 18.7674 278.371 18.7393C278.111 18.6993 277.846 18.7526 277.569 18.76ZM254.072 19.8399C253.869 19.8517 253.671 19.8635 253.468 19.8754C253.402 19.8798 253.332 19.8813 253.269 19.8872C253.141 19.8975 253.046 19.9286 252.984 19.9774C253.079 20.0159 253.195 20.0381 253.323 20.0336C253.526 20.0248 253.725 20.0055 253.927 20.0011C254.147 19.9952 254.275 20.0617 254.445 20.0958C254.498 20.1061 254.564 20.1076 254.627 20.1091C254.933 20.115 255.119 20.0381 255.061 19.9301C255.02 19.8458 254.862 19.7955 254.672 19.8058C254.473 19.8162 254.271 19.828 254.072 19.8399ZM278.984 16.5736C279.033 16.5485 279.087 16.5308 279.112 16.5086C279.186 16.4331 279.157 16.3769 279.021 16.3177C278.855 16.2453 278.653 16.2941 278.467 16.3015C278.421 16.3029 278.371 16.334 278.347 16.3532C278.33 16.3666 278.33 16.3947 278.355 16.4021C278.558 16.4612 278.773 16.516 278.984 16.5736ZM243.091 12.2039C242.893 12.2158 242.69 12.2246 242.491 12.2409C242.442 12.2454 242.396 12.2735 242.367 12.2927C242.314 12.3282 242.371 12.377 242.541 12.3814C242.736 12.3874 242.938 12.3622 243.141 12.3504C243.398 12.3356 243.551 12.2808 243.455 12.2335C243.364 12.1877 243.24 12.1788 243.091 12.2039ZM25.3004 9.04276C25.4328 9.03537 25.5694 9.02945 25.7017 9.01909C25.8259 9.00874 25.9211 8.97619 25.9832 8.92738C25.8797 8.88892 25.7638 8.86821 25.6356 8.87265C25.4329 8.88152 25.2343 8.89335 25.0357 8.90815C24.9116 8.91702 24.7916 8.94956 24.7626 8.99986C24.7337 9.03832 25.0108 9.06051 25.3004 9.04276ZM225.594 8.81495C225.648 8.82827 225.702 8.8549 225.755 8.8549C225.888 8.8549 226.024 8.84601 226.149 8.83122C226.202 8.8253 226.244 8.79868 226.268 8.77797C226.285 8.76466 226.281 8.741 226.256 8.72916C226.136 8.65816 225.656 8.6833 225.578 8.76466C225.569 8.77946 225.59 8.79868 225.594 8.81495ZM212.54 0.714543C212.553 0.738211 212.557 0.761876 212.574 0.785544C212.607 0.829922 212.698 0.862472 212.83 0.884661C212.934 0.847679 212.987 0.806267 212.983 0.761889C212.979 0.738221 212.967 0.714538 212.95 0.69087C212.917 0.646492 212.826 0.61396 212.694 0.591771C212.59 0.627273 212.54 0.668686 212.54 0.714543ZM288.545 20.0972C288.508 20.1165 288.471 20.1357 288.429 20.1535C288.541 20.1964 288.645 20.2097 288.723 20.186C288.773 20.1712 288.802 20.149 288.839 20.1298C288.727 20.0869 288.628 20.0751 288.545 20.0972ZM285.972 20.2984C286.026 20.3117 286.075 20.3295 286.133 20.3384C286.228 20.3532 286.315 20.328 286.381 20.2747C286.328 20.2614 286.278 20.2437 286.22 20.2348C286.125 20.22 286.038 20.2452 285.972 20.2984ZM287.602 20.0277C287.573 20.0632 287.631 20.0928 287.784 20.118C287.821 20.0987 287.871 20.081 287.896 20.0603C287.937 20.0262 287.867 19.9952 287.718 19.9715C287.676 19.9893 287.639 20.0085 287.602 20.0277ZM278.868 18.4331C278.839 18.4686 278.897 18.4982 279.05 18.5233C279.087 18.5041 279.137 18.4863 279.162 18.4656C279.203 18.4316 279.133 18.4005 278.984 18.3769C278.942 18.3946 278.905 18.4139 278.868 18.4331ZM266.969 7.96586C266.931 7.98509 266.894 8.00432 266.853 8.02207C266.964 8.06497 267.068 8.07828 267.146 8.05461C267.196 8.03982 267.225 8.01763 267.262 7.9984C267.151 7.9555 267.051 7.94367 266.969 7.96586ZM255.57 2.41273C255.669 2.42308 255.752 2.40238 255.822 2.34765C255.769 2.33433 255.719 2.31658 255.661 2.3077C255.566 2.29291 255.479 2.31807 255.413 2.37132C255.467 2.38611 255.52 2.39941 255.57 2.41273ZM249.517 2.0651C249.48 2.08433 249.442 2.10357 249.401 2.12132C249.513 2.16422 249.616 2.17752 249.695 2.15386C249.744 2.13906 249.773 2.11687 249.811 2.09764C249.699 2.05475 249.6 2.04439 249.517 2.0651ZM208.469 0.713062C208.432 0.732292 208.395 0.751523 208.353 0.769274C208.465 0.812173 208.569 0.825482 208.647 0.801814C208.697 0.787021 208.726 0.764832 208.763 0.745601C208.651 0.702703 208.552 0.692352 208.469 0.713062ZM4.0836 12.7483C4.02982 12.735 3.97608 12.7217 3.92643 12.7069C3.80644 12.7468 3.76922 12.7838 3.83542 12.8119C3.87679 12.8297 3.93881 12.84 3.99259 12.8533C4.11672 12.8134 4.14567 12.7779 4.0836 12.7483Z" fill="#FFE492"/>
<path d="M128.077 7.52527C127.601 7.55337 127.13 7.58886 126.654 7.60662C126.401 7.61549 126.311 7.6791 126.207 7.73827C126.124 7.78561 126.029 7.8004 125.876 7.80927C124.585 7.88176 123.298 7.95868 122.012 8.03412C121.85 8.01489 121.772 7.98383 121.809 7.94685C121.83 7.92466 121.879 7.8936 121.929 7.89064C122.81 7.83591 123.687 7.77969 124.573 7.73679C124.825 7.72496 124.895 7.65987 125.024 7.60662C125.065 7.58886 125.098 7.56224 125.152 7.55188C125.206 7.54005 125.284 7.54153 125.355 7.53858C126.778 7.45426 128.201 7.37143 129.625 7.28711C129.786 7.30634 129.865 7.3374 129.827 7.37438C129.807 7.39657 129.757 7.42763 129.707 7.43059C129.161 7.46166 128.619 7.49272 128.077 7.52527Z" fill="#FFE492"/>
<path d="M388.872 15.4022C388.657 15.42 388.384 15.4451 388.161 15.3593C388.053 15.3179 387.937 15.3046 387.797 15.3135C387.594 15.3283 387.387 15.3401 387.18 15.349C387.126 15.3505 387.056 15.3342 387.002 15.3209C386.886 15.2942 386.787 15.2499 386.663 15.238C386.539 15.2262 386.39 15.2588 386.262 15.2514C386.092 15.241 386.022 15.2011 386.067 15.1641C386.092 15.1434 386.142 15.1138 386.196 15.1094C386.961 15.0546 386.965 15.0546 387.18 15.1079C387.346 15.1493 387.499 15.1951 387.735 15.17C387.933 15.1493 388.144 15.1448 388.347 15.1315C388.628 15.1138 388.628 15.1153 389.083 15.2085C389.199 15.2321 389.323 15.2306 389.472 15.2173C389.601 15.207 389.725 15.2306 389.828 15.2706C389.762 15.3209 389.667 15.3534 389.539 15.3623C389.332 15.3771 389.129 15.3874 388.872 15.4022Z" fill="#FFE492"/>
<path d="M380.832 14.9463C381.353 14.9153 381.879 14.8886 382.4 14.8531C382.615 14.8384 382.785 14.8546 382.934 14.9049C383.095 14.9596 383.277 14.9552 383.476 14.9449C383.6 14.9389 383.72 14.9626 383.803 15.004C383.836 15.0203 383.828 15.0499 383.84 15.0736C383.385 15.1002 382.926 15.1283 382.466 15.1519C382.413 15.1549 382.346 15.1401 382.297 15.1283C382.185 15.1031 382.09 15.0588 381.97 15.0499C381.713 15.0292 381.457 15.0691 381.196 15.0765C381.072 15.0795 380.952 15.0573 380.869 15.0173C380.836 14.9981 380.844 14.97 380.832 14.9463Z" fill="#FFE492"/>
<path d="M192.451 2.22871C192.993 2.19616 193.535 2.16511 194.077 2.13257C194.238 2.15328 194.313 2.18286 194.279 2.21984C194.259 2.24203 194.209 2.27309 194.159 2.27605C193.075 2.34262 191.991 2.40622 190.912 2.46982C190.75 2.44912 190.676 2.41954 190.709 2.38255C190.73 2.36037 190.779 2.3293 190.829 2.32634C191.367 2.29232 191.909 2.26125 192.451 2.22871Z" fill="#FFE492"/>
<path d="M108.747 10.4488C108.503 10.4517 108.246 10.5065 107.973 10.4651C107.919 10.4577 107.845 10.434 107.849 10.4207C107.857 10.3985 107.907 10.3704 107.961 10.3615C108.196 10.3245 108.49 10.3201 108.61 10.2165C108.668 10.1633 108.776 10.1455 108.921 10.1352C109.074 10.1233 109.181 10.1278 109.301 10.1588C109.458 10.1988 109.591 10.2727 109.839 10.2343C109.851 10.2579 109.88 10.2846 109.868 10.3068C109.856 10.329 109.802 10.3497 109.752 10.3659C109.707 10.3807 109.645 10.394 109.587 10.3985C109.314 10.4162 109.04 10.431 108.747 10.4488Z" fill="#FFE492"/>
<path d="M323.903 10.1505C324.106 10.1386 324.317 10.1327 324.515 10.112C324.672 10.0957 324.772 10.1061 324.896 10.1416C325.107 10.2037 325.119 10.1978 325.636 10.2067C325.694 10.2081 325.765 10.2303 325.798 10.2496C325.819 10.2599 325.79 10.288 325.765 10.3028C325.727 10.3221 325.674 10.3472 325.624 10.3472C325.297 10.3516 324.966 10.4389 324.648 10.3383C324.486 10.288 324.308 10.2643 324.089 10.2865C323.957 10.2998 323.816 10.3058 323.679 10.3117C323.547 10.3176 323.411 10.3013 323.328 10.257C323.208 10.1919 323.278 10.1667 323.493 10.1712C323.63 10.1741 323.766 10.1579 323.903 10.1505Z" fill="#FFE492"/>
<path d="M398.866 20.3465C399.127 20.3317 399.388 20.3139 399.652 20.3021C399.706 20.2992 399.772 20.3154 399.822 20.3258C400.021 20.3702 399.992 20.4456 400 20.5122C400.004 20.5817 399.545 20.6379 399.35 20.5906C399.135 20.5373 398.941 20.4767 398.643 20.5092C398.527 20.521 398.39 20.4944 398.316 20.4515C398.204 20.3894 398.266 20.3642 398.477 20.3687C398.601 20.3716 398.734 20.3554 398.866 20.3465Z" fill="#FFE492"/>
<path d="M267.509 0.213085C267.778 0.196813 268.047 0.171678 268.316 0.170199C268.473 0.16872 268.552 0.217526 268.515 0.253028C268.494 0.275217 268.444 0.306282 268.395 0.30924C267.857 0.344742 267.319 0.374333 266.781 0.406876C266.624 0.386167 266.545 0.355107 266.582 0.319605C266.603 0.297416 266.653 0.267831 266.702 0.263393C266.971 0.242683 267.24 0.229357 267.509 0.213085Z" fill="#FFE492"/>
<path d="M393.65 15.5316C393.911 15.5168 394.175 15.4946 394.436 15.4872C394.573 15.4843 394.68 15.5183 394.697 15.5568C394.705 15.5745 394.639 15.6056 394.585 15.613C394.213 15.6633 393.811 15.6692 393.422 15.6943C393.298 15.7017 393.166 15.6781 393.091 15.6366C392.98 15.573 393.042 15.5494 393.253 15.5538C393.385 15.5553 393.518 15.539 393.65 15.5316Z" fill="#FFE492"/>
<path d="M330.772 10.3502C330.905 10.3428 331.041 10.3236 331.17 10.3295C331.306 10.3369 331.393 10.3798 331.434 10.4227C331.48 10.4715 331.476 10.5174 331.434 10.5588C331.368 10.6298 331.302 10.6268 331.149 10.5795C330.913 10.5055 330.896 10.5144 330.429 10.5174C330.375 10.5174 330.309 10.4952 330.268 10.4759C330.206 10.4463 330.239 10.4005 330.383 10.3739C330.491 10.3546 330.64 10.3576 330.772 10.3502Z" fill="#FFE492"/>
<path d="M384.727 15.0465C384.922 15.0347 385.116 15.0154 385.311 15.0154C385.447 15.0139 385.555 15.048 385.567 15.0849C385.572 15.1027 385.509 15.1323 385.46 15.1412C385.224 15.1811 384.959 15.1841 384.703 15.1974C384.583 15.2033 384.45 15.1796 384.376 15.1382C384.264 15.0761 384.33 15.048 384.533 15.0568C384.595 15.0598 384.661 15.0509 384.727 15.0465Z" fill="#FFE492"/>
<path d="M353.461 13.2321C353.171 13.2499 352.898 13.2277 352.919 13.1892C352.948 13.1389 353.068 13.1064 353.192 13.0975C353.391 13.0827 353.589 13.0709 353.792 13.062C353.92 13.0561 354.036 13.0783 354.14 13.1167C354.078 13.1641 353.982 13.1981 353.858 13.2084C353.73 13.2188 353.594 13.2247 353.461 13.2321Z" fill="#FFE492"/>
<path d="M351.578 13.0433C351.772 13.0315 351.966 13.0123 352.161 13.0123C352.297 13.0108 352.405 13.0448 352.417 13.0818C352.422 13.0995 352.36 13.1291 352.31 13.138C352.074 13.1779 351.809 13.1809 351.553 13.1942C351.433 13.2001 351.3 13.1764 351.226 13.135C351.114 13.0729 351.18 13.0448 351.383 13.0537C351.445 13.0566 351.511 13.0477 351.578 13.0433Z" fill="#FFE492"/>
<path d="M328.897 10.3375C329.091 10.3257 329.286 10.3065 329.48 10.305C329.617 10.3035 329.724 10.3375 329.737 10.3745C329.741 10.3923 329.679 10.4204 329.629 10.4307C329.393 10.4707 329.129 10.4736 328.872 10.4869C328.752 10.4929 328.62 10.4692 328.545 10.4278C328.433 10.3656 328.5 10.3375 328.702 10.3464C328.764 10.3494 328.831 10.3405 328.897 10.3375Z" fill="#FFE492"/>
<path d="M327.27 10.2512C327.476 10.2393 327.543 10.2319 327.609 10.2319C327.733 10.2319 327.861 10.2497 327.936 10.2926C328.047 10.3547 327.981 10.3725 327.778 10.3754C327.518 10.3784 327.261 10.4095 327.001 10.4154C326.864 10.4183 326.757 10.3828 326.748 10.3458C326.744 10.3281 326.806 10.297 326.856 10.2911C327.03 10.2689 327.22 10.2556 327.27 10.2512Z" fill="#FFE492"/>
<path d="M350.025 1.55C349.892 1.5574 349.752 1.57811 349.628 1.57071C349.462 1.56036 349.396 1.52042 349.437 1.48344C349.462 1.46273 349.508 1.43315 349.557 1.42871C349.822 1.408 350.091 1.39468 350.356 1.37988C350.513 1.40207 350.583 1.43313 350.542 1.47012C350.517 1.49082 350.472 1.51893 350.422 1.52485C350.294 1.53964 350.157 1.5426 350.025 1.55Z" fill="#FFE492"/>
<path d="M189.43 2.40364C189.558 2.40216 189.674 2.42139 189.773 2.45838C189.711 2.50571 189.62 2.53678 189.496 2.55009C189.434 2.55601 189.364 2.56044 189.298 2.56192C189.169 2.56487 189.053 2.54417 188.954 2.50718C189.016 2.45985 189.111 2.42878 189.231 2.41547C189.293 2.40955 189.364 2.40808 189.43 2.40364Z" fill="#FFE492"/>
<path d="M393.037 15.5268C393.033 15.4839 393.285 15.4351 393.512 15.4366C393.632 15.438 393.757 15.4588 393.827 15.4987C393.934 15.5593 393.872 15.583 393.67 15.5786C393.545 15.5756 393.413 15.6007 393.289 15.5963C393.148 15.5948 393.066 15.5623 393.037 15.5268Z" fill="#FFE492"/>
<path d="M331.998 10.53C331.994 10.5137 331.973 10.4945 331.985 10.4797C332.064 10.3983 332.54 10.3732 332.664 10.4442C332.685 10.4575 332.693 10.4797 332.676 10.493C332.652 10.5137 332.606 10.5403 332.556 10.5463C332.428 10.5611 332.296 10.5685 332.163 10.5699C332.105 10.5699 332.052 10.5448 331.998 10.53Z" fill="#FFE492"/>
<path d="M110.925 10.2105C110.436 10.2415 110.428 10.2386 110.515 10.1646C110.594 10.098 110.738 10.0581 110.949 10.0581C111.011 10.0581 111.078 10.0552 111.131 10.0611C111.189 10.0685 111.272 10.0832 111.285 10.101C111.309 10.135 111.239 10.172 111.115 10.1972C111.061 10.209 110.991 10.206 110.925 10.2105Z" fill="#FFE492"/>
<path d="M195.447 2.19309C195.302 2.21824 195.178 2.20937 195.087 2.16204C194.996 2.1147 195.141 2.05848 195.393 2.04517C195.459 2.04221 195.53 2.03039 195.592 2.0363C195.654 2.04074 195.716 2.05848 195.753 2.07623C195.819 2.10581 195.778 2.14576 195.646 2.17979C195.592 2.1931 195.513 2.19014 195.447 2.19309Z" fill="#FFE492"/>
<path d="M392.165 15.4161C392.202 15.3968 392.239 15.3776 392.28 15.3599C392.433 15.385 392.499 15.4146 392.458 15.4486C392.433 15.4693 392.384 15.4871 392.346 15.5063C392.194 15.4812 392.132 15.4501 392.165 15.4161Z" fill="#FFE492"/>
<path d="M117.444 27.05C117.444 27.0323 117.502 27.0042 117.547 26.9982C117.634 26.9879 117.741 27.0086 117.815 27.05C117.919 27.1092 117.857 27.1402 117.667 27.124C117.535 27.1121 117.444 27.0826 117.444 27.05Z" fill="#FFE492"/>
<path d="M333.979 9.15345C334.033 9.16677 334.087 9.18009 334.136 9.19488C334.066 9.24961 333.979 9.27327 333.889 9.25848C333.831 9.2496 333.781 9.23185 333.728 9.21853C333.798 9.1638 333.88 9.1431 333.979 9.15345Z" fill="#FFE492"/>
<path d="M332.973 9.08493C333.056 9.06274 333.155 9.07459 333.27 9.11749C333.233 9.13672 333.2 9.15891 333.155 9.1737C333.076 9.19737 332.973 9.18552 332.862 9.14114C332.895 9.12339 332.932 9.10416 332.973 9.08493Z" fill="#FFE492"/>
<path d="M331.367 9.15056C331.421 9.16387 331.474 9.17719 331.524 9.19198C331.454 9.24671 331.371 9.27037 331.276 9.25558C331.218 9.2467 331.169 9.22895 331.115 9.21564C331.185 9.1609 331.268 9.13872 331.367 9.15056Z" fill="#FFE492"/>
<path d="M330.519 9.07121C330.581 9.10079 330.548 9.13629 330.428 9.17623C330.374 9.16292 330.312 9.15258 330.271 9.13482C330.205 9.10672 330.238 9.06973 330.362 9.02979C330.411 9.04458 330.465 9.0579 330.519 9.07121Z" fill="#FFE492"/>
</svg>
